<svg width="153" height="106" viewBox="0 0 153 106" fill="none" xmlns="http://www.w3.org/2000/svg">
<rect x="0.5" y="0.5" width="152" height="105" rx="4.5" stroke="#E3CFFC" stroke-dasharray="10 5"/>
<path d="M24.6875 38.4844H29.375V37.3125H30.5469V36.1406H32.8906V38.4844H31.7188V39.6562H30.5469V40.8281H23.5156V39.6562H22.3438V38.4844H21.1719V26.7656H22.3438V25.5938H23.5156V24.4219H30.5469V25.5938H31.7188V26.7656H32.8906V29.1094H30.5469V27.9375H29.375V26.7656H24.6875V27.9375H23.5156V37.3125H24.6875V38.4844ZM38.75 38.4844H43.4375V37.3125H44.6094V34.9688H43.4375V33.7969H38.75V34.9688H37.5781V37.3125H38.75V38.4844ZM37.5781 40.8281V39.6562H36.4062V38.4844H35.2344V33.7969H36.4062V32.625H37.5781V31.4531H43.4375V32.625H44.6094V30.2812H43.4375V29.1094H37.5781V26.7656H44.6094V27.9375H45.7812V29.1094H46.9531V40.8281H44.6094V39.6562H43.4375V40.8281H37.5781ZM56.3281 24.4219V40.8281H53.9844V24.4219H56.3281ZM65.7031 31.4531V32.625H72.7344V31.4531H71.5625V30.2812H66.875V31.4531H65.7031ZM75.0781 37.3125V38.4844H73.9062V39.6562H72.7344V40.8281H65.7031V39.6562H64.5312V38.4844H63.3594V30.2812H64.5312V29.1094H65.7031V27.9375H72.7344V29.1094H73.9062V30.2812H75.0781V33.7969H73.9062V34.9688H65.7031V37.3125H66.875V38.4844H71.5625V37.3125H75.0781ZM79.7656 31.4531V40.8281H77.4219V27.9375H79.7656V29.1094H80.9375V27.9375H86.7969V29.1094H87.9688V30.2812H89.1406V40.8281H86.7969V31.4531H85.625V30.2812H80.9375V31.4531H79.7656ZM100.859 30.2812V24.4219H103.203V40.8281H100.859V38.4844H99.6875V39.6562H98.5156V40.8281H95V39.6562H93.8281V38.4844H92.6562V37.3125H91.4844V31.4531H92.6562V30.2812H93.8281V29.1094H95V27.9375H98.5156V29.1094H99.6875V30.2812H100.859ZM95 37.3125H96.1719V38.4844H97.3438V37.3125H98.5156V36.1406H99.6875V32.625H98.5156V31.4531H97.3438V30.2812H96.1719V31.4531H95V32.625H93.8281V36.1406H95V37.3125ZM109.062 38.4844H113.75V37.3125H114.922V34.9688H113.75V33.7969H109.062V34.9688H107.891V37.3125H109.062V38.4844ZM107.891 40.8281V39.6562H106.719V38.4844H105.547V33.7969H106.719V32.625H107.891V31.4531H113.75V32.625H114.922V30.2812H113.75V29.1094H107.891V26.7656H114.922V27.9375H116.094V29.1094H117.266V40.8281H114.922V39.6562H113.75V40.8281H107.891ZM121.953 33.7969V40.8281H119.609V27.9375H121.953V30.2812H123.125V29.1094H124.297V27.9375H128.984V29.1094H130.156V30.2812H131.328V32.625H128.984V31.4531H127.812V30.2812H125.469V31.4531H124.297V32.625H123.125V33.7969H121.953Z" fill="#4E3020"/>
<path d="M24.6875 81.4844H29.375V80.3125H30.5469V79.1406H32.8906V81.4844H31.7188V82.6562H30.5469V83.8281H23.5156V82.6562H22.3438V81.4844H21.1719V69.7656H22.3438V68.5938H23.5156V67.4219H30.5469V68.5938H31.7188V69.7656H32.8906V72.1094H30.5469V70.9375H29.375V69.7656H24.6875V70.9375H23.5156V80.3125H24.6875V81.4844ZM38.75 81.4844H43.4375V80.3125H44.6094V77.9688H43.4375V76.7969H38.75V77.9688H37.5781V80.3125H38.75V81.4844ZM37.5781 83.8281V82.6562H36.4062V81.4844H35.2344V76.7969H36.4062V75.625H37.5781V74.4531H43.4375V75.625H44.6094V73.2812H43.4375V72.1094H37.5781V69.7656H44.6094V70.9375H45.7812V72.1094H46.9531V83.8281H44.6094V82.6562H43.4375V83.8281H37.5781ZM56.3281 67.4219V83.8281H53.9844V67.4219H56.3281ZM65.7031 74.4531V75.625H72.7344V74.4531H71.5625V73.2812H66.875V74.4531H65.7031ZM75.0781 80.3125V81.4844H73.9062V82.6562H72.7344V83.8281H65.7031V82.6562H64.5312V81.4844H63.3594V73.2812H64.5312V72.1094H65.7031V70.9375H72.7344V72.1094H73.9062V73.2812H75.0781V76.7969H73.9062V77.9688H65.7031V80.3125H66.875V81.4844H71.5625V80.3125H75.0781ZM79.7656 74.4531V83.8281H77.4219V70.9375H79.7656V72.1094H80.9375V70.9375H86.7969V72.1094H87.9688V73.2812H89.1406V83.8281H86.7969V74.4531H85.625V73.2812H80.9375V74.4531H79.7656ZM100.859 73.2812V67.4219H103.203V83.8281H100.859V81.4844H99.6875V82.6562H98.5156V83.8281H95V82.6562H93.8281V81.4844H92.6562V80.3125H91.4844V74.4531H92.6562V73.2812H93.8281V72.1094H95V70.9375H98.5156V72.1094H99.6875V73.2812H100.859ZM95 80.3125H96.1719V81.4844H97.3438V80.3125H98.5156V79.1406H99.6875V75.625H98.5156V74.4531H97.3438V73.2812H96.1719V74.4531H95V75.625H93.8281V79.1406H95V80.3125ZM109.062 81.4844H113.75V80.3125H114.922V77.9688H113.75V76.7969H109.062V77.9688H107.891V80.3125H109.062V81.4844ZM107.891 83.8281V82.6562H106.719V81.4844H105.547V76.7969H106.719V75.625H107.891V74.4531H113.75V75.625H114.922V73.2812H113.75V72.1094H107.891V69.7656H114.922V70.9375H116.094V72.1094H117.266V83.8281H114.922V82.6562H113.75V83.8281H107.891ZM121.953 76.7969V83.8281H119.609V70.9375H121.953V73.2812H123.125V72.1094H124.297V70.9375H128.984V72.1094H130.156V73.2812H131.328V75.625H128.984V74.4531H127.812V73.2812H125.469V74.4531H124.297V75.625H123.125V76.7969H121.953Z" fill="#FFC28A"/>
</svg>
