<svg width="197" height="73" viewBox="0 0 197 73" fill="none" xmlns="http://www.w3.org/2000/svg">
<path d="M71.4081 42.7073C69.1331 42.4799 61.6494 42.9166 60.1507 42.4012C60.0107 42.2687 59.8695 42.1624 59.881 41.934C59.9046 41.463 59.8578 40.1174 60.1356 39.7898C60.8926 39.5543 63.5417 39.6501 64.4842 39.6402C66.7519 39.6163 69.0473 39.7045 71.3201 39.5698C71.37 40.2231 71.3144 42.0724 71.5495 42.49C71.8745 42.798 73.6084 42.6085 74.3494 42.6593C74.4504 43.9222 74.4297 45.3378 74.4081 46.6141C74.3267 51.4365 74.4905 56.3071 74.3672 61.1249C73.6361 61.0698 72.3073 61.167 71.4436 61.1449C71.3518 60.326 71.3683 58.9893 71.3056 58.0612C70.1438 57.9944 69.0986 57.9843 67.9432 58.1211C67.9804 59.1214 67.9416 60.123 67.8269 61.1173C66.1659 61.0797 64.5042 61.0775 62.8431 61.1109C62.1068 61.1188 60.8881 61.1903 60.2095 61.0844C59.7141 60.6291 60.1524 59.0796 59.835 58.3044C59.1843 57.7027 57.2045 58.3209 57.0011 57.8348C56.5232 56.6925 56.8396 52.4881 56.9071 51.3374L59.8453 51.1995C59.7945 52.281 59.8242 57.1138 59.9741 58.0489C62.1471 58.0407 65.864 58.2041 67.9128 57.9574C67.8978 56.9485 67.9036 55.9265 67.9014 54.9165C68.7119 54.9666 69.9915 54.817 70.7105 54.9402C70.9456 54.9198 71.0322 54.9261 71.2364 54.7933C71.4823 54.2526 71.3867 51.9974 71.4035 51.1831C70.0793 51.1548 68.755 51.1415 67.4305 51.143C65.1348 51.073 62.288 51.168 59.9674 51.2075C59.9555 50.5425 59.8655 48.9733 60.0987 48.4228C60.7855 47.9447 69.6808 48.3446 71.3658 48.2062C71.4418 46.4989 71.3999 44.441 71.4081 42.7073Z" fill="#F0E7D5"/>
<path d="M30.0013 30.778C30.3021 30.7707 30.787 30.7984 31.1004 30.8071C31.1725 31.777 31.107 32.9743 31.0761 33.9659C29.9798 33.9229 23.6156 33.7701 22.9935 34.1354C22.6093 35.6116 22.9612 40.5312 22.9599 42.2259C22.9589 43.4114 22.8497 44.7855 22.8443 45.961C22.7987 47.4287 23.0842 49.1238 22.9745 50.5654C22.7104 54.0366 22.9676 57.6618 22.8118 61.0972C21.8731 61.2229 20.7468 61.167 19.7922 61.1398C19.7396 59.0216 19.7749 56.7593 19.7708 54.6299L19.7952 34.0164C18.1409 33.7635 13.698 33.9782 11.6838 33.8886C11.5983 32.929 11.5916 31.8169 11.696 30.8596C13.2545 30.7354 15.2874 30.8461 16.8926 30.8137C21.1788 30.727 25.7373 30.9538 30.0013 30.778Z" fill="#F0E7D5"/>
<path d="M95.4943 39.6174L96.7688 39.5693C96.7736 41.4202 96.7649 43.2711 96.7448 45.122C95.8785 45.1695 94.8728 45.1249 94.0083 45.0784C93.7953 44.0326 93.7464 43.7149 93.8361 42.6471L87.7772 42.6434C87.0721 42.6385 85.0566 42.5637 84.458 42.6771C84.178 43.0304 84.2766 50.2407 84.2996 51.3324C84.3368 53.0913 84.1223 56.3881 84.3187 58.1027C86.9569 57.9868 91.2708 58.2739 93.6455 57.9845C93.6768 57.2973 93.6074 55.8511 94.0383 55.3277C94.422 54.8615 96.3009 54.7534 96.7063 55.13C96.8303 55.5842 96.7697 56.3431 96.7534 56.8391C96.7275 58.2395 96.7284 59.6402 96.7563 61.0405C93.0793 61.1397 89.3701 61.0137 85.6892 61.1606C85.2672 61.1775 84.6805 61.1904 84.3808 60.8866C84.0554 60.0518 84.5567 58.6249 84.0332 58.0842C83.4788 57.9526 81.9162 58.0019 81.2384 57.9963C81.0795 56.6971 81.1551 54.0752 81.1557 52.6546C81.1381 49.3846 81.1621 46.1145 81.2279 42.845C82.2854 42.7111 83.1624 42.7951 84.276 42.5588C84.3865 41.7286 84.1841 40.4858 84.4399 39.9172C85.1092 39.4567 93.9312 39.6616 95.4943 39.6174Z" fill="#F0E7D5"/>
<path d="M103.947 28.1981C104.563 28.2235 106.478 28.0959 106.89 28.4138C107.133 29.2795 107.018 32.0991 107.018 33.1375C107.048 36.2551 107.05 39.3728 107.029 42.4905C107.015 44.28 106.888 46.5883 107.001 48.3183C107.647 48.3981 110.182 48.6021 110.674 48.2721C111.084 47.8124 110.998 46.4274 111.029 45.7609C112.128 45.6957 112.94 45.6635 114.037 45.6983C114.178 46.3026 114.404 47.9935 113.941 48.4425C113.46 48.9088 111.792 48.8368 111.122 48.8589L111.241 51.8084C112.192 51.9809 113.848 51.8137 114.32 52.2067L114.337 52.5205C114.283 53.2129 114.429 54.5727 114.141 54.9502L113.955 54.9833C113.259 54.8542 112.036 54.8829 111.3 54.8858C111.27 54.0153 111.228 53.1452 111.173 52.2758C109.615 52.0942 108.513 52.1517 106.973 52.3061C107.037 55.2313 107.057 58.1573 107.033 61.0831C106.015 61.1047 104.936 61.0656 103.912 61.0434C103.781 56.0556 103.889 50.8582 103.891 45.853C103.839 39.9681 103.858 34.0826 103.947 28.1981Z" fill="#F0E7D5"/>
<path d="M169.624 28.1873C170.057 28.1661 171.025 28.0848 171.395 28.2773C171.67 29.249 171.567 32.6917 171.567 33.8384L171.564 42.6116C171.561 44.3983 171.671 46.7182 171.623 48.3982C172.893 48.3916 174.162 48.362 175.431 48.3097C175.453 47.4773 175.468 46.6448 175.477 45.8122C176.575 45.6392 177.688 45.8477 178.749 45.573C178.8 46.6316 178.788 47.6922 178.714 48.7495C177.901 48.8246 176.347 48.7994 175.503 48.8095C175.421 49.9777 175.432 51.0591 175.438 52.2268C174.005 52.099 172.993 52.1472 171.555 52.2467C171.506 55.1121 171.634 58.231 171.5 61.0499C170.34 61.139 169.572 61.1375 168.423 60.9735C168.349 59.5636 168.511 57.9769 168.527 56.5411L168.538 46.4796L168.529 33.8076C168.539 32.2894 168.428 29.8259 168.57 28.3504C168.813 28.1797 169.307 28.2019 169.624 28.1873Z" fill="#F0E7D5"/>
<path d="M129.475 34.1946C130.348 34.1511 131.458 34.1729 132.35 34.1647C132.582 36.0693 132.393 37.6643 132.406 39.5688C134.995 39.766 137.878 39.481 140.346 39.6636C140.377 40.1122 140.404 40.561 140.426 41.0101C140.444 41.4074 140.439 42.4796 140.2 42.5147C138.561 42.7556 133.857 42.5698 132.507 42.6173C132.457 46.1815 132.45 49.7462 132.485 53.3107C132.486 54.7341 132.45 56.8428 132.652 58.1956C131.485 58.029 130.613 58.023 129.431 57.9945C129.29 53.9727 129.496 49.8479 129.41 45.8162C129.386 44.7288 129.418 43.7281 129.29 42.6396C128.239 42.6427 126.946 42.5482 125.878 42.5008C125.836 41.5749 125.864 40.6098 125.892 39.684C126.978 39.578 128.21 39.6746 129.428 39.5525C129.385 37.9325 129.377 35.8002 129.475 34.1946Z" fill="#F0E7D5"/>
<path d="M151.45 39.6245C152.271 39.6226 156.063 39.48 156.543 39.7221C156.787 40.5769 156.746 47.2236 156.709 48.52C156.628 51.3649 156.846 55.2395 156.715 58.0411C157.719 58.0623 158.799 58.0842 159.8 57.9943C161.473 57.8441 161.019 59.9833 160.956 61.1115C159.356 61.0731 157.664 61.0904 156.056 61.084C154.065 61.0735 152.073 61.1372 150.075 61.1096C150.06 60.1275 150.067 59.1451 150.099 58.1633C151.276 58.1021 152.453 58.0488 153.631 58.0035C153.8 56.7753 153.741 53.7828 153.734 52.3873C153.72 49.2227 153.802 45.8271 153.668 42.6838C152.488 42.6716 151.315 42.5558 150.12 42.5375C150.072 41.6086 150.12 40.6156 150.145 39.6816L151.45 39.6245Z" fill="#F0E7D5"/>
<path d="M96.296 17.3796C96.3392 17.3771 96.4411 17.4143 96.4901 17.4292C96.7139 18.6097 96.6496 21.0058 96.5833 22.2225C96.542 22.9907 93.8486 24.5583 93.1283 25.0742C89.3384 27.7507 85.4991 30.3565 81.6124 32.8902L81.4321 32.9266L81.3213 32.7802C81.1607 31.491 81.2577 30.246 81.2521 28.9708C81.2444 27.1975 81.9811 27.256 83.2762 26.3576L87.3922 23.4641L92.9187 19.5998C94.2847 18.6568 94.7552 18.2171 96.296 17.3796Z" fill="#F0E7D5"/>
<path d="M36.6235 39.6919C37.5784 39.6202 38.5345 39.5664 39.4914 39.5307C39.5675 41.3951 39.5213 43.237 39.6096 45.1366C40.2211 45.1504 41.0487 45.1997 41.6316 45.0879C41.8578 45.1287 42.0801 45.1187 42.1917 45.3172C42.4796 45.8294 42.38 47.0098 42.3651 47.6055C42.3189 47.8019 42.3107 48.0386 42.1551 48.1048C41.5372 48.3674 40.7016 48.1632 39.9758 48.2428L39.6793 48.2446L39.5776 48.4098C39.423 48.9646 39.5056 51.1854 39.4869 51.8836C39.4086 54.8225 39.6377 58.1834 39.4752 61.0834L39.2523 61.0903C38.6664 61.1079 36.82 61.2298 36.473 60.903C36.2849 59.4448 36.5156 55.8304 36.5158 54.0838L36.496 44.61C36.5028 43.0865 36.4249 41.1661 36.6235 39.6919Z" fill="#F0E7D5"/>
<path d="M98.499 6.52825C98.9996 6.81353 99.4569 7.0651 99.9219 7.40933L100.493 8.17779C100.378 9.46888 100.256 11.1966 100.323 12.4694C99.9901 12.24 99.4732 11.7889 99.0928 12.0551C96.347 13.9774 93.5986 15.9244 90.8228 17.8061C90.6876 17.8977 90.6192 17.8483 90.4964 17.7923C90.2316 16.8573 90.3231 13.4188 90.4532 12.3783C90.7947 11.3187 92.6513 10.4985 93.4184 9.89121C95.1138 8.54914 96.6343 7.57158 98.499 6.52825Z" fill="#F0E7D5"/>
<path d="M104.149 19.0868C104.58 19.2398 105.249 19.4999 105.604 19.7699C108.689 22.1199 111.996 24.483 114.951 26.9756C114.182 27.6576 111.879 28.9605 111.449 29.5337C111.369 29.4976 111.146 29.3948 111.085 29.3436C109.014 27.6395 106.813 26.0647 104.705 24.4226C103.838 23.7468 104.131 20.1979 104.149 19.0868Z" fill="#F0E7D5"/>
<path d="M45.5207 39.6713C47.2575 39.6486 50.3891 39.712 52.0061 39.523C52.0066 40.4692 52.1329 44.5296 51.8384 45.1354C51.4021 45.2301 49.631 45.2244 49.1455 45.1819C49.0913 44.3329 49.0629 43.4825 49.0603 42.6318C48.3678 42.538 46.5084 42.203 45.9284 42.5275C45.4198 42.812 45.5247 44.4641 45.4616 45.0616L43.3048 45.0811C42.665 45.1065 42.6071 45.2094 42.3369 44.6192C42.4735 43.9827 42.4209 42.93 42.4313 42.2395C43.2432 42.1935 44.956 42.3432 45.3404 41.9506C45.6523 41.2459 45.4839 40.4455 45.5207 39.6713Z" fill="#F0E7D5"/>
<path d="M141.241 54.9778C143.985 54.7992 143.353 55.6716 143.152 58.029L140.432 58.1233C140.509 59.2958 140.507 59.8982 140.426 61.0478C138.821 61.1853 136.367 61.0441 134.526 61.1475C131.855 61.3013 132.533 60.4116 132.598 58.1034C134.313 58.0889 139.153 58.1893 140.445 57.8832C140.426 57.1913 140.264 55.8219 140.577 55.214C140.685 55.0038 140.991 55.0158 141.241 54.9778Z" fill="#F0E7D5"/>
<path d="M104.154 10.9577C104.883 11.2233 109.23 14.7755 109.868 15.5745C110.121 15.8903 110.056 19.2534 109.882 19.6862C109.725 19.7448 109.57 19.7638 109.432 19.6552C108.243 18.7228 104.604 16.2378 103.877 15.2097L103.931 14.6763C104.061 13.6058 104.07 12.3041 104.051 11.2283L104.154 10.9577Z" fill="#F0E7D5"/>
<path d="M114.952 26.9756C115.9 27.7162 116.991 28.4046 117.097 29.6945C117.192 30.8564 116.992 32.1826 117.051 33.359C116.287 32.9006 115.278 32.3187 114.574 31.7944C113.439 30.9498 112.71 30.2345 111.449 29.5337C111.879 28.9605 114.182 27.6576 114.952 26.9756Z" fill="#F0E7D5"/>
<path d="M115.358 54.9786C115.987 54.9517 116.637 54.9147 117.266 54.9229C117.574 56.0805 117.268 57.5461 117.993 58.052C118.728 58.564 120.187 57.2584 120.536 58.7051C120.716 59.4538 120.6 60.3639 120.54 61.124C119.823 61.1568 118.29 61.3601 117.751 61.0032C117.328 60.5089 117.505 58.9122 117.516 58.1471C116.395 58.0686 115.543 58.0212 114.425 58.0424C114.424 57.261 114.458 55.9537 114.387 55.2194C114.799 54.9157 114.995 55.2448 115.358 54.9786Z" fill="#F0E7D5"/>
<path d="M119.392 39.6169L120.43 39.5948C120.675 40.8758 120.571 41.3416 120.453 42.6389C119.597 42.683 117.663 42.5902 117.15 43.1003C116.841 44.269 118.492 45.5452 115.552 45.4917L114.391 45.5493C114.355 44.6987 114.387 43.6431 114.392 42.7768C115.146 42.7489 116.435 42.4992 117.151 42.2802C117.634 40.0745 116.738 39.663 119.392 39.6169Z" fill="#F0E7D5"/>
<path d="M176.645 52.0126C176.858 51.9748 178.486 51.982 178.798 51.9801L178.824 54.9762L181.65 54.9394C181.831 55.564 182.083 57.5513 181.686 58.0456L181.459 58.0338C180.581 58.004 179.79 58.0087 178.91 58.0249C178.812 57.221 178.958 55.6774 178.572 55.1698C178.016 54.7629 176.533 54.8548 175.781 54.8394C175.715 53.8991 175.503 53.0564 175.838 52.2098C176.133 51.9731 176.222 52.0396 176.645 52.0126Z" fill="#F0E7D5"/>
<path d="M183.574 39.6161C183.913 39.6061 184.425 39.6361 184.777 39.6462C184.955 40.767 184.99 41.4912 184.922 42.6216C183.896 42.7057 182.849 42.6137 181.774 42.709C181.803 43.7239 181.837 44.4639 181.725 45.4719L180.353 45.5076C179.856 45.5036 179.3 45.5316 178.799 45.5461C178.812 44.8458 178.666 43.263 178.981 42.7543C179.333 42.4361 181.177 42.5509 181.942 42.5025C181.958 42.0918 181.957 41.6139 181.944 41.2061C181.902 39.712 182.233 39.6414 183.574 39.6161Z" fill="#F0E7D5"/>
<path d="M100.493 8.17779C101.135 8.91095 102.083 9.16812 102.784 9.67269C103.139 9.94202 103.93 10.8357 104.154 10.9577L104.051 11.2283L103.816 11.2249C103.472 11.692 103.626 14.2406 103.931 14.6763L103.877 15.2097C103.824 15.1536 100.486 12.5671 100.322 12.4694C100.256 11.1966 100.378 9.46888 100.493 8.17779Z" fill="#F0E7D5"/>
<path d="M84.9122 14.4009C85.7468 14.4575 86.2249 15.0979 86.8974 15.6799C85.3335 16.7375 84.2064 17.7113 82.4833 18.7542C82.0962 19.0301 81.648 19.3157 81.2489 19.583C81.1813 18.9414 81.0435 17.3135 81.4096 16.8705C81.827 16.3656 84.3763 14.5271 84.9122 14.4009Z" fill="#F0E7D5"/>
<path d="M153.834 30.825L156.623 30.7928C156.769 31.8446 156.77 32.9113 156.627 33.9633C155.776 33.8924 154.613 33.9056 153.735 33.8937C153.73 33.1614 153.683 31.4642 153.834 30.825Z" fill="#F0E7D5"/>
<path d="M181.858 58.1303C182.778 58.1474 183.849 58.0945 184.805 58.097C184.925 58.8537 184.995 60.451 184.781 61.1491C184.076 61.1727 182.749 61.3252 182.174 61.014C181.697 60.5395 182.064 59.0964 181.866 58.1637L181.858 58.1303Z" fill="#F0E7D5"/>
<path d="M117.583 15.1217L117.884 14.8725C117.91 14.9607 117.932 15.1103 117.992 15.1334C118.628 15.3742 120.07 15.2008 120.691 15.3962C119.777 15.4812 118.863 15.5487 117.944 15.4848C117.949 16.3494 117.972 17.1659 117.863 18.0256L117.802 18.0439C117.659 17.1502 117.678 16.3815 117.692 15.4805C116.679 15.4839 115.649 15.5028 114.638 15.4377L114.625 15.3778C115.461 15.2298 117.164 15.2168 117.583 15.1217Z" fill="#F0E7D5"/>
<path d="M117.801 6.24139C118.128 6.69841 117.822 11.9813 117.914 13.0564C117.938 13.3226 117.921 14.5833 117.884 14.8725L117.583 15.1217C117.781 12.7856 117.676 9.43499 117.718 6.99036C117.809 6.85835 117.795 6.42974 117.801 6.24139Z" fill="#F0E7D5"/>
<path d="M103.931 14.6763C103.626 14.2406 103.472 11.692 103.816 11.2249L104.051 11.2283C104.07 12.3042 104.061 13.6058 103.931 14.6763Z" fill="#F0E7D5"/>
<path d="M41.6316 45.0879C41.8522 45.0516 42.0149 45.0257 42.2314 44.9643L42.337 44.6192C42.6071 45.2094 42.665 45.1065 43.3048 45.0812C43.0526 45.2264 42.7367 45.2045 42.4343 45.2615C42.5197 46.077 42.674 46.838 42.3651 47.6055C42.38 47.0098 42.4796 45.8294 42.1917 45.3172C42.0802 45.1187 41.8578 45.1287 41.6316 45.0879Z" fill="#F0E7D5"/>
<path d="M114.337 52.5205C114.412 53.0138 114.41 53.38 114.384 53.8777C114.332 54.8461 114.454 54.9885 115.358 54.9786C114.995 55.2448 114.799 54.9157 114.387 55.2194L113.955 54.9833L114.141 54.9502C114.429 54.5727 114.283 53.2129 114.337 52.5205Z" fill="#F0E7D5"/>
<path d="M117.717 6.99036C117.664 6.66248 117.707 6.56514 117.801 6.24139C117.795 6.42974 117.809 6.85835 117.717 6.99036Z" fill="#F0E7D5"/>
</svg>
