<svg width="33" height="21" viewBox="0 0 33 21" fill="none" xmlns="http://www.w3.org/2000/svg">
<path d="M12.405 8.30767L17.1178 8.31072C18.0012 8.31011 18.9113 8.2962 19.7921 8.30867C19.8285 8.38264 19.816 8.48863 19.8264 8.57277L19.8296 8.84099L19.8278 9.66588C19.7029 9.72141 14.6224 9.6925 14.1047 9.69254L12.7039 9.69252C12.6337 9.69211 12.2663 9.69644 12.2291 9.67178C12.2181 9.6239 12.2164 9.25825 12.2153 9.18153L12.2282 8.34159L12.2352 8.30826L12.405 8.30767Z" fill="#F0E7D5"/>
<path d="M16.2345 11.4185C16.3148 11.4212 16.4003 11.4261 16.48 11.4206C16.5477 11.4232 16.6179 11.4273 16.6852 11.4247L16.7226 11.4507C16.7036 11.5683 16.7111 11.68 16.7144 11.7988L16.7053 15.5345C16.7059 16.0194 16.738 16.8318 16.7121 17.2889C16.6252 17.2739 16.349 17.2779 16.2567 17.2859C16.158 17.234 15.5028 17.2914 15.3451 17.2961L15.3267 17.2584C15.3453 17.1506 15.3387 16.8489 15.3386 16.7309L15.3347 15.6686L15.34 11.7796C15.3401 11.6755 15.3318 11.5142 15.362 11.4199C15.598 11.4342 15.9883 11.4245 16.2345 11.4185Z" fill="#F0E7D5"/>
<path d="M21.6234 11.4168L22.4693 11.4194L22.8106 11.4197C22.85 11.4227 22.9156 11.4231 22.9476 11.4407C22.9398 11.5804 22.9423 11.6868 22.947 11.8268L22.9445 13.361C22.9445 13.5499 22.9566 13.9867 22.9382 14.1494C22.7862 14.1748 22.6355 14.1657 22.4814 14.1621C22.448 14.1562 22.3937 14.1557 22.358 14.1541C22.1248 14.1467 21.905 14.1782 21.695 14.1682L21.5978 14.1713L21.5894 14.1573L21.591 11.6365L21.5941 11.4546L21.6234 11.4168Z" fill="#F0E7D5"/>
<path d="M9.12734 11.4172C9.30652 11.4201 10.3093 11.435 10.4237 11.4069C10.4225 11.4948 10.4151 11.679 10.4266 11.759C10.4051 12.5183 10.4168 13.3919 10.4257 14.1536C10.3088 14.1733 10.0791 14.1638 9.95202 14.1622C9.89076 14.1537 9.63663 14.157 9.56949 14.1613C9.47745 14.1716 9.17746 14.1889 9.10536 14.1559C9.09961 13.3784 9.09965 12.6008 9.10544 11.8233C9.10492 11.7143 9.09541 11.5125 9.12734 11.4172Z" fill="#F0E7D5"/>
<path d="M19.8282 9.66589L19.832 9.67416C19.7824 9.7955 19.7795 9.96644 19.8099 10.0947C18.1542 10.1291 16.4257 10.1174 14.7668 10.1089L13.2901 10.1041C13.0828 10.1028 12.5334 10.0932 12.3399 10.1198L12.2939 10.1071C12.1862 9.99336 12.2884 9.80063 12.2295 9.6718C12.2667 9.69645 12.6341 9.69212 12.7043 9.69253L14.1051 9.69255C14.6228 9.69251 19.7033 9.72143 19.8282 9.66589ZM19.2621 10.0614C19.4341 10.0427 19.5513 10.0371 19.7246 10.0352C19.0803 9.96119 18.2005 9.97665 17.5429 9.97741L14.4824 9.99332C14.1635 9.99656 13.8445 9.98983 13.526 9.97314C13.2773 9.96137 13.0841 9.93688 12.8324 9.95233C12.6877 9.98157 12.4579 10.0301 12.3117 10.0285C12.9697 10.1118 13.9921 10.0612 14.6951 10.0634C16.2174 10.073 17.7398 10.0723 19.2621 10.0614Z" fill="#F0E7D5"/>
<path d="M12.8322 9.95232C13.0839 9.93687 13.2771 9.96136 13.5259 9.97313C13.8443 9.98983 14.1633 9.99655 14.4822 9.99331L17.5427 9.9774C18.2004 9.97664 19.0801 9.96118 19.7244 10.0352C19.5511 10.0371 19.4339 10.0427 19.2619 10.0614C17.7396 10.0722 16.2173 10.0729 14.6949 10.0634C13.9919 10.0612 12.9696 10.1118 12.3115 10.0285C12.4577 10.0301 12.6875 9.98156 12.8322 9.95232Z" fill="#F0E7D5"/>
<path d="M12.2035 7.43307C12.2326 7.57675 12.2305 7.7612 12.2338 7.91115C13.3678 7.83337 14.7692 7.87551 15.9295 7.87366L17.9391 7.86846C18.4084 7.86727 18.8887 7.85816 19.3565 7.88603L19.3527 7.89922C19.2992 8.09045 19.3846 8.0828 19.3489 8.17644L19.2977 8.16155C19.306 8.20236 19.3018 8.18854 19.3331 8.22265C19.2982 8.25948 19.2239 8.25659 19.167 8.25782C17.5412 8.28335 15.9153 8.29258 14.2893 8.2855C13.985 8.28005 13.6807 8.2774 13.3764 8.27757C13.179 8.27937 12.9191 8.29522 12.7317 8.28294C12.8066 8.27798 12.8215 8.27289 12.8913 8.25029C12.867 8.22849 12.809 8.23046 12.6825 8.11475C12.6322 8.11439 12.5966 8.10708 12.5585 8.13627L12.6474 8.15971L12.65 8.18897L12.6271 8.20052C12.5039 8.16459 12.4569 8.19488 12.3406 8.24484L12.3492 8.27047L12.3981 8.28456L12.4054 8.30769L12.2356 8.30829C12.2063 8.20427 12.2 7.56906 12.2035 7.43307Z" fill="#F0E7D5"/>
<path d="M20.2638 6.96731C21.1416 6.94797 22.0441 6.98181 22.9298 6.96606L22.9448 6.99764C22.9399 7.27454 22.9567 7.60756 22.9446 7.86975C22.7953 7.89281 22.6165 7.88725 22.4629 7.8868C22.3784 7.86186 21.7287 7.88493 21.6102 7.88692C21.1608 7.88327 20.7113 7.88272 20.2618 7.88524C20.2563 7.63537 20.2383 7.20383 20.2638 6.96731Z" fill="#F0E7D5"/>
<path d="M9.12606 6.96616C9.97509 6.9814 10.9465 6.93815 11.7704 6.96959C11.7849 7.26718 11.7795 7.58101 11.7785 7.88032C11.6183 7.88416 11.458 7.88543 11.2978 7.88411C10.9274 7.8417 9.2755 7.94418 9.10168 7.87409C9.10094 7.57307 9.09739 7.26876 9.1089 6.96828L9.12606 6.96616Z" fill="#F0E7D5"/>
<path d="M16.7142 11.7988C16.7291 11.8591 16.7372 11.8984 16.7638 11.9559C16.7881 11.9611 17.0485 11.8973 17.0792 11.8755C17.118 11.9108 17.1223 11.9454 17.1224 12.0036C17.1235 12.4622 17.1211 12.9277 17.1199 13.3857L17.1226 15.9455C17.1227 16.1408 17.1075 17.1104 17.1287 17.2492C17.0981 17.2776 16.8049 17.3072 16.7676 17.308L16.7452 17.2833C16.718 17.3994 16.7323 17.4869 16.7155 17.5826C16.7067 17.4782 16.7095 17.3928 16.7119 17.2889C16.7378 16.8317 16.7057 16.0193 16.7051 15.5344L16.7142 11.7988Z" fill="#F0E7D5"/>
<path d="M14.9437 12.2083C14.9697 11.733 15.0986 11.9678 15.3129 11.8782L15.3397 11.7796L15.3344 15.6686L15.3384 16.7309C15.3384 16.8489 15.345 17.1506 15.3264 17.2584C15.3175 17.2219 15.3057 17.121 15.2982 17.0763C15.2503 17.0919 15.2687 17.1669 15.1963 17.2374C15.0907 17.231 15.1274 17.234 15.0433 17.1905L15.0019 17.2228L14.9703 17.2025C14.9348 16.1944 14.9313 15.1967 14.9401 14.1876C14.9458 13.5297 14.9268 12.8655 14.9437 12.2083Z" fill="#F0E7D5"/>
<path d="M4.63148 8.30861C4.9239 8.29584 5.23983 8.30355 5.53454 8.30607L5.55854 8.33302C5.53895 8.48752 5.55385 8.61801 5.55201 8.77047C5.54916 8.9719 5.53458 9.47413 5.55354 9.6569L5.53874 9.691C5.22876 9.69293 4.92886 9.69488 4.61914 9.68432C4.64614 9.39797 4.62234 8.64828 4.63148 8.30861Z" fill="#F0E7D5"/>
<path d="M8.63927 14.5403L8.65212 14.5407C8.65928 14.8706 8.66307 15.2005 8.66348 15.5305C8.66346 15.6128 8.66871 15.8523 8.66042 15.9142C8.41212 15.9296 7.99439 15.9099 7.78953 15.938L7.72754 15.9165L7.7547 14.5443C8.03125 14.5382 8.38162 14.5542 8.63927 14.5403Z" fill="#F0E7D5"/>
<path d="M23.3753 14.5452C23.6791 14.5315 23.9643 14.5461 24.2597 14.5365L24.2826 14.5492C24.2863 14.9764 24.3039 15.4988 24.2851 15.9183C24.0118 15.9364 23.6804 15.924 23.3977 15.9293L23.3745 15.9094C23.3798 15.4578 23.3739 14.9979 23.3753 14.5452Z" fill="#F0E7D5"/>
<path d="M5.92836 3.86991C5.98603 3.83865 6.32857 3.84932 6.41747 3.84962L6.87 3.85354L7.30528 3.85174C7.29919 4.15757 7.29847 4.46346 7.30313 4.76932C7.0356 4.767 6.76806 4.767 6.50051 4.76934C6.36965 4.76097 6.01279 4.79382 5.92601 4.75451C5.92258 4.46318 5.92748 4.16208 5.92836 3.86991Z" fill="#F0E7D5"/>
<path d="M26.5176 8.30742L27.3935 8.30533L27.4119 8.32071C27.3785 8.64953 27.4037 9.32001 27.4013 9.68169C27.1428 9.69 26.7666 9.67712 26.5291 9.70025L26.4917 9.6749C26.4891 9.37608 26.4891 9.07726 26.4917 8.77846L26.4942 8.32705L26.5006 8.30703L26.5176 8.30742Z" fill="#F0E7D5"/>
<path d="M7.76867 5.19192C8.02725 5.19091 8.39323 5.20199 8.64451 5.18878L8.6712 5.21417C8.63578 5.50313 8.66679 6.18544 8.65753 6.52279L8.54685 6.5385C8.28555 6.53986 7.99814 6.55298 7.74032 6.53953C7.73585 6.36521 7.73095 5.29452 7.76867 5.19192Z" fill="#F0E7D5"/>
<path d="M23.5275 5.17987C23.7514 5.20899 24.0334 5.17602 24.2688 5.19931L24.2958 5.20124C24.2573 5.59917 24.2971 6.14195 24.2915 6.55004C24.0898 6.53056 23.6872 6.54157 23.4755 6.54243L23.3791 6.5276L23.3732 5.66152C23.3748 5.51033 23.3746 5.35913 23.3726 5.20797C23.4216 5.18707 23.474 5.18557 23.5275 5.17987Z" fill="#F0E7D5"/>
<path d="M25.6306 3.85466L26.058 3.85052C26.0627 4.15057 26.0638 4.45064 26.0613 4.75071C25.9783 4.76876 25.7299 4.7663 25.6384 4.76388C25.37 4.7578 24.9801 4.74934 24.7172 4.77397L24.709 4.64397C24.7119 4.49846 24.707 4.33666 24.7057 4.18976C24.71 4.07098 24.7109 3.99128 24.7041 3.87148C24.7297 3.86606 24.7941 3.8507 24.8169 3.85001L25.1889 3.85374C25.3341 3.8546 25.4861 3.85774 25.6306 3.85466Z" fill="#F0E7D5"/>
<path d="M1.51761 11.4261C1.80511 11.4087 2.07887 11.4312 2.36065 11.4257C2.40616 11.5107 2.37184 12.5615 2.39695 12.7745L2.37818 12.8114C2.1079 12.7879 1.76176 12.8322 1.47266 12.8031C1.50313 12.6789 1.50838 11.643 1.51761 11.4261Z" fill="#F0E7D5"/>
<path d="M30.324 11.418L30.4964 11.4268C30.5341 11.4844 30.5241 11.5468 30.5222 11.6169C30.5236 11.9917 30.5357 12.431 30.5195 12.7996C30.259 12.8232 29.906 12.7892 29.6787 12.8141L29.6442 12.7929C29.6219 12.6643 29.6483 11.5179 29.6692 11.4259C29.8517 11.4241 30.1499 11.4301 30.324 11.418Z" fill="#F0E7D5"/>
<path d="M27.8361 10.1224C28.2821 10.1369 28.76 10.1242 29.2099 10.127C29.2023 10.4093 29.2157 10.7367 29.2017 11.0053L28.73 11.0048C28.6154 10.9927 28.3798 10.9983 28.2563 10.9978C28.1093 10.9964 27.9842 10.9997 27.8375 11.0073L27.8164 10.9417L27.8219 10.9094C27.823 10.6861 27.8254 10.4628 27.8291 10.2395L27.8361 10.1224Z" fill="#F0E7D5"/>
<path d="M2.82699 10.1148C2.98389 10.1309 3.25576 10.1242 3.41901 10.1205C3.67279 10.1273 3.92664 10.132 4.1805 10.1345L4.17997 10.2303C4.18108 10.4545 4.17439 10.7977 4.19441 11.0113C4.09201 10.9909 3.95122 10.9965 3.84403 10.9966L3.33751 11.001L2.82198 11.0128C2.79987 10.8834 2.82137 10.3304 2.81152 10.1392L2.81546 10.1111L2.82699 10.1148Z" fill="#F0E7D5"/>
<path d="M20.2813 6.52769C21.0915 6.53769 21.9018 6.53435 22.7118 6.51766C22.816 6.5201 22.8347 6.50367 22.9122 6.55431C22.9714 6.66189 22.93 6.82035 22.9298 6.96606C22.0441 6.98181 21.1415 6.94797 20.2638 6.96731L20.2577 6.958C20.2498 6.89625 20.2504 6.57918 20.2813 6.52769Z" fill="#F0E7D5"/>
<path d="M2.81138 10.1392C2.82122 10.3304 2.79974 10.8834 2.82184 11.0128C2.82528 11.1522 2.82954 11.2915 2.83459 11.4308C2.96578 11.4344 3.15972 11.434 3.28564 11.4468C3.14191 11.4656 2.91115 11.4341 2.83793 11.5164C2.83561 11.5367 2.82915 11.5831 2.82909 11.6011C2.79947 11.8366 2.80638 12.531 2.81394 12.7801C2.72609 12.7883 2.47788 12.7943 2.39763 12.7745C2.37252 12.5615 2.40684 11.5107 2.36133 11.4257C2.40081 11.2975 2.40608 10.8636 2.40001 10.7229C2.40645 10.5404 2.4029 10.3398 2.40343 10.1558C2.46272 10.1194 2.70138 10.1681 2.81138 10.1392Z" fill="#F0E7D5"/>
<path d="M10.4467 6.52902L11.7707 6.52359L11.7747 6.95735L11.7703 6.96959C10.9464 6.93816 9.975 6.98141 9.12598 6.96617C9.14091 6.86796 9.12911 6.6427 9.14456 6.60999C9.19888 6.56805 9.29045 6.5659 9.36579 6.54158C9.46015 6.53245 9.83485 6.52322 9.9193 6.53996C10.0816 6.65974 10.6235 6.58417 10.8255 6.55398C10.7046 6.55345 10.5625 6.56137 10.4467 6.52902Z" fill="#F0E7D5"/>
<path d="M22.9466 11.8268C22.9894 11.9261 22.9698 11.9258 23.0895 11.9233C23.1829 11.9214 23.2399 11.8788 23.3275 11.9099C23.4033 12.0682 23.325 13.7838 23.3572 14.1133C23.359 14.1936 23.3566 14.4901 23.3748 14.5453C23.2834 14.5276 23.031 14.5927 22.9341 14.5419C22.9343 14.411 22.9355 14.2802 22.9378 14.1494C22.9562 13.9867 22.9441 13.5499 22.9441 13.361L22.9466 11.8268Z" fill="#F0E7D5"/>
<path d="M8.71144 11.9062C8.80059 11.9082 8.91362 11.8997 9.00324 11.8936C9.02589 11.9152 9.04891 11.9365 9.07224 11.9574L9.09306 11.9367C9.08132 11.8888 9.09021 11.8696 9.10536 11.8233C9.09958 12.6008 9.09954 13.3784 9.10528 14.1559L9.10991 14.5535C9.29307 14.5646 9.44275 14.5654 9.62659 14.5631C9.44663 14.597 9.21374 14.5466 9.1192 14.6262L9.08368 14.7251C9.0722 14.665 9.08171 14.6148 9.08814 14.5537L9.07144 14.5425C8.97114 14.5391 8.71269 14.5074 8.6525 14.5407L8.63965 14.5402C8.69391 14.4229 8.72841 12.1807 8.71144 11.9062Z" fill="#F0E7D5"/>
<path d="M10.4267 11.759C10.4376 11.8196 10.4574 11.9914 10.4756 12.031L10.5112 11.9354L10.5091 11.946C10.6281 11.7733 10.8493 11.9024 10.8466 12.0441C10.8406 12.3573 10.9309 13.9347 10.8 14.1168C10.7087 14.1907 10.5648 14.1734 10.4636 14.1284L10.4258 14.1536C10.417 13.3919 10.4053 12.5183 10.4267 11.759Z" fill="#F0E7D5"/>
<path d="M9.10156 7.87409C9.27539 7.94418 10.9273 7.84171 11.2977 7.88412C11.3487 8.03417 11.2796 8.17147 11.3192 8.30129C11.0939 8.30104 9.29333 8.28338 9.23404 8.3222L9.11729 8.32653C9.10618 8.27165 9.10318 7.95161 9.10156 7.87409Z" fill="#F0E7D5"/>
<path d="M21.5392 12.0833C21.5716 11.9274 21.5523 11.7912 21.5904 11.6365L21.5888 14.1573L21.5618 14.1221C21.5669 14.0453 21.5507 13.9057 21.5437 13.8242L21.539 13.8984L21.505 14.0348C21.4529 14.1043 21.3086 14.1385 21.2264 14.1617L21.2063 14.1338L21.26 14.0964C21.2703 13.9991 21.2526 13.8739 21.2625 13.7736C21.3248 13.1391 21.2756 12.5805 21.2383 11.9508C21.225 11.9695 21.1958 12.0985 21.1852 12.1337L21.1846 11.9705C21.2616 11.8456 21.3418 11.8582 21.4599 11.9239C21.5205 11.9576 21.5218 12.021 21.5392 12.0833Z" fill="#F0E7D5"/>
<path d="M11.775 6.95734C11.9082 6.97018 12.0771 6.98257 12.207 6.94617C12.2049 7.09708 12.1974 7.2851 12.2036 7.43304C12.2 7.56903 12.2063 8.20424 12.2356 8.30825L12.2286 8.34158C12.1773 8.34732 11.8177 8.32509 11.7299 8.3238C10.9999 8.35434 9.98332 8.32325 9.23438 8.3222C9.29366 8.28338 11.0943 8.30104 11.3195 8.30128C11.4737 8.30389 11.6132 8.30044 11.7675 8.29488L11.7787 7.88032C11.7797 7.58101 11.7852 7.26718 11.7706 6.96959L11.775 6.95734Z" fill="#F0E7D5"/>
<path d="M29.2097 10.127C29.2421 10.2475 29.2257 10.7608 29.2263 10.9153C29.2353 11.0979 29.2175 11.2562 29.2218 11.4351C29.3922 11.4632 29.4541 11.451 29.6267 11.4198L29.6529 11.4195L29.6691 11.4259C29.6482 11.5179 29.6217 12.6643 29.6441 12.793C29.5746 12.7769 29.3952 12.793 29.3182 12.7987L29.2194 12.8245C29.2261 12.6185 29.2249 11.6495 29.1919 11.4948C29.1285 11.4463 29.106 11.4588 29.0142 11.4474C29.2017 11.4362 29.2185 11.4248 29.2015 11.2261C29.196 11.1603 29.1997 11.0727 29.2015 11.0053C29.2155 10.7367 29.2021 10.4093 29.2097 10.127Z" fill="#F0E7D5"/>
<path d="M8.67176 5.21415C8.78649 5.21263 8.9752 5.2209 9.07776 5.21493C9.07485 5.46116 9.06616 6.30506 9.13011 6.49466C9.19436 6.54748 9.27844 6.5392 9.36564 6.54158C9.29033 6.5659 9.1988 6.56805 9.1445 6.60999C9.12907 6.6427 9.14085 6.86796 9.12593 6.96617L9.10877 6.96828C9.06378 6.90061 9.07934 6.67859 9.07384 6.56811C8.9242 6.57677 8.7812 6.60374 8.65808 6.52277C8.66735 6.18542 8.63633 5.5031 8.67176 5.21415Z" fill="#F0E7D5"/>
<path d="M27.4125 8.32072L27.5457 8.31793C27.6609 8.32308 27.7452 8.32716 27.861 8.31972C27.8118 8.6609 27.8686 9.30789 27.8598 9.67885C27.7317 9.67496 27.5855 9.66558 27.4594 9.68029L27.4018 9.6817C27.4043 9.32003 27.3791 8.64954 27.4125 8.32072Z" fill="#F0E7D5"/>
<path d="M27.86 9.67885C27.982 9.72025 28.9928 9.69269 29.1791 9.68326L29.2117 9.70098L29.2061 9.77564C29.1909 9.88028 29.1817 10.0239 29.21 10.127C28.7601 10.1242 28.2822 10.1369 27.8362 10.1224C27.8321 10.0218 27.8452 9.8198 27.8087 9.75421C27.732 9.68357 27.5696 9.68861 27.4595 9.68028C27.5856 9.66558 27.7318 9.67495 27.86 9.67885Z" fill="#F0E7D5"/>
<path d="M22.9344 14.5419C23.0313 14.5927 23.2837 14.5276 23.3751 14.5453C23.3736 14.9979 23.3796 15.4578 23.3743 15.9094C23.2191 15.9251 23.0928 15.9 22.9196 15.9256C22.9378 15.7454 22.9649 14.6995 22.9141 14.5849L22.9344 14.5419Z" fill="#F0E7D5"/>
<path d="M20.2617 7.88525C20.7112 7.88272 21.1607 7.88328 21.6101 7.88693L21.608 8.32104L20.4964 8.32846C20.4219 8.3185 20.3465 8.32266 20.2713 8.32442C20.2618 8.19022 20.2637 8.02222 20.2617 7.88525Z" fill="#F0E7D5"/>
<path d="M24.2958 5.20126L24.4549 5.20557C24.5441 5.2118 24.6785 5.20399 24.7361 5.25192C24.7365 5.40445 24.747 6.47369 24.713 6.53485L24.6896 6.54426C24.5947 6.53054 24.3842 6.52771 24.2915 6.55006C24.2971 6.14198 24.2573 5.5992 24.2958 5.20126Z" fill="#F0E7D5"/>
<path d="M8.65234 14.5407C8.71253 14.5074 8.97098 14.5391 9.07128 14.5425L9.08799 14.5538C9.08155 14.6148 9.07204 14.665 9.08352 14.7251C9.08413 15.1152 9.07567 15.5339 9.09295 15.9204C8.96516 15.9191 8.795 15.922 8.67094 15.9131L8.66065 15.9142C8.66893 15.8523 8.66368 15.6128 8.6637 15.5304C8.66329 15.2005 8.6595 14.8706 8.65234 14.5407Z" fill="#F0E7D5"/>
<path d="M1.08528 11.4235C1.22932 11.4302 1.37356 11.4311 1.51767 11.4261C1.50843 11.643 1.50319 12.6789 1.47271 12.8031L1.32081 12.802L1.07925 12.8024C1.05162 12.6826 1.08266 11.621 1.08528 11.4235Z" fill="#F0E7D5"/>
<path d="M7.75434 14.5443L7.72718 15.9165L7.71248 15.9214C7.56042 15.9191 7.46742 15.9111 7.31946 15.9476C7.30232 15.8626 7.30384 14.6565 7.33571 14.5681L7.4297 14.5544C7.52273 14.5685 7.65868 14.5532 7.75434 14.5443Z" fill="#F0E7D5"/>
<path d="M4.22018 8.30121L4.28483 8.31058C4.36531 8.31673 4.56251 8.33388 4.6311 8.30863C4.62196 8.6483 4.64575 9.39799 4.61876 9.68434C4.48992 9.68044 4.38931 9.68374 4.26066 9.69018L4.23354 9.68395C4.17902 9.62718 4.20386 8.86636 4.19847 8.71282C4.19513 8.61116 4.18601 8.38615 4.22018 8.30121Z" fill="#F0E7D5"/>
<path d="M14.9189 11.4358C15.0264 11.4348 15.2036 11.4352 15.303 11.4617C15.2295 11.4689 15.0173 11.4704 14.977 11.4891C14.8938 11.6475 14.9164 12.2817 14.9192 12.4905C14.922 12.443 14.9292 12.2333 14.9435 12.2083C14.9266 12.8655 14.9457 13.5297 14.9399 14.1876C14.9312 15.1967 14.9346 16.1944 14.9701 17.2024L15.0018 17.2228L15.0431 17.1905C15.1272 17.234 15.0905 17.231 15.1961 17.2374C15.2685 17.1669 15.2501 17.0918 15.298 17.0763C15.3055 17.1209 15.3173 17.2219 15.3262 17.2584L15.3447 17.2961C15.3443 17.4176 15.3467 17.5921 15.3365 17.7114L14.9115 17.7113C14.9162 17.6004 14.8994 17.4087 14.8966 17.2847L14.8758 16.2009C14.87 15.1086 14.871 14.0162 14.8788 12.9239C14.8828 12.5247 14.8594 11.7907 14.9189 11.4358Z" fill="#F0E7D5"/>
<path d="M7.74929 5.18723L7.7687 5.1919C7.73098 5.2945 7.73588 6.36519 7.74035 6.53951L7.71985 6.54214C7.60045 6.53668 7.44398 6.52073 7.33113 6.54862C7.3075 6.45114 7.31633 6.26551 7.3176 6.15669C7.33962 5.90629 7.32683 5.47682 7.32658 5.213C7.46233 5.21138 7.59571 5.21214 7.73082 5.1985L7.74929 5.18723Z" fill="#F0E7D5"/>
<path d="M2.40005 10.7229C2.40612 10.8635 2.40085 11.2974 2.36135 11.4257C2.07945 11.4312 1.80556 11.4087 1.51794 11.4261C1.37378 11.4311 1.22947 11.4302 1.08537 11.4235C1.11517 11.3595 1.06924 11.1254 1.07903 10.9816C1.19686 10.9983 2.25973 11.0346 2.3342 11.0136C2.38625 10.9456 2.38867 10.814 2.40005 10.7229Z" fill="#F0E7D5"/>
<path d="M9.14766 10.993C9.45993 11.0187 10.0944 10.9603 10.3729 11.0233C10.4183 11.0968 10.398 11.213 10.3781 11.2998C10.3726 11.3235 10.3666 11.3472 10.3602 11.3707L10.4237 11.4069C10.3093 11.435 9.30655 11.4201 9.12737 11.4172C9.10664 11.2855 9.12944 11.1264 9.14766 10.993ZM9.2253 11.3692C9.23855 11.2855 9.24771 11.1691 9.17475 11.1071C9.1559 11.1831 9.12407 11.2684 9.15354 11.3379C9.1875 11.3607 9.18574 11.3611 9.2253 11.3692Z" fill="#F0E7D5"/>
<path d="M9.17478 11.1071C9.24771 11.1691 9.23855 11.2855 9.22531 11.3692C9.18576 11.3611 9.18753 11.3607 9.15358 11.3379C9.12412 11.2684 9.15594 11.1831 9.17478 11.1071Z" fill="#F0E7D5"/>
<path d="M4.61896 9.68432C4.92882 9.69488 5.22885 9.69293 5.53897 9.69101C5.53536 9.80327 5.52801 9.8653 5.51171 9.97527C5.39178 9.97656 5.20811 9.94469 5.11895 9.99795L5.10824 10.0283C5.18972 10.066 5.36801 10.0299 5.46038 10.0871C5.27509 10.0886 4.35029 10.0953 4.20653 10.1804L4.17969 10.2303L4.18022 10.1345C4.18584 9.99858 4.18972 9.86257 4.19185 9.72655C4.21691 9.69913 4.22544 9.69958 4.26071 9.69017C4.38942 9.68373 4.49007 9.68042 4.61896 9.68432Z" fill="#F0E7D5"/>
<path d="M11.73 8.32382C11.8177 8.32511 12.1772 8.34734 12.2284 8.3416L12.2156 9.18154C12.1822 9.14026 12.1671 8.90977 12.1591 8.84328C12.1531 8.98889 12.1653 9.47433 12.0904 9.56059C11.9365 9.60179 11.9228 9.53138 11.8307 9.67121C11.7407 9.58124 11.8214 8.91574 11.7739 8.7625C11.7812 8.62748 11.8139 8.42173 11.73 8.32382Z" fill="#F0E7D5"/>
<path d="M8.54736 6.53848L8.65804 6.52277C8.78115 6.60373 8.92415 6.57676 9.0738 6.56811C9.07929 6.67858 9.06373 6.9006 9.10873 6.96828C9.09723 7.26876 9.10077 7.57307 9.10151 7.87409C9.06225 7.85319 8.79019 7.91847 8.70035 7.85811C8.76018 7.83705 8.74063 7.85167 8.77828 7.80547C8.79323 7.67106 8.77201 7.43132 8.7377 7.3018L8.7141 7.3053C8.67673 7.13845 8.69475 6.82626 8.62708 6.638C8.5965 6.55287 8.6271 6.58929 8.54736 6.53848Z" fill="#F0E7D5"/>
<path d="M27.4019 9.68168L27.4595 9.68027C27.5697 9.68859 27.7321 9.68355 27.8088 9.7542C27.8453 9.81978 27.8322 10.0218 27.8363 10.1224L27.8293 10.2395L27.8034 10.162C27.7249 10.1142 27.6396 10.1281 27.5492 10.1372L27.4612 10.1254C27.5024 10.0748 27.5297 10.0953 27.5596 10.0353C27.5512 10.0291 27.5124 10.0038 27.5102 10.0016C27.4337 9.92909 27.2932 10.0335 27.1956 10.0276C27.0041 10.016 26.7813 9.93268 26.5871 9.99C26.54 10.004 26.5379 10.0407 26.5147 10.0953C26.5059 9.9902 26.4994 9.79925 26.5293 9.70024C26.767 9.67711 27.1433 9.68999 27.4019 9.68168Z" fill="#F0E7D5"/>
<path d="M23.4751 6.54245C23.687 6.54159 24.0897 6.53058 24.2915 6.55006C24.2483 6.56257 24.221 6.57584 24.1781 6.56386L24.1281 6.56612C23.9829 6.56714 23.5957 6.53472 23.5028 6.60892C23.4655 6.74133 23.5627 6.7721 23.5389 6.89643C23.4398 6.9281 23.3992 6.92621 23.357 7.02508L23.3773 7.09032C23.3533 7.24398 23.3635 7.69454 23.3638 7.87359C23.2329 7.8859 23.0699 7.90866 22.9446 7.86976C22.9567 7.60756 22.9399 7.27454 22.9448 6.99764C23.147 7.01899 23.1927 7.04391 23.3711 6.9474C23.3722 6.79137 23.3385 6.63443 23.4751 6.54245Z" fill="#F0E7D5"/>
<path d="M19.8164 7.00726C19.84 7.18185 19.8384 7.68943 19.8191 7.87181C19.8014 7.99404 19.8191 8.23931 19.7923 8.30869C18.9115 8.29622 18.0014 8.31012 17.118 8.31074L12.4052 8.30768L12.3979 8.28455C12.4951 8.28517 12.6383 8.29042 12.7315 8.28293C12.9189 8.29521 13.1788 8.27936 13.3762 8.27756C13.6805 8.27739 13.9848 8.28004 14.2891 8.28549C15.9151 8.29257 17.541 8.28334 19.1668 8.25781C19.2237 8.25658 19.298 8.25947 19.3329 8.22264C19.3016 8.18853 19.3058 8.20236 19.2975 8.16154L19.3487 8.17643C19.3844 8.08279 19.299 8.09044 19.3525 7.89921L19.3563 7.88602C19.5103 7.90885 19.6491 7.89234 19.8018 7.87503C19.8183 7.58884 19.8008 7.29784 19.8164 7.00726Z" fill="#F0E7D5"/>
<path d="M7.30295 4.76931L7.30187 5.17914C7.43314 5.18825 7.61485 5.18667 7.73081 5.1985C7.59564 5.21214 7.46219 5.21138 7.32639 5.213C7.32664 5.47681 7.33944 5.90629 7.31741 6.15669C7.29479 5.964 7.30724 5.44226 7.30478 5.217C7.0035 5.21109 6.7022 5.20697 6.40087 5.20463C6.40647 5.09426 6.35849 4.90815 6.40939 4.80108C6.42036 4.77799 6.46714 4.77618 6.50034 4.76933C6.76788 4.767 7.03543 4.767 7.30295 4.76931Z" fill="#F0E7D5"/>
<path d="M26.0551 3.40262C26.1728 3.46757 26.3456 3.33513 26.4659 3.44651C26.5639 3.70601 26.5112 4.85203 26.4759 5.17129C26.2822 5.22894 26.124 5.16465 26.0278 5.20864C26.0608 5.12698 26.051 4.87061 26.0615 4.7507C26.1937 4.79463 26.3431 4.77164 26.4811 4.75954C26.4909 4.47969 26.4807 4.1554 26.4776 3.87221C26.3394 3.86751 26.1967 3.85802 26.0582 3.85051C26.0444 3.79184 26.0535 3.47333 26.0551 3.40262Z" fill="#F0E7D5"/>
<path d="M24.7174 4.77395C24.9803 4.74932 25.3701 4.75779 25.6386 4.76386C25.6431 4.91248 25.6359 5.06459 25.6404 5.20517C25.5004 5.20447 24.7976 5.1783 24.7364 5.25191C24.6788 5.20398 24.5443 5.21179 24.4551 5.20556C24.5244 5.19504 24.6542 5.19051 24.7284 5.18554C24.7262 5.0491 24.7213 4.91055 24.7174 4.77395Z" fill="#F0E7D5"/>
<path d="M24.2827 14.5492L24.3049 14.5578L24.3063 15.0057C24.4697 14.9945 24.5791 15.0376 24.6527 14.9527C24.6615 14.9425 24.6701 14.9321 24.6786 14.9216C24.7142 14.9651 24.6956 14.9746 24.7195 15.0149C24.7491 15.1631 24.7245 15.7212 24.7327 15.9083C24.5937 15.9288 24.441 15.911 24.2997 15.9182L24.2852 15.9183C24.304 15.4988 24.2864 14.9764 24.2827 14.5492Z" fill="#F0E7D5"/>
<path d="M4.19808 8.7128C4.20347 8.86634 4.17863 9.62716 4.23315 9.68393L4.26027 9.69016C4.22501 9.69957 4.21649 9.69912 4.19144 9.72654C4.18931 9.86257 4.18543 9.99858 4.17981 10.1345C3.92606 10.132 3.67232 10.1273 3.41865 10.1205C3.36882 10.0967 3.31216 10.13 3.26025 10.0892C3.27674 9.98941 3.28791 9.81317 3.28161 9.71288L3.28051 9.69662C3.46699 9.69484 3.64672 9.69377 3.83322 9.68216C3.94488 9.69082 4.06545 9.67273 4.17758 9.66055C4.1857 9.58091 4.18387 9.52033 4.18236 9.44027C4.19966 9.21124 4.18264 8.95596 4.19808 8.7128Z" fill="#F0E7D5"/>
<path d="M30.5227 11.6169C30.5338 11.7257 30.5229 11.7833 30.5825 11.8633C30.652 11.899 30.7992 11.8468 30.9696 11.9129C30.9698 12.0643 30.9669 12.228 30.971 12.3783C30.9704 12.5081 30.9657 12.6693 30.9741 12.7959C30.8234 12.8058 30.6789 12.7941 30.5338 12.8006L30.52 12.7996C30.5362 12.431 30.5241 11.9917 30.5227 11.6169Z" fill="#F0E7D5"/>
<path d="M5.4606 10.0871L5.49951 10.0907L5.50703 10.1143C5.32515 10.1279 4.7708 10.1084 4.67813 10.1885C4.59005 10.3865 4.69663 10.8363 4.58837 10.9568C4.4912 10.9879 4.38716 10.9994 4.28887 10.9666C4.2804 10.884 4.3125 10.8386 4.27749 10.7758L4.24474 10.7613C4.19154 10.8386 4.22878 10.9117 4.19435 11.0113C4.17433 10.7977 4.18102 10.4545 4.17991 10.2303L4.20676 10.1804C4.35052 10.0953 5.27532 10.0886 5.4606 10.0871Z" fill="#F0E7D5"/>
<path d="M26.0558 8.74359C26.1517 8.77115 26.181 8.77989 26.2798 8.78442C26.3713 8.76576 26.4184 8.79909 26.4918 8.77847C26.4891 9.07727 26.4891 9.37609 26.4918 9.67491C26.3879 9.68117 26.1564 9.693 26.0603 9.6694L26.041 9.62301C26.073 9.41053 26.0584 8.9757 26.0558 8.74359Z" fill="#F0E7D5"/>
<path d="M19.8705 6.95798C19.9511 6.96423 20.1857 6.98183 20.2576 6.958L20.2638 6.96731C20.2382 7.20383 20.2563 7.63537 20.2618 7.88524C20.1133 7.88046 19.968 7.87326 19.8192 7.87181C19.8385 7.68943 19.84 7.18184 19.8164 7.00726L19.8259 6.96364L19.8705 6.95798Z" fill="#F0E7D5"/>
<path d="M7.79365 4.76016C7.92004 4.76041 8.59423 4.74513 8.65157 4.79691C8.68933 4.91973 8.66026 5.05793 8.64486 5.18877C8.39359 5.20198 8.0276 5.19091 7.76903 5.19191L7.74962 5.18723C7.72897 5.11773 7.76374 4.85614 7.772 4.76209L7.79365 4.76016Z" fill="#F0E7D5"/>
<path d="M23.3978 13.6138C23.4126 13.7388 23.3884 14.0498 23.4376 14.1091C23.5438 14.2374 24.2979 14.0035 24.2916 14.2127C24.2899 14.2627 24.301 14.4329 24.252 14.4951L24.2594 14.5365C23.964 14.5461 23.6788 14.5315 23.3751 14.5453C23.3568 14.4901 23.3593 14.1936 23.3574 14.1133C23.381 14.0088 23.3867 13.744 23.3978 13.6138Z" fill="#F0E7D5"/>
<path d="M26.0581 3.85049C26.1967 3.858 26.3393 3.8675 26.4775 3.87219C26.4806 4.15538 26.4908 4.47967 26.481 4.75952C26.343 4.77162 26.1936 4.79461 26.0614 4.75069C26.0638 4.45061 26.0628 4.15054 26.0581 3.85049Z" fill="#F0E7D5"/>
<path d="M21.6104 7.8869C21.7289 7.88491 22.3783 7.86184 22.4628 7.88678C22.4907 7.99693 22.4755 8.19987 22.4778 8.32218C22.1879 8.31709 21.8983 8.31673 21.6084 8.32101L21.6104 7.8869Z" fill="#F0E7D5"/>
<path d="M1.473 12.8031C1.76223 12.8322 2.10852 12.7879 2.37892 12.8114C2.37457 12.8878 2.375 13.1635 2.3437 13.2064C2.15915 13.2024 1.369 13.2361 1.26562 13.1452C1.35271 13.0834 1.51027 12.9681 1.53253 12.8604L1.50954 12.8319C1.43414 12.8258 1.39492 12.818 1.32104 12.802L1.473 12.8031ZM2.34789 13.1711C2.27632 13.1133 1.88969 13.0578 1.771 13.0299L1.85343 13.0255C1.73095 12.9813 1.70254 12.9946 1.57508 13.0066C1.55449 13.0566 1.54673 13.0823 1.51024 13.124L1.51804 13.1607C1.63888 13.2188 2.18563 13.1807 2.34789 13.1711Z" fill="#F0E7D5"/>
<path d="M1.57458 13.0066C1.70198 12.9946 1.73038 12.9813 1.8528 13.0255L1.77041 13.0299C1.88905 13.0578 2.27551 13.1133 2.34705 13.171C2.18486 13.1806 1.63835 13.2188 1.51756 13.1607L1.50977 13.124C1.54624 13.0823 1.55399 13.0565 1.57458 13.0066Z" fill="#F0E7D5"/>
<path d="M22.9438 5.63753C23.0252 5.61554 23.304 5.67598 23.3727 5.66154L23.3786 6.52763C23.2321 6.52187 23.106 6.52201 22.9594 6.52517C22.9566 6.29234 22.9578 6.04816 22.9447 5.8165L22.9438 5.63753Z" fill="#F0E7D5"/>
<path d="M19.8299 8.84101C19.8389 8.81033 19.8505 8.77844 19.8609 8.74811C19.9777 8.79115 20.0704 8.80811 20.1929 8.83073L20.2005 8.89031L20.2171 8.89164C20.221 8.91715 20.2431 8.44162 20.2434 8.43918L20.2457 8.41885C20.2602 8.56981 20.2629 8.68203 20.2637 8.83401C20.2638 8.98713 20.2723 9.49086 20.2444 9.62137C20.1788 9.55595 20.1065 9.56946 20.0305 9.60187C20.0186 9.62908 20.0061 9.65642 19.996 9.68425L19.8319 9.67416L19.8281 9.66589L19.8299 8.84101Z" fill="#F0E7D5"/>
<path d="M4.62436 8.29346C4.62136 8.22137 4.59271 7.90957 4.66631 7.89948C4.8629 7.87258 5.27913 7.87124 5.45937 7.92985C5.52625 8.00813 5.50974 8.18013 5.44217 8.25324L5.46198 8.26946C5.49024 8.26346 5.50968 8.27599 5.53722 8.28747L5.53503 8.30607C5.24018 8.30355 4.92412 8.29584 4.63157 8.30861C4.56296 8.33386 4.36567 8.31671 4.28516 8.31056C4.36682 8.29668 4.53533 8.29621 4.62436 8.29346ZM5.28136 8.27059L5.27351 8.22867C5.20786 8.20019 5.13381 8.2218 5.06111 8.23429L5.05611 8.25519C5.13922 8.27656 5.19546 8.27184 5.28136 8.27059Z" fill="#F0E7D5"/>
<path d="M5.06115 8.2343C5.13382 8.22181 5.20784 8.20019 5.27346 8.22868L5.28131 8.2706C5.19544 8.27185 5.13923 8.27656 5.05615 8.2552L5.06115 8.2343Z" fill="#F0E7D5"/>
<path d="M26.5961 7.91658C26.8355 7.87975 27.094 7.87899 27.3379 7.87054C27.4158 7.92333 27.404 7.9003 27.4417 7.97831C27.4456 8.10874 27.3519 8.20659 27.3935 8.30533L26.5176 8.30742L26.5317 8.27719C26.501 8.15798 26.5498 8.0248 26.5961 7.91658Z" fill="#F0E7D5"/>
<path d="M29.2264 10.9153C29.4439 10.8579 29.2842 10.4067 29.3488 10.2491C29.3488 10.2491 29.4062 10.2241 29.4146 10.2205C29.4677 10.2301 29.4933 10.2341 29.5263 10.2816C29.5656 10.3384 29.6269 11.2827 29.6267 11.4198C29.4541 11.451 29.3922 11.4632 29.2219 11.4351C29.2176 11.2562 29.2354 11.0979 29.2264 10.9153Z" fill="#F0E7D5"/>
<path d="M29.2139 9.68484C29.3439 9.67397 29.5264 9.64692 29.6435 9.6987C29.7325 9.83221 29.7081 10.7598 29.6896 10.9692C29.9357 10.9691 30.691 10.9374 30.9533 11.0448C31.0179 11.0712 30.9218 11.3336 30.9417 11.3836C31.0194 11.5755 31.0204 12.2033 30.9714 12.3783C30.9673 12.228 30.9702 12.0643 30.97 11.9128V11.4264C30.8424 11.4416 30.6396 11.4429 30.5126 11.4242C30.4464 11.3158 30.5717 11.1944 30.5206 11.0599C30.4404 10.9944 29.8726 11.01 29.6991 10.9974C29.5754 10.9171 29.8176 9.66216 29.4245 9.7083C29.3656 9.71523 29.2873 9.70529 29.2284 9.689L29.2139 9.68484Z" fill="#F0E7D5"/>
<path d="M21.6233 11.4168C21.6627 11.3065 21.5165 11.0788 21.6576 10.9916C21.9439 11.0611 22.1832 10.9619 22.4896 10.992C22.4357 11.0332 22.3724 11.0196 22.2926 11.0212L22.2965 11.0392L22.285 11.0254C22.3531 11.0625 22.424 11.0516 22.4677 11.0988C22.4439 11.1593 22.3927 11.2335 22.3566 11.2903C22.3355 11.2984 22.3168 11.3072 22.2979 11.3197L22.2934 11.3447L22.2832 11.3692C22.3408 11.3839 22.414 11.4005 22.4689 11.4193L21.6233 11.4168Z" fill="#F0E7D5"/>
<path d="M7.80518 14.124C8.05398 14.1255 8.3418 14.1606 8.58264 14.1453C8.63077 14.1078 8.63131 14.0622 8.6533 13.9935C8.64959 14.12 8.67066 14.4105 8.57518 14.4977C8.49956 14.5668 7.89687 14.517 7.74891 14.519C7.81627 14.48 8.11637 14.5033 8.21143 14.5079L8.21626 14.4848C8.12779 14.4518 7.87266 14.4671 7.77298 14.4718C7.7492 14.3645 7.68479 14.1773 7.80518 14.124Z" fill="#F0E7D5"/>
<path d="M10.4238 11.4069C10.5455 11.4775 10.6832 11.4255 10.8794 11.4513C10.8217 11.6723 10.8914 11.9327 10.8944 12.1625C10.9021 12.7496 10.9049 13.3375 10.9024 13.9247C10.902 14.0287 10.8898 14.1381 10.8024 14.2036C10.7152 14.2361 10.5633 14.2108 10.4701 14.1942C10.427 14.2274 10.4408 14.2146 10.4175 14.2694L10.4258 14.1536L10.4636 14.1284C10.5648 14.1734 10.7087 14.1907 10.8001 14.1168C10.9309 13.9347 10.8407 12.3573 10.8467 12.0441C10.8494 11.9024 10.6281 11.7733 10.5091 11.946L10.5113 11.9353L10.4756 12.031C10.4574 11.9914 10.4377 11.8196 10.4267 11.759C10.4152 11.679 10.4227 11.4948 10.4238 11.4069Z" fill="#F0E7D5"/>
<path d="M8.70155 11.4588C8.8006 11.4607 9.06401 11.4743 9.12727 11.4172C9.09534 11.5125 9.10486 11.7143 9.10537 11.8233C9.09021 11.8696 9.08131 11.8888 9.09307 11.9368L9.07223 11.9574C9.04889 11.9365 9.02586 11.9153 9.0032 11.8936C8.91354 11.8997 8.80046 11.9082 8.71127 11.9062C8.72825 12.1807 8.69374 14.423 8.63945 14.5402C8.38169 14.5541 8.03117 14.5382 7.7545 14.5443L7.74902 14.519C7.89705 14.517 8.5 14.5668 8.57565 14.4977C8.67118 14.4104 8.6501 14.12 8.65381 13.9935C8.67284 13.885 8.65506 13.5245 8.66014 13.3955C8.68438 12.779 8.62378 12.0636 8.70155 11.4588Z" fill="#F0E7D5"/>
<path d="M24.2855 4.29715C24.3081 4.19127 24.2988 4.0324 24.3199 3.90738C24.3306 3.89752 24.3413 3.88763 24.3519 3.87775C24.3562 3.88049 24.406 3.91195 24.406 3.91195C24.4454 3.91072 24.501 3.90896 24.5389 3.90775C24.7314 4.03022 24.5598 4.50231 24.6526 4.64297C24.7381 4.56808 24.6301 4.30201 24.7057 4.18973C24.707 4.33663 24.7119 4.49844 24.709 4.64394C24.6977 4.68405 24.6957 4.72472 24.6658 4.74028C24.5635 4.79356 24.4024 4.75472 24.2859 4.75845L24.2664 4.7635L24.2656 4.73483L24.2816 4.71877C24.3052 4.65214 24.2884 4.38503 24.2855 4.29715Z" fill="#F0E7D5"/>
<path d="M16.7224 11.4507C16.741 11.5145 16.752 11.566 16.7653 11.6311C16.811 11.5496 16.8203 11.4845 16.8958 11.4706C16.9813 11.4549 17.025 11.4473 17.108 11.47C17.1455 11.519 17.1394 11.7338 17.1445 11.822C17.1284 12.2974 17.1423 12.8212 17.1432 13.3023L17.1434 15.9132C17.1432 16.1149 17.1587 17.1138 17.1288 17.2492C17.1076 17.1104 17.1227 16.1409 17.1227 15.9455L17.12 13.3857C17.1211 12.9277 17.1236 12.4623 17.1225 12.0036C17.1223 11.9454 17.118 11.9108 17.0792 11.8756C17.0485 11.8973 16.7882 11.9612 16.7638 11.9559C16.7372 11.8985 16.7292 11.8591 16.7142 11.7988C16.7109 11.68 16.7034 11.5683 16.7224 11.4507Z" fill="#F0E7D5"/>
<path d="M15.363 11.2287C15.3595 11.1635 15.3538 11.1265 15.3726 11.0625C15.4743 10.969 15.638 11.0268 15.8312 11.0143C15.9902 11.0247 16.189 10.9899 16.2726 11.0791C16.31 11.3057 16.1899 11.2944 16.0871 11.3675C16.1121 11.3736 16.1331 11.3803 16.1588 11.3805C16.2674 11.389 16.3744 11.3938 16.48 11.4206C16.4003 11.4261 16.3148 11.4212 16.2345 11.4185C16.1234 11.3736 15.7962 11.3945 15.6593 11.3988C15.7303 11.3838 15.8013 11.3793 15.8736 11.3728C15.7023 11.3324 15.5844 11.291 15.4268 11.3825C15.4487 11.3074 15.4631 11.1371 15.4177 11.0725C15.3772 11.1186 15.3751 11.1669 15.363 11.2287Z" fill="#F0E7D5"/>
<path d="M7.31494 4.56736L7.35983 4.6013C7.47383 4.46343 7.33407 3.98271 7.47541 3.85843C7.99499 3.94823 7.57634 4.60217 7.73617 4.73444L7.79324 4.76014L7.7716 4.76206C7.63011 4.77019 7.48316 4.79779 7.36063 4.73789C7.30639 4.66512 7.3231 4.67273 7.31494 4.56736Z" fill="#F0E7D5"/>
<path d="M17.1444 11.822C17.1839 12.025 17.1697 12.9587 17.1699 13.2366L17.1709 16.561C17.17 16.7571 17.1706 16.959 17.1614 17.1547C17.1528 17.3396 17.1251 17.5177 17.1326 17.7047C16.7099 17.6715 16.8925 17.6773 16.7676 17.308C16.8048 17.3072 17.098 17.2776 17.1287 17.2492C17.1586 17.1138 17.1432 16.1149 17.1434 15.9131L17.1431 13.3023C17.1422 12.8212 17.1283 12.2974 17.1444 11.822ZM17.0784 17.6674L17.0567 17.6251C16.9885 17.6085 16.9649 17.6146 16.8975 17.6234C16.9442 17.7054 16.9864 17.6798 17.0784 17.6674Z" fill="#F0E7D5"/>
<path d="M16.8979 17.6234C16.9653 17.6146 16.9889 17.6086 17.0571 17.6251L17.0788 17.6674C16.9868 17.6798 16.9446 17.7054 16.8979 17.6234Z" fill="#F0E7D5"/>
<path d="M24.2849 15.9183L24.2994 15.9182C24.2965 16.0033 24.2894 16.2315 24.2639 16.302L24.2385 16.2596C24.1553 16.2026 23.4864 16.1921 23.3872 16.2772C23.3999 16.182 23.3837 16.0558 23.3975 15.9293C23.6801 15.924 24.0116 15.9364 24.2849 15.9183Z" fill="#F0E7D5"/>
<path d="M5.55247 8.77047L5.60927 8.77924L5.87572 8.75793C5.75785 8.93295 5.78675 8.98323 5.79343 9.20308L5.88703 9.25433C5.91161 9.21834 5.91296 9.21009 5.92698 9.16821C5.92579 9.21801 5.9188 9.38076 5.92584 9.42114L5.91964 9.68056C5.83408 9.65954 5.68434 9.68163 5.55401 9.65689C5.53504 9.47413 5.54962 8.97189 5.55247 8.77047Z" fill="#F0E7D5"/>
<path d="M29.6992 10.9974C29.8726 11.01 30.4403 10.9944 30.5204 11.0599C30.5714 11.1944 30.4462 11.3158 30.5124 11.4242L30.4968 11.4268L30.3244 11.418L30.3107 11.4031C30.2472 11.3822 30.119 11.3928 30.0465 11.3949L30.0752 11.3737C30.0044 11.3125 29.8038 11.3438 29.7009 11.3503C29.7203 11.2584 29.8212 11.2287 29.8058 11.0938C29.7658 11.018 29.7826 11.0417 29.6992 10.9974Z" fill="#F0E7D5"/>
<path d="M24.2915 6.55005C24.3842 6.5277 24.5948 6.53053 24.6897 6.54425C24.6005 6.57321 24.4002 6.56117 24.2857 6.57278C24.2974 6.72751 24.2804 6.79354 24.2806 6.93505C24.0515 6.93193 23.5312 6.89366 23.3569 7.02507C23.3992 6.92621 23.4398 6.92809 23.5388 6.89643C23.5626 6.77209 23.4654 6.74133 23.5027 6.60891C23.5956 6.53471 23.9828 6.56714 24.128 6.56611C24.0837 6.57737 24.0316 6.58656 23.989 6.59892C23.8764 6.63169 23.7562 6.56238 23.6475 6.59743C23.6959 6.62833 23.7234 6.61393 23.7919 6.60991L23.773 6.63018L23.8089 6.65694L23.7968 6.68346L23.7441 6.69734L23.7683 6.71895C23.8397 6.71407 23.8743 6.65831 23.8901 6.65618C24.0011 6.64102 24.0843 6.68789 24.1918 6.63662L24.2004 6.5995L24.1781 6.56385C24.2209 6.57583 24.2482 6.56256 24.2915 6.55005ZM24.0999 6.82537C24.1649 6.78848 24.1676 6.8006 24.1953 6.74375C24.1346 6.67671 24.0335 6.68817 23.948 6.69094C23.8893 6.71385 23.8846 6.70347 23.8633 6.74931C23.9248 6.82648 24.0068 6.82609 24.0999 6.82537Z" fill="#F0E7D5"/>
<path d="M23.9479 6.69093C24.0334 6.68816 24.1345 6.6767 24.1952 6.74374C24.1675 6.80059 24.1648 6.78847 24.0998 6.82536C24.0068 6.82608 23.9248 6.82647 23.8633 6.7493C23.8846 6.70346 23.8893 6.71384 23.9479 6.69093Z" fill="#F0E7D5"/>
<path d="M24.6898 6.54423L24.7132 6.53482C24.7091 6.65186 24.7099 6.82663 24.6798 6.93318C24.5963 6.95326 24.3943 6.94742 24.3002 6.95207C24.0235 6.96575 23.7073 6.96177 23.4358 7.01075C23.4307 7.25819 23.4335 7.51421 23.4194 7.76131C23.3872 8.31886 23.4811 8.378 22.8975 8.32466L22.9331 8.29581C22.9779 8.28434 23.1862 8.3004 23.3349 8.27009C23.3775 7.91391 23.42 7.44875 23.3773 7.0903L23.357 7.02506C23.5314 6.89365 24.0516 6.93191 24.2807 6.93503C24.2805 6.79353 24.2975 6.72749 24.2858 6.57276C24.4003 6.56115 24.6006 6.57319 24.6898 6.54423ZM24.6556 6.93146L24.655 6.89012C24.6017 6.84515 24.5604 6.8466 24.4846 6.84978L24.4712 6.89812C24.5321 6.93946 24.5723 6.93606 24.6556 6.93146Z" fill="#F0E7D5"/>
<path d="M24.4845 6.8498C24.5604 6.84662 24.6016 6.84516 24.6549 6.89013L24.6555 6.93148C24.5723 6.93607 24.5321 6.93948 24.4712 6.89813L24.4845 6.8498Z" fill="#F0E7D5"/>
<path d="M7.71973 6.54213L7.74023 6.53951C7.99804 6.55296 8.28546 6.53984 8.54676 6.53848C8.6265 6.5893 8.59589 6.55288 8.62648 6.63801C8.69414 6.82627 8.67612 7.13846 8.71349 7.30531L8.68012 7.34036L8.66448 7.31505L8.67936 7.10105C8.68479 6.84616 8.41612 6.90494 8.23739 6.93297C8.28984 6.87198 8.2831 6.84376 8.25368 6.77814C8.15652 6.69344 7.92449 6.7015 7.78887 6.69438C7.8631 6.9131 7.84571 6.90682 8.0817 6.93071C8.03475 6.93582 7.98771 6.93988 7.94058 6.9429C7.60686 6.96201 7.86896 6.6815 7.71973 6.54213Z" fill="#F0E7D5"/>
<path d="M10.8794 11.4513C10.8822 11.4552 10.9111 11.4963 10.9111 11.4963C10.9339 11.9681 10.9377 12.4483 10.933 12.9201C10.9278 13.4333 10.9599 13.951 10.8767 14.4582C10.8722 14.4855 10.8635 14.5108 10.8531 14.5362C10.6861 14.6214 10.4834 14.6293 10.4545 14.3963C10.4486 14.4406 10.4397 14.5244 10.4301 14.5643C10.4182 14.4844 10.4193 14.3539 10.4175 14.2694C10.4408 14.2145 10.427 14.2274 10.4701 14.1942C10.5633 14.2107 10.7152 14.2361 10.8024 14.2036C10.8898 14.1381 10.902 14.0287 10.9024 13.9246C10.9049 13.3375 10.9021 12.7496 10.8944 12.1625C10.8914 11.9327 10.8217 11.6723 10.8794 11.4513Z" fill="#F0E7D5"/>
<path d="M26.0562 10.1228C26.0492 10.0169 26.0215 9.70489 26.041 9.62299L26.0603 9.66937C26.1565 9.69298 26.388 9.68115 26.492 9.67489L26.5293 9.70024C26.4994 9.79925 26.5059 9.9902 26.5147 10.0953C26.8835 10.0885 27.0961 10.0762 27.4612 10.1254L27.5492 10.1372C27.509 10.1474 27.4567 10.1645 27.4171 10.1609C27.3174 10.1101 26.2703 10.1389 26.0562 10.1228Z" fill="#F0E7D5"/>
<path d="M22.9474 11.4407L22.9769 11.5416C23.047 11.5599 23.1136 11.4895 23.1883 11.4832C23.2303 11.4795 23.3172 11.4922 23.3615 11.498C23.4197 12.178 23.3834 12.9258 23.3978 13.6138C23.3867 13.744 23.381 14.0088 23.3574 14.1133C23.3252 13.7838 23.4035 12.0682 23.3277 11.9099C23.2401 11.8788 23.1831 11.9214 23.0897 11.9233C22.97 11.9258 22.9896 11.9261 22.9468 11.8268C22.9421 11.6868 22.9396 11.5804 22.9474 11.4407Z" fill="#F0E7D5"/>
<path d="M30.5198 12.7997L30.5335 12.8006C30.5184 12.9064 30.5423 13.1438 30.4946 13.1884C30.4862 13.1599 30.4821 13.1224 30.4501 13.1159C30.2469 13.0744 29.936 13.0559 29.7445 13.1104C29.7064 13.1579 29.7177 13.1366 29.7125 13.2104L29.6765 13.1856C29.6508 13.1092 29.6662 12.8973 29.6789 12.8141C29.9063 12.7892 30.2592 12.8232 30.5198 12.7997Z" fill="#F0E7D5"/>
<path d="M21.1581 13.7688C21.1298 13.4609 21.1175 11.6473 21.2128 11.4305C21.2331 11.4237 21.5302 11.4544 21.5939 11.4547L21.5908 11.6365C21.5527 11.7913 21.572 11.9274 21.5396 12.0833C21.5222 12.021 21.5209 11.9576 21.4603 11.9239C21.3422 11.8583 21.262 11.8456 21.185 11.9705L21.1856 12.1337C21.1766 12.4199 21.1723 12.7062 21.1725 12.9926C21.1721 13.0734 21.1768 13.3773 21.168 13.4426C21.1606 13.5585 21.1577 13.6527 21.1581 13.7688Z" fill="#F0E7D5"/>
<path d="M20.2637 8.83401C20.37 8.98645 20.3072 9.9716 20.1965 10.1147C20.0843 10.1697 19.9254 10.1316 19.8097 10.0947C19.7793 9.96644 19.7822 9.7955 19.8319 9.67416L19.9959 9.68425C20.0994 9.68222 20.1759 9.6992 20.2443 9.62137C20.2722 9.49086 20.2637 8.98713 20.2637 8.83401Z" fill="#F0E7D5"/>
<path d="M4.22016 8.30119C4.21378 8.18981 4.16029 7.97867 4.21606 7.88554C4.37534 7.8468 5.27352 7.85068 5.50216 7.84705C5.61709 7.99708 5.56555 8.11072 5.5369 8.28747C5.50936 8.27599 5.48992 8.26346 5.46166 8.26947L5.44185 8.25324C5.50942 8.18013 5.52593 8.00813 5.45905 7.92986C5.27881 7.87125 4.86259 7.87258 4.666 7.89948C4.59239 7.90957 4.62104 8.22138 4.62404 8.29346C4.53501 8.29621 4.3665 8.29668 4.28484 8.31056L4.22016 8.30119Z" fill="#F0E7D5"/>
<path d="M11.7737 8.76248C11.8212 8.91572 11.7405 9.58122 11.8305 9.67118C11.9406 9.67754 12.1475 9.66161 12.2291 9.67178C12.2879 9.80061 12.1858 9.99334 12.2935 10.107L12.3395 10.1197L12.305 10.1386C12.2869 10.1344 11.8158 10.1202 11.7896 10.1202C11.7653 9.91642 11.7398 8.92287 11.7737 8.76248Z" fill="#F0E7D5"/>
<path d="M22.9194 15.9256C23.0927 15.9 23.2191 15.9251 23.3743 15.9094L23.3975 15.9293C23.3837 16.0558 23.3999 16.1821 23.3872 16.2773L23.4044 16.3132C23.484 16.3386 24.1364 16.3233 24.2611 16.3221C24.4188 16.308 24.4364 16.3116 24.5838 16.355C24.0447 16.3471 23.4867 16.3563 22.944 16.3571C22.9465 16.2396 22.928 16.0486 22.9194 15.9256Z" fill="#F0E7D5"/>
<path d="M5.6605 3.86004L5.9264 3.85834L5.92836 3.86992C5.92748 4.1621 5.92258 4.46319 5.92601 4.75453C5.91959 4.75268 5.62889 4.7623 5.60059 4.76324L5.65956 4.71667C5.7071 4.53696 5.63869 4.12209 5.6605 3.86004Z" fill="#F0E7D5"/>
<path d="M22.9457 5.30529L22.9254 5.28372C22.927 5.15231 22.9006 4.85763 22.9443 4.79139C23.1227 4.72681 23.9699 4.72511 24.1918 4.72847L24.2656 4.73485L24.2664 4.76352C24.1233 4.76282 23.4877 4.74334 23.4102 4.79467L23.395 4.90322L23.3911 5.03713C23.3807 5.09962 23.3885 5.13393 23.3487 5.16322C23.2445 5.23961 23.0476 5.14814 22.9475 5.22913L22.9457 5.30529Z" fill="#F0E7D5"/>
<path d="M8.6603 15.9142L8.67059 15.9131C8.65603 15.9902 8.63082 16.1721 8.64455 16.2456C8.52976 16.1514 8.20957 16.2109 8.07085 16.1457L8.24054 16.1518C8.09688 16.1268 7.99053 16.1124 7.84532 16.0998C7.78477 16.15 7.77605 16.1939 7.78766 16.2726C7.88115 16.3495 8.38219 16.2658 8.58279 16.3174C8.37442 16.3356 7.97334 16.3224 7.7508 16.3215C7.7041 16.2078 7.78932 16.0641 7.7894 15.938C7.99427 15.9098 8.41199 15.9296 8.6603 15.9142Z" fill="#F0E7D5"/>
<path d="M22.7119 6.51766C22.7802 6.51309 22.8417 6.51725 22.8935 6.47472C22.978 6.33699 22.9241 6.04397 22.9446 5.8165C22.9577 6.04815 22.9565 6.29234 22.9593 6.52517C23.1059 6.52201 23.232 6.52186 23.3785 6.52763L23.4749 6.54245C23.3384 6.63443 23.372 6.79138 23.371 6.9474C23.1926 7.04391 23.1469 7.01899 22.9448 6.99765L22.9298 6.96606C22.93 6.82036 22.9714 6.66189 22.9122 6.55431C22.8347 6.50367 22.816 6.5201 22.7119 6.51766Z" fill="#F0E7D5"/>
<path d="M7.73633 4.73447C8.01804 4.72604 8.83093 4.69722 9.06987 4.78805C9.13736 4.89078 9.04093 5.09038 9.07789 5.21494C8.97529 5.22091 8.78649 5.21265 8.67171 5.21416L8.64501 5.18878C8.66041 5.05794 8.68949 4.91973 8.65171 4.79691C8.59435 4.74513 7.91987 4.76041 7.79342 4.76016L7.73633 4.73447Z" fill="#F0E7D5"/>
<path d="M7.3024 3.50642L7.33659 3.53529C7.34337 3.50027 7.34995 3.47227 7.35924 3.43782C7.47461 3.42437 7.6393 3.39535 7.74509 3.43107C7.75077 3.47611 7.75397 3.52141 7.75466 3.56679C7.75565 3.60635 7.73013 3.68892 7.72373 3.73336C7.71953 3.7625 7.8316 3.87172 7.83258 3.88805C7.84094 4.02945 7.82737 4.43077 7.794 4.5491L7.77582 4.56591C7.67691 4.09278 8.07201 3.81401 7.3049 3.83838C7.29422 3.72046 7.2789 3.623 7.3024 3.50642Z" fill="#F0E7D5"/>
<path d="M9.09299 15.9204C9.09535 16.0472 9.11973 16.2355 9.04107 16.3268C8.96002 16.3375 7.36621 16.3589 7.33008 16.3453C7.47739 16.2806 7.59012 16.3068 7.75061 16.3215C7.97324 16.3224 8.3745 16.3356 8.58296 16.3174C8.59432 16.3169 8.62307 16.3079 8.63567 16.3044L8.64475 16.2456C8.63101 16.1721 8.65624 15.9902 8.6708 15.9131C8.79491 15.922 8.96514 15.9191 9.09299 15.9204Z" fill="#F0E7D5"/>
<path d="M29.3182 12.7987C29.3953 12.793 29.5747 12.7769 29.6442 12.793L29.6787 12.8141C29.666 12.8973 29.6506 13.1092 29.6762 13.1856L29.7123 13.2104C29.9726 13.2047 30.2328 13.2031 30.493 13.2058C30.6118 13.1919 30.7818 13.2158 30.8772 13.1858C30.9227 13.1248 30.9301 12.9348 30.96 12.8413C30.9891 12.928 30.983 13.1044 30.9479 13.1904C30.8009 13.3102 29.4609 13.1802 29.2671 13.2519C29.3095 13.1844 29.3128 12.8931 29.3182 12.7987Z" fill="#F0E7D5"/>
<path d="M27.8624 11.4481C27.7607 11.4186 27.5295 11.5028 27.4499 11.4647C27.3897 11.3072 27.364 10.5279 27.4128 10.3648C27.41 10.5164 27.3788 10.9273 27.4542 11.0352C27.5028 11.0357 27.6172 10.9564 27.7515 10.9574C27.7588 10.9528 27.8044 10.9443 27.8162 10.9417L27.8374 11.0073C27.8384 11.0847 27.8406 11.3859 27.8624 11.4481Z" fill="#F0E7D5"/>
<path d="M29.2011 11.0053C29.1992 11.0727 29.1955 11.1603 29.2011 11.2261C29.2181 11.4248 29.2013 11.4363 29.0137 11.4474C28.7894 11.4506 28.4961 11.4477 28.2725 11.4274C28.377 11.4114 28.6031 11.4179 28.7187 11.4185C28.7448 11.2556 28.7542 11.1664 28.7296 11.0048L29.2011 11.0053Z" fill="#F0E7D5"/>
<path d="M19.8193 7.8718C19.9682 7.87325 20.1134 7.88045 20.2619 7.88523C20.2639 8.0222 20.262 8.1902 20.2715 8.3244C19.9972 8.40227 19.825 8.14537 19.8267 8.57277C19.8163 8.48863 19.8288 8.38265 19.7925 8.30867C19.8193 8.2393 19.8016 7.99402 19.8193 7.8718Z" fill="#F0E7D5"/>
<path d="M8.68075 8.30914C8.66413 8.00767 8.64449 7.61638 8.66511 7.31506L8.68075 7.34037C8.68594 7.49422 8.68657 7.70957 8.70037 7.85813C8.79022 7.91849 9.06228 7.85321 9.10153 7.87411C9.10315 7.95163 9.10615 8.27167 9.11726 8.32655C9.07655 8.3134 8.74655 8.31049 8.68075 8.30914Z" fill="#F0E7D5"/>
<path d="M7.30498 3.85175C7.33593 3.95279 7.31808 4.42996 7.3147 4.56739C7.32286 4.67276 7.30615 4.66515 7.36039 4.73791C7.48291 4.79781 7.62987 4.77021 7.77135 4.76209C7.76309 4.85614 7.72832 5.11773 7.74897 5.18723L7.7305 5.19851C7.6146 5.18668 7.43296 5.18826 7.30174 5.17915L7.30283 4.76933C7.29818 4.46347 7.29889 4.15758 7.30498 3.85175Z" fill="#F0E7D5"/>
<path d="M2.82178 11.0128L3.33708 11.001L3.2901 11.0218C3.26644 11.1294 3.28479 11.2929 3.29772 11.4039C3.40356 11.414 3.596 11.4122 3.67367 11.4233L3.6675 11.4346L3.28559 11.4468C3.15966 11.434 2.96572 11.4344 2.83453 11.4308C2.82948 11.2915 2.82522 11.1521 2.82178 11.0128Z" fill="#F0E7D5"/>
<path d="M15.3451 17.2961C15.5028 17.2914 16.1577 17.234 16.2563 17.2859L16.2442 17.2909C16.0919 17.2873 15.9396 17.2857 15.7872 17.2861C15.7875 17.3677 15.7815 17.6633 15.8073 17.7189C15.6865 17.7195 15.4395 17.7437 15.3369 17.7114C15.3471 17.5921 15.3447 17.4175 15.3451 17.2961Z" fill="#F0E7D5"/>
<path d="M7.33105 6.54863C7.44395 6.52074 7.60049 6.5367 7.71994 6.54215C7.86924 6.68152 7.60703 6.96203 7.9409 6.94292C7.98804 6.9399 8.03511 6.93584 8.08207 6.93074L8.23783 6.93299C8.41664 6.90496 8.68543 6.84618 8.68 7.10107C8.66039 7.05224 8.64919 7.0304 8.6227 6.9849C8.47705 6.92542 7.60818 6.96757 7.34412 6.95057C7.34693 6.80851 7.33991 6.69053 7.33105 6.54863Z" fill="#F0E7D5"/>
<path d="M5.92578 4.75452C6.01253 4.79383 6.36923 4.76098 6.50004 4.76934C6.46685 4.77619 6.42009 4.778 6.40913 4.80109C6.35825 4.90816 6.40621 5.09427 6.40062 5.20464L5.93757 5.20636C5.93888 5.05442 5.93197 4.90627 5.92578 4.75452Z" fill="#F0E7D5"/>
<path d="M16.2567 17.2859C16.3491 17.2779 16.6251 17.2739 16.7119 17.2889C16.7095 17.3928 16.7068 17.4782 16.7155 17.5826C16.7182 17.6198 16.7193 17.6614 16.729 17.6968C16.6458 17.7344 16.3714 17.7181 16.2555 17.7202C16.2461 17.6448 16.2504 17.3966 16.2446 17.291L16.2567 17.2859Z" fill="#F0E7D5"/>
<path d="M27.5487 10.1372C27.6391 10.1281 27.7244 10.1142 27.8029 10.162L27.8287 10.2395C27.825 10.4628 27.8226 10.6861 27.8216 10.9094C27.75 10.7396 27.8017 10.4168 27.7312 10.3099L27.692 10.361C27.6623 10.3456 27.6391 10.3326 27.6104 10.3153C27.48 10.3613 27.5215 10.7372 27.5424 10.8541C27.6309 10.9537 27.6744 10.842 27.7512 10.9574C27.617 10.9564 27.5026 11.0357 27.454 11.0352C27.3786 10.9273 27.4097 10.5164 27.4126 10.3648C27.4181 10.3176 27.4161 10.2129 27.4167 10.161C27.4563 10.1645 27.5085 10.1474 27.5487 10.1372Z" fill="#F0E7D5"/>
<path d="M22.4629 7.88679C22.6164 7.88724 22.7952 7.8928 22.9444 7.86975C22.9331 7.97034 22.927 8.19293 22.9329 8.29582L22.8973 8.32468L22.4779 8.32219C22.4756 8.19989 22.4908 7.99694 22.4629 7.88679Z" fill="#F0E7D5"/>
<path d="M20.2715 8.32441C20.3466 8.32265 20.422 8.31849 20.4964 8.32845C20.4134 8.33192 20.3642 8.33124 20.2842 8.35327C20.261 8.38112 20.2557 8.38329 20.2457 8.41885L20.2434 8.43918C20.2431 8.44162 20.221 8.91715 20.2171 8.89164L20.2005 8.89031L20.1929 8.83073C20.0704 8.80811 19.9777 8.79115 19.8609 8.74811C19.8505 8.77844 19.8389 8.81033 19.8299 8.84101L19.8267 8.57278C19.825 8.14538 19.9972 8.40228 20.2715 8.32441Z" fill="#F0E7D5"/>
<path d="M5.95163 3.40903L6.38801 3.41444C6.41316 3.55814 6.37241 3.78512 6.41714 3.84962C6.32827 3.84931 5.98588 3.83865 5.92824 3.8699L5.92627 3.85831C5.94041 3.80622 5.93916 3.65828 5.94045 3.59717C5.94464 3.53447 5.94837 3.47176 5.95163 3.40903Z" fill="#F0E7D5"/>
<path d="M15.7875 17.2861C15.9399 17.2857 16.0922 17.2873 16.2445 17.291C16.2503 17.3966 16.246 17.6448 16.2554 17.7202C16.1166 17.7249 15.9486 17.7196 15.8076 17.7189C15.7818 17.6633 15.7878 17.3677 15.7875 17.2861Z" fill="#F0E7D5"/>
<path d="M27.8374 11.0074C27.984 10.9997 28.109 10.9964 28.256 10.9978C28.3685 11.0909 28.2894 11.2915 28.2724 11.4274C28.1551 11.4315 27.9725 11.4332 27.8624 11.4481C27.8407 11.3859 27.8384 11.0847 27.8374 11.0074Z" fill="#F0E7D5"/>
<path d="M6.38818 3.41446C6.5013 3.4049 6.70645 3.41064 6.82627 3.41036L6.85529 3.44477L6.85355 3.46318C6.84283 3.58092 6.8448 3.71024 6.84422 3.82919L6.86964 3.85355L6.41731 3.84963C6.37258 3.78514 6.41334 3.55816 6.38818 3.41446Z" fill="#F0E7D5"/>
<path d="M23.3952 4.90321L23.4104 4.79466C23.4879 4.74333 24.1235 4.76281 24.2666 4.76351C24.1028 4.88214 23.953 4.73545 23.8396 4.87433C23.8249 5.00599 23.8737 5.03411 23.8359 5.13068C23.7398 5.17087 23.5636 5.15117 23.5275 5.17988C23.474 5.18558 23.4215 5.18708 23.3725 5.20797C23.2921 5.22879 23.0378 5.23022 22.9478 5.22912C23.0478 5.14813 23.2447 5.2396 23.3489 5.1632C23.3887 5.13392 23.3809 5.09961 23.3913 5.03712C23.4114 5.10166 23.3965 5.08692 23.443 5.11899L23.4734 5.09362C23.4955 5.02041 23.5129 4.94057 23.4506 4.88063L23.3952 4.90321Z" fill="#F0E7D5"/>
<path d="M21.1856 12.1337C21.1963 12.0986 21.2254 11.9695 21.2387 11.9508C21.276 12.5805 21.3252 13.1391 21.2629 13.7736C21.253 13.874 21.2707 13.9991 21.2604 14.0964L21.2067 14.1338C21.1794 13.9155 21.1885 13.6703 21.168 13.4426C21.1768 13.3773 21.1721 13.0734 21.1725 12.9926C21.1723 12.7062 21.1766 12.4199 21.1856 12.1337Z" fill="#F0E7D5"/>
<path d="M30.5126 11.4242C30.6395 11.4429 30.8423 11.4416 30.9698 11.4264V11.9128C30.7994 11.8467 30.6522 11.899 30.5828 11.8633C30.5231 11.7833 30.534 11.7257 30.5229 11.6169C30.5247 11.5468 30.5348 11.4844 30.4971 11.4268L30.5126 11.4242Z" fill="#F0E7D5"/>
<path d="M6.82666 3.41035C6.97315 3.41841 7.21511 3.37552 7.28766 3.44318L7.30254 3.50643C7.27905 3.62301 7.29436 3.72047 7.30504 3.83839L7.30513 3.85174L6.87004 3.85354L6.84462 3.82918C6.84519 3.71023 6.84322 3.58091 6.85394 3.46317L6.85569 3.44476L6.82666 3.41035Z" fill="#F0E7D5"/>
<path d="M3.84385 10.9966C3.951 10.9965 4.09172 10.9909 4.19407 11.0113C4.16861 11.1246 4.1762 11.3167 4.17673 11.439C4.00524 11.4325 3.83961 11.4237 3.66797 11.4347L3.67414 11.4233C3.82663 11.3274 3.58651 11.0749 3.84385 10.9966Z" fill="#F0E7D5"/>
<path d="M24.2861 4.75847C24.4025 4.75473 24.5636 4.79358 24.6659 4.7403C24.6958 4.72473 24.6979 4.68406 24.7092 4.64395L24.7174 4.77395C24.7212 4.91055 24.7262 5.0491 24.7284 5.18554C24.6542 5.19051 24.5245 5.19504 24.4552 5.20556L24.2961 5.20125L24.269 5.19932C24.3006 5.07123 24.2889 4.89452 24.2861 4.75847Z" fill="#F0E7D5"/>
<path d="M2.8312 9.70199C2.98894 9.69233 3.12222 9.69391 3.2805 9.69661L3.2816 9.71288C3.2879 9.81316 3.27672 9.9894 3.26024 10.0892C3.31215 10.1299 3.3688 10.0967 3.41864 10.1205C3.25547 10.1242 2.98371 10.1309 2.82688 10.1148C2.82196 9.99453 2.82921 9.82467 2.8312 9.70199Z" fill="#F0E7D5"/>
<path d="M24.7119 3.40715C25.0475 3.40531 25.383 3.40619 25.7186 3.40986L25.6397 3.4349C25.4853 3.42961 25.3513 3.42733 25.1971 3.43129C25.1887 3.56562 25.1733 3.72234 25.1887 3.85371L24.8169 3.84998C24.8558 3.78778 24.8345 3.66256 24.8093 3.59605L24.7787 3.61648L24.7935 3.59818L24.7828 3.60366C24.7517 3.6576 24.7466 3.68743 24.7316 3.74633C24.7318 3.6222 24.7359 3.52987 24.7119 3.40715Z" fill="#F0E7D5"/>
<path d="M25.1976 3.43129C25.3517 3.42734 25.4858 3.42961 25.6402 3.4349C25.6268 3.57434 25.6459 3.74556 25.6307 3.85464C25.4862 3.85771 25.3343 3.85457 25.1892 3.85371C25.1738 3.72234 25.1892 3.56562 25.1976 3.43129Z" fill="#F0E7D5"/>
<path d="M11.7783 7.88034L11.7671 8.29491C11.6129 8.30046 11.4735 8.30391 11.3193 8.3013C11.2797 8.17149 11.3488 8.03419 11.2979 7.88413C11.458 7.88545 11.6182 7.88418 11.7783 7.88034Z" fill="#F0E7D5"/>
<path d="M22.4815 14.1621C22.6354 14.1657 22.7861 14.1748 22.938 14.1494C22.9357 14.2802 22.9345 14.411 22.9343 14.5419L22.914 14.5849C22.7631 14.5843 22.6194 14.5781 22.4688 14.5711C22.4743 14.4348 22.4786 14.2985 22.4815 14.1621Z" fill="#F0E7D5"/>
<path d="M23.3639 7.87358C23.3637 7.69452 23.3535 7.24397 23.3775 7.0903C23.4201 7.44876 23.3777 7.91392 23.335 8.2701C23.1864 8.30041 22.9781 8.28435 22.9335 8.29581C22.9275 8.19292 22.9337 7.97033 22.9449 7.86974C23.0702 7.90864 23.2332 7.88588 23.3639 7.87358Z" fill="#F0E7D5"/>
<path d="M15.3439 11.4257L15.3618 11.4199C15.3316 11.5142 15.3399 11.6755 15.3398 11.7796L15.313 11.8782C15.0987 11.9678 14.9698 11.733 14.9438 12.2083C14.9294 12.2333 14.9222 12.443 14.9194 12.4905C14.9166 12.2818 14.8941 11.6475 14.9772 11.4891C15.0175 11.4704 15.2298 11.4689 15.3033 11.4617L15.3439 11.4257Z" fill="#F0E7D5"/>
<path d="M10.4254 14.1536L10.4171 14.2694C10.4189 14.3539 10.4178 14.4844 10.4297 14.5643C10.2412 14.5783 10.0317 14.5558 9.83936 14.5602L9.84485 14.5436C9.87468 14.537 9.88648 14.5286 9.91385 14.5152C10.0059 14.4012 9.96136 14.315 9.952 14.1622C10.0791 14.1638 10.3086 14.1733 10.4254 14.1536Z" fill="#F0E7D5"/>
<path d="M2.81397 12.7801L2.81383 12.79C2.80848 13.0391 2.67536 12.9938 2.74009 13.1542L2.81949 13.1523C2.77857 13.2391 2.80063 13.2226 2.72722 13.2706C2.57625 13.2973 2.54384 13.1814 2.33594 13.2304L2.34369 13.2064C2.37497 13.1635 2.37454 12.8878 2.37888 12.8114L2.39766 12.7745C2.47791 12.7943 2.72611 12.7883 2.81397 12.7801Z" fill="#F0E7D5"/>
<path d="M11.771 6.52359C11.8099 6.54365 12.1227 6.553 12.2092 6.56348L12.2067 6.94617C12.0769 6.98258 11.9081 6.97019 11.7749 6.95735L11.771 6.52359Z" fill="#F0E7D5"/>
<path d="M9.10547 14.1559C9.17754 14.1889 9.4774 14.1716 9.5694 14.1613C9.56895 14.2508 9.54665 14.4321 9.58457 14.4969C9.66513 14.5656 9.73997 14.5328 9.84462 14.5436L9.83912 14.5602L9.62678 14.5631C9.44294 14.5654 9.29326 14.5646 9.1101 14.5535L9.10547 14.1559Z" fill="#F0E7D5"/>
<path d="M25.7192 3.40988C25.8186 3.40592 25.9588 3.39612 26.055 3.40262C26.0533 3.47333 26.0443 3.79184 26.0581 3.85051L25.6309 3.85465C25.646 3.74557 25.627 3.57435 25.6403 3.43492L25.7192 3.40988Z" fill="#F0E7D5"/>
<path d="M28.2563 10.9978C28.3798 10.9984 28.6153 10.9927 28.7299 11.0048C28.7545 11.1664 28.745 11.2556 28.719 11.4185C28.6034 11.4179 28.3773 11.4114 28.2727 11.4274C28.2898 11.2915 28.3689 11.0909 28.2563 10.9978Z" fill="#F0E7D5"/>
<path d="M3.33723 11.001L3.84353 10.9966C3.58619 11.0749 3.82631 11.3274 3.67382 11.4233C3.59615 11.4122 3.40371 11.414 3.29787 11.4039C3.28493 11.2929 3.26659 11.1294 3.29024 11.0218L3.33723 11.001Z" fill="#F0E7D5"/>
<path d="M22.9475 5.22912C23.0375 5.23023 23.2917 5.22879 23.3721 5.20798C23.3741 5.35914 23.3743 5.51034 23.3727 5.66153C23.304 5.67597 23.0252 5.61553 22.9438 5.63751C22.9395 5.52767 22.9434 5.41537 22.9457 5.30529L22.9475 5.22912Z" fill="#F0E7D5"/>
<path d="M24.3 15.9182C24.4412 15.9109 24.5939 15.9288 24.7329 15.9083C24.7321 16.0426 24.7471 16.1906 24.696 16.3089C24.653 16.345 24.6398 16.345 24.5839 16.355C24.4365 16.3116 24.4189 16.308 24.2612 16.3221L24.2645 16.302C24.2899 16.2315 24.2971 16.0033 24.3 15.9182Z" fill="#F0E7D5"/>
<path d="M25.6387 4.76387C25.7301 4.76629 25.9783 4.76875 26.0614 4.7507C26.0509 4.87061 26.0607 5.12698 26.0277 5.20864C25.8986 5.20107 25.7699 5.20399 25.6405 5.20518C25.636 5.06459 25.6432 4.91249 25.6387 4.76387Z" fill="#F0E7D5"/>
<path d="M24.2962 3.34982C24.4032 3.39545 24.5225 3.40642 24.6375 3.41963C24.6609 3.46557 24.6802 3.51493 24.7001 3.56265C24.7017 3.5098 24.707 3.45966 24.712 3.40716C24.7359 3.52988 24.7318 3.62221 24.7316 3.74634L24.7042 3.87146C24.5726 3.78924 24.468 3.81904 24.4092 3.7776C24.4012 3.72128 24.3729 3.46096 24.3485 3.43534C24.2942 3.69479 24.2729 4.03076 24.2856 4.29716C24.2884 4.38504 24.3053 4.65215 24.2817 4.71878L24.2657 4.73484L24.1919 4.72846C24.3038 4.68673 24.262 4.21983 24.2632 4.09842C24.2675 3.84863 24.2786 3.59901 24.2962 3.34982Z" fill="#F0E7D5"/>
<path d="M24.2661 4.76353L24.2856 4.75848C24.2885 4.89453 24.3002 5.07125 24.2686 5.19934C24.0333 5.17604 23.7512 5.20902 23.5273 5.1799C23.5634 5.15119 23.7395 5.1709 23.8356 5.1307C23.8734 5.03413 23.8246 5.00601 23.8393 4.87435C23.9527 4.73547 24.1023 4.88217 24.2661 4.76353Z" fill="#F0E7D5"/>
<path d="M29.2058 9.77563C29.223 9.8831 29.2195 10.009 29.22 10.1192C29.3341 10.1229 29.5172 10.1209 29.6168 10.1712C29.6078 10.4963 29.634 10.8378 29.6537 11.1624C29.659 11.2515 29.6488 11.3469 29.6529 11.4195L29.6267 11.4198C29.6269 11.2827 29.5656 10.3384 29.5262 10.2816C29.4932 10.234 29.4676 10.2301 29.4145 10.2205C29.4061 10.2241 29.3487 10.2491 29.3487 10.2491C29.2841 10.4067 29.4438 10.8579 29.2263 10.9153C29.2257 10.7608 29.2421 10.2475 29.2097 10.127C29.1814 10.0238 29.1906 9.88027 29.2058 9.77563Z" fill="#F0E7D5"/>
<path d="M24.3052 14.5578L24.7338 14.5602C24.7281 14.7088 24.7193 14.8671 24.7199 15.0149C24.6959 14.9746 24.7145 14.9651 24.6789 14.9216C24.6705 14.9321 24.6619 14.9425 24.653 14.9528C24.5795 15.0376 24.47 14.9945 24.3066 15.0057L24.3052 14.5578Z" fill="#F0E7D5"/>
<path d="M22.3577 14.1541C22.3934 14.1557 22.4477 14.1561 22.4811 14.1621C22.4782 14.2985 22.4739 14.4348 22.4684 14.5711C22.4286 14.5733 22.3499 14.5627 22.3073 14.5583C22.2501 14.5247 22.1033 14.5375 22.0283 14.5385L22.0127 14.1674C22.1474 14.1707 22.2236 14.1669 22.3577 14.1541Z" fill="#F0E7D5"/>
<path d="M5.55668 4.6665L5.57703 4.67337L5.60024 4.76324C5.62855 4.7623 5.91924 4.75268 5.92566 4.75452C5.93185 4.90628 5.93876 5.05443 5.93744 5.20637C5.88243 5.18863 5.6331 5.20028 5.55883 5.20196C5.55446 4.99012 5.54327 4.88825 5.55668 4.6665Z" fill="#F0E7D5"/>
<path d="M7.33579 14.5681C7.35305 14.4638 7.28262 14.3059 7.30935 14.1805C7.42039 14.0491 7.59705 14.1647 7.75438 14.1138C7.77925 14.1057 7.77675 14.1115 7.80522 14.124C7.68483 14.1773 7.74924 14.3645 7.77301 14.4718C7.65775 14.497 7.55013 14.5053 7.43581 14.5281L7.42978 14.5544L7.33579 14.5681Z" fill="#F0E7D5"/>
<path d="M3.83351 9.68217L3.82314 9.64673L3.76782 9.6366C3.74539 9.56735 3.71499 9.42369 3.72442 9.35312C3.79223 9.25282 4.08387 9.24267 4.15838 9.28432C4.16359 9.33856 4.17292 9.38694 4.18265 9.44028C4.18417 9.52034 4.18599 9.58092 4.17788 9.66055C4.06575 9.67274 3.94517 9.69082 3.83351 9.68217Z" fill="#F0E7D5"/>
<path d="M30.9741 12.7959L30.9599 12.8413C30.93 12.9348 30.9226 13.1248 30.8771 13.1858C30.7818 13.2158 30.6119 13.1919 30.4932 13.2058L30.4948 13.1884C30.5426 13.1438 30.5186 12.9064 30.5338 12.8006C30.6789 12.7941 30.8234 12.8058 30.9741 12.7959Z" fill="#F0E7D5"/>
<path d="M5.50244 7.84705C5.6051 7.85242 5.84842 7.83517 5.91086 7.87869C5.95983 7.95207 5.92859 8.17482 5.92105 8.27156C5.80874 8.29896 5.72676 8.24539 5.64122 8.3203L5.55898 8.33302L5.53497 8.30607L5.53717 8.28747C5.5658 8.11072 5.61732 7.99708 5.50244 7.84705Z" fill="#F0E7D5"/>
<path d="M29.1787 9.68326L29.2136 9.68486L29.2281 9.68902C29.287 9.7053 29.3653 9.71525 29.4242 9.70832C29.8173 9.66218 29.5751 10.9171 29.6988 10.9974C29.7823 11.0417 29.7654 11.018 29.8054 11.0938C29.8208 11.2287 29.7199 11.2584 29.7004 11.3503L29.7105 11.3887C29.804 11.4151 29.9453 11.3999 30.0462 11.3949C30.1188 11.3929 30.247 11.3822 30.3105 11.4031L30.3243 11.418C30.1502 11.4301 29.8518 11.4241 29.6693 11.426L29.6531 11.4196C29.649 11.3469 29.6592 11.2516 29.6539 11.1624C29.6342 10.8378 29.6079 10.4963 29.617 10.1712L29.611 10.1275C29.5214 10.0182 29.5444 10.0146 29.5464 9.87015C29.4712 9.75243 29.3575 9.85954 29.2595 9.79324C29.2468 9.74451 29.2443 9.7389 29.2113 9.70098L29.1787 9.68326Z" fill="#F0E7D5"/>
<path d="M26.0728 8.36083C26.1189 8.3192 26.412 8.32603 26.4942 8.32705L26.4918 8.77847C26.4184 8.79908 26.3712 8.76576 26.2798 8.78442C26.2437 8.76933 26.2244 8.75749 26.1906 8.73754C26.122 8.59333 26.2013 8.44126 26.0728 8.36083Z" fill="#F0E7D5"/>
<path d="M2.39453 9.67731C2.49844 9.68766 2.74182 9.71959 2.8311 9.702C2.82911 9.82468 2.82185 9.99454 2.82677 10.1148L2.81525 10.1111C2.74705 10.0976 2.5674 10.1007 2.48979 10.1001C2.49639 9.95701 2.50518 9.88626 2.46328 9.75111C2.40968 9.7988 2.43748 10.0191 2.41405 10.1216L2.41021 10.1377C2.39297 9.9814 2.39506 9.83436 2.39453 9.67731Z" fill="#F0E7D5"/>
<path d="M21.6947 14.1682C21.9046 14.1782 22.1243 14.1467 22.3574 14.1541C22.2234 14.1669 22.1471 14.1707 22.0124 14.1674L22.028 14.5385C22.103 14.5375 22.2498 14.5247 22.307 14.5583C22.087 14.5628 21.8675 14.5716 21.6479 14.5848C21.6773 14.4822 21.6949 14.2755 21.6947 14.1682Z" fill="#F0E7D5"/>
<path d="M1.0791 12.8024L1.32077 12.802C1.39466 12.818 1.43388 12.8258 1.50927 12.8319L1.53226 12.8604C1.51 12.9681 1.35245 13.0834 1.26536 13.1452C1.36873 13.2361 2.15889 13.2024 2.34344 13.2064L2.33569 13.2304C1.9296 13.2212 1.50687 13.2323 1.10411 13.2153C1.11172 13.088 1.13891 12.9041 1.0791 12.8024Z" fill="#F0E7D5"/>
<path d="M9.56942 14.1613C9.63654 14.157 9.89056 14.1537 9.95179 14.1622C9.96116 14.315 10.0057 14.4012 9.91364 14.5152C9.88627 14.5286 9.87447 14.537 9.84464 14.5436C9.73999 14.5328 9.66515 14.5656 9.58459 14.4969C9.54667 14.4322 9.56897 14.2508 9.56942 14.1613Z" fill="#F0E7D5"/>
<path d="M27.7516 10.9574C27.6747 10.842 27.6312 10.9537 27.5427 10.8541C27.5218 10.7372 27.4804 10.3613 27.6107 10.3153C27.6394 10.3326 27.6626 10.3456 27.6923 10.361L27.7315 10.3099C27.802 10.4168 27.7503 10.7396 27.8219 10.9094L27.8164 10.9417C27.8045 10.9443 27.759 10.9528 27.7516 10.9574Z" fill="#F0E7D5"/>
<path d="M26.5004 8.30705C26.4573 8.22096 26.4725 7.87756 26.5576 7.86819C26.9499 7.8249 27.5018 7.81817 27.8859 7.89325C27.8791 8.0206 27.8596 8.13762 27.8213 8.26505C27.8365 8.28585 27.8496 8.30406 27.8609 8.31973C27.745 8.32717 27.6607 8.32309 27.5455 8.31794C27.4932 8.29813 27.4751 8.29114 27.4277 8.26153C27.4605 8.22318 27.6139 8.23813 27.7103 8.21214C27.7954 8.14258 27.8473 8.05159 27.7874 7.94435C27.7155 7.91343 27.4312 7.88174 27.3381 7.87057C27.0941 7.87902 26.8355 7.87977 26.5959 7.91661C26.5496 8.02483 26.5008 8.158 26.5315 8.27722L26.5174 8.30744L26.5004 8.30705Z" fill="#F0E7D5"/>
<path d="M19.8574 6.54298C19.9989 6.54404 20.1404 6.53896 20.2815 6.52768C20.2506 6.57917 20.25 6.89625 20.2579 6.95799C20.1859 6.98182 19.9513 6.96423 19.8707 6.95797C19.9469 6.83774 19.9938 6.71213 19.9433 6.57206L19.8574 6.54298Z" fill="#F0E7D5"/>
<path d="M22.4897 10.992C22.609 10.9876 22.846 10.9616 22.8905 11.1157C22.8542 11.2148 22.7952 11.2403 22.7001 11.2901C22.7406 11.3142 22.748 11.3166 22.7939 11.3276C22.7103 11.3212 22.7952 11.3468 22.7062 11.3407C22.442 11.2294 22.5506 11.327 22.3141 11.3434L22.2936 11.3447L22.2981 11.3197C22.3169 11.3072 22.3356 11.2984 22.3567 11.2903C22.3928 11.2335 22.444 11.1593 22.4678 11.0988C22.4241 11.0516 22.3532 11.0625 22.2852 11.0254L22.2966 11.0392L22.2927 11.0212C22.3725 11.0196 22.4358 11.0332 22.4897 10.992Z" fill="#F0E7D5"/>
<path d="M7.30518 3.83839C8.07229 3.81403 7.67719 4.09279 7.7761 4.56593C7.76607 4.61943 7.75707 4.68559 7.73621 4.73446C7.57638 4.60218 7.99503 3.94825 7.47544 3.85845C7.3341 3.98272 7.47386 4.46345 7.35987 4.60132L7.31497 4.56738C7.31836 4.42996 7.33621 3.95278 7.30526 3.85174L7.30518 3.83839Z" fill="#F0E7D5"/>
<path d="M15.8311 11.0143C16.0219 10.9866 16.57 10.9452 16.6599 11.1388C16.6499 11.1866 16.5459 11.311 16.5271 11.317C16.352 11.3725 16.3627 11.2898 16.1585 11.3804C16.1328 11.3803 16.1118 11.3736 16.0868 11.3675C16.1895 11.2944 16.3096 11.3057 16.2723 11.0791C16.1887 10.9899 15.99 11.0247 15.8311 11.0143Z" fill="#F0E7D5"/>
<path d="M27.3384 7.87054C27.4314 7.88172 27.7156 7.91341 27.7875 7.94433C27.8474 8.05157 27.7955 8.14256 27.7104 8.21212C27.6141 8.23811 27.4608 8.22316 27.428 8.26151C27.4753 8.29112 27.4934 8.29811 27.5456 8.31792L27.4124 8.32071L27.3939 8.30533C27.3523 8.20659 27.446 8.10874 27.4421 7.97831C27.4044 7.9003 27.4163 7.92333 27.3384 7.87054Z" fill="#F0E7D5"/>
<path d="M8.58274 16.3174C8.38214 16.2658 7.88111 16.3495 7.78761 16.2727C7.77601 16.1939 7.78472 16.15 7.84527 16.0998C7.99049 16.1124 8.09684 16.1268 8.24049 16.1518L8.0708 16.1457C8.20952 16.2109 8.52971 16.1514 8.64451 16.2456L8.63543 16.3044C8.62284 16.3079 8.5941 16.317 8.58274 16.3174Z" fill="#F0E7D5"/>
<path d="M15.3408 10.9653C15.5912 10.9829 16.5787 10.9353 16.6948 11.0281C16.7596 11.1966 16.6547 11.3196 16.6854 11.4247C16.6181 11.4273 16.5479 11.4232 16.4802 11.4206C16.3746 11.3938 16.2676 11.389 16.159 11.3805C16.3633 11.2898 16.3526 11.3725 16.5277 11.317C16.5465 11.311 16.6506 11.1866 16.6606 11.1388C16.5706 10.9453 16.0224 10.9866 15.8314 11.0143C15.6381 11.0268 15.4745 10.969 15.3728 11.0625C15.354 11.1265 15.3597 11.1635 15.3632 11.2287C15.3635 11.2839 15.3663 11.3677 15.3622 11.4199L15.3443 11.4257L15.3408 10.9653Z" fill="#F0E7D5"/>
<path d="M24.2853 4.29718C24.2726 4.03079 24.2939 3.69481 24.3482 3.43536C24.3726 3.46098 24.4009 3.7213 24.4089 3.77762C24.4677 3.81906 24.5723 3.78927 24.7039 3.87148C24.7107 3.99129 24.7098 4.07098 24.7055 4.18976C24.6299 4.30204 24.7379 4.56811 24.6524 4.64301C24.5596 4.50234 24.7312 4.03025 24.5387 3.90778C24.5007 3.90899 24.4452 3.91076 24.4058 3.91199C24.4058 3.91199 24.356 3.88053 24.3517 3.87778C24.3411 3.88766 24.3304 3.89755 24.3197 3.90741C24.2986 4.03243 24.3079 4.1913 24.2853 4.29718Z" fill="#F0E7D5"/>
<path d="M5.57055 3.4047C5.66876 3.40341 5.87884 3.43581 5.95169 3.40903C5.94843 3.47176 5.9447 3.53447 5.94052 3.59717C5.92769 3.64911 5.92004 3.72643 5.88646 3.75243C5.84452 3.68145 5.8213 3.60687 5.76329 3.57088C5.69015 3.60301 5.7172 3.60359 5.65726 3.58121C5.63939 3.54454 5.64021 3.56236 5.64945 3.52672L5.66436 3.51667L5.65981 3.52664C5.60766 3.64284 5.58771 3.72692 5.5823 3.85421C5.58107 4.12633 5.58191 4.40154 5.57732 4.67336L5.55696 4.66649C5.54091 4.42814 5.53983 3.62149 5.57055 3.4047Z" fill="#F0E7D5"/>
<path d="M21.2139 14.5489C21.3328 14.4585 21.2174 14.367 21.2905 14.2318C21.3986 14.1704 21.3863 14.2351 21.4937 14.1918C21.5121 14.1844 21.5009 14.1383 21.5621 14.1221L21.5892 14.1573L21.5976 14.1712L21.5919 14.2772L21.5591 14.2887C21.5449 14.3913 21.5634 14.4874 21.5242 14.5462C21.4172 14.5639 21.3205 14.5501 21.2348 14.5912C21.2143 14.5634 21.2149 14.5753 21.2139 14.5489Z" fill="#F0E7D5"/>
<path d="M29.2116 9.70099C29.2446 9.73891 29.2471 9.74453 29.2598 9.79325C29.3577 9.85956 29.4713 9.75244 29.5465 9.87016C29.5445 10.0146 29.5215 10.0182 29.6111 10.1275L29.6171 10.1713C29.5174 10.1209 29.3344 10.1229 29.2202 10.1192C29.2198 10.009 29.2233 9.88312 29.2061 9.77566L29.2116 9.70099Z" fill="#F0E7D5"/>
<path d="M5.92581 9.42114C5.95875 9.53713 6.00588 10.1 5.83477 10.1083C5.71014 10.1145 5.62673 10.0762 5.50703 10.1143L5.49951 10.0907L5.52577 10.0698C5.59422 10.0537 5.63893 9.93201 5.6928 9.86569C5.76698 9.77433 5.73785 9.83893 5.88661 9.81756C5.90906 9.77757 5.91242 9.72714 5.91962 9.68057L5.92581 9.42114Z" fill="#F0E7D5"/>
<path d="M26.5146 10.0954C26.5378 10.0407 26.5399 10.004 26.587 9.99003C26.7813 9.93271 27.004 10.0161 27.1955 10.0276C27.2931 10.0335 27.4336 9.92912 27.5101 10.0016C27.5124 10.0038 27.5511 10.0292 27.5595 10.0353C27.5296 10.0953 27.5023 10.0748 27.4611 10.1254C27.096 10.0763 26.8834 10.0885 26.5146 10.0954Z" fill="#F0E7D5"/>
<path d="M5.9129 8.34732C5.93818 8.42626 5.91036 8.65353 5.92153 8.77501L5.87582 8.75793L5.60938 8.77924C5.82117 8.65841 5.62842 8.54522 5.70426 8.38182C5.75623 8.33758 5.84109 8.34765 5.9129 8.34732Z" fill="#F0E7D5"/>
<path d="M7.78906 6.6944C7.92468 6.70151 8.15671 6.69345 8.25388 6.77815C8.28329 6.84378 8.29003 6.87199 8.23758 6.93298L8.08189 6.93073C7.84591 6.90684 7.86329 6.91311 7.78906 6.6944Z" fill="#F0E7D5"/>
<path d="M29.7124 13.2104C29.7175 13.1366 29.7063 13.1579 29.7444 13.1104C29.9358 13.0559 30.2468 13.0744 30.45 13.1159C30.4819 13.1224 30.486 13.1599 30.4944 13.1884L30.4928 13.2058C30.2327 13.2031 29.9725 13.2046 29.7124 13.2104Z" fill="#F0E7D5"/>
<path d="M5.9194 9.68059C5.91221 9.72716 5.90884 9.77759 5.8864 9.81758C5.73764 9.83895 5.76677 9.77435 5.69258 9.86571C5.63871 9.93203 5.594 10.0537 5.52556 10.0698L5.51172 9.97528C5.52802 9.86532 5.53535 9.80329 5.53896 9.69103L5.55376 9.65692C5.68409 9.68165 5.83384 9.65957 5.9194 9.68059Z" fill="#F0E7D5"/>
<path d="M7.72704 15.9165L7.78903 15.938C7.78895 16.0641 7.70373 16.2078 7.75043 16.3215C7.59 16.3068 7.47732 16.2806 7.33008 16.3454C7.35029 16.171 7.33502 16.1634 7.38087 15.9985C7.41109 16.101 7.42476 16.2185 7.54478 16.2195C7.63775 16.1711 7.71357 16.0119 7.71234 15.9214L7.72704 15.9165Z" fill="#F0E7D5"/>
<path d="M7.31944 15.9476C7.4674 15.9111 7.5604 15.9192 7.71246 15.9214C7.71369 16.0119 7.63787 16.1711 7.5449 16.2195C7.42488 16.2185 7.41121 16.101 7.381 15.9985C7.33514 16.1634 7.35041 16.171 7.3302 16.3454C7.31495 16.2369 7.3195 16.0629 7.31944 15.9476Z" fill="#F0E7D5"/>
<path d="M11.8306 9.67118C11.9226 9.53136 11.9363 9.60176 12.0902 9.56056C12.1652 9.47431 12.1529 8.98887 12.1589 8.84326C12.167 8.90975 12.182 9.14024 12.2154 9.18152C12.2165 9.25824 12.2181 9.62389 12.2291 9.67178C12.1476 9.66161 11.9406 9.67754 11.8306 9.67118Z" fill="#F0E7D5"/>
<path d="M5.58203 3.85423C5.58744 3.72694 5.60739 3.64286 5.65954 3.52666L5.66409 3.51669L5.64919 3.52674C5.63994 3.56238 5.63912 3.54456 5.657 3.58123C5.71693 3.60361 5.68988 3.60303 5.76302 3.5709C5.82103 3.60689 5.84425 3.68147 5.88619 3.75245C5.91977 3.72645 5.92742 3.64913 5.94025 3.59719C5.93896 3.6583 5.94021 3.80624 5.92606 3.85833L5.66017 3.86004L5.58203 3.85423Z" fill="#F0E7D5"/>
<path d="M23.3872 16.2773C23.4864 16.1921 24.1553 16.2026 24.2385 16.2597L24.2639 16.302L24.2607 16.3221C24.136 16.3233 23.484 16.3386 23.4044 16.3132L23.3872 16.2773Z" fill="#F0E7D5"/>
<path d="M21.1676 13.4426C21.1881 13.6703 21.1791 13.9155 21.2063 14.1338L21.2264 14.1617C21.3086 14.1385 21.4529 14.1043 21.505 14.0348L21.539 13.8985L21.5437 13.8242C21.5507 13.9057 21.5669 14.0453 21.5618 14.1221C21.5005 14.1384 21.5118 14.1844 21.4933 14.1918C21.3859 14.2351 21.3982 14.1704 21.2902 14.2318C21.217 14.367 21.3324 14.4585 21.2135 14.5489C21.1742 14.2748 21.1616 14.0439 21.1578 13.7688C21.1573 13.6527 21.1602 13.5585 21.1676 13.4426Z" fill="#F0E7D5"/>
<path d="M5.58213 3.85422L5.66027 3.86002C5.63846 4.12207 5.70687 4.53694 5.65933 4.71665L5.60035 4.76323L5.57715 4.67336C5.58174 4.40155 5.5809 4.12634 5.58213 3.85422Z" fill="#F0E7D5"/>
<path d="M5.64131 8.32031C5.72177 8.32509 5.83769 8.32776 5.91286 8.34734C5.84105 8.34767 5.75618 8.3376 5.70422 8.38184C5.62837 8.54524 5.82112 8.65842 5.60933 8.77926L5.55253 8.77048C5.55437 8.61802 5.53947 8.48753 5.55907 8.33303L5.64131 8.32031Z" fill="#F0E7D5"/>
<path d="M5.87591 8.75793L5.92162 8.77502L5.92718 9.16821C5.91316 9.21009 5.9118 9.21834 5.88723 9.25433L5.79363 9.20308C5.78695 8.98323 5.75804 8.93295 5.87591 8.75793Z" fill="#F0E7D5"/>
<path d="M2.81376 12.7801C2.8062 12.531 2.79929 11.8366 2.82891 11.6011C2.84408 11.7576 2.85215 13.009 2.81927 13.1523L2.73988 13.1542C2.67515 12.9938 2.80827 13.0391 2.81362 12.79L2.81376 12.7801Z" fill="#F0E7D5"/>
<path d="M12.3978 8.28456L12.3489 8.27047L12.3403 8.24483C12.4566 8.19488 12.5035 8.16459 12.6267 8.20052L12.6496 8.18897L12.647 8.15971L12.5581 8.13627C12.5962 8.10708 12.6317 8.11438 12.682 8.11475C12.8085 8.23046 12.8665 8.22849 12.8907 8.25029C12.821 8.27289 12.8061 8.27797 12.7313 8.28294C12.638 8.29042 12.4949 8.28517 12.3978 8.28456Z" fill="#F0E7D5"/>
<path d="M15.3628 11.2287C15.3749 11.1669 15.377 11.1185 15.4175 11.0725C15.4629 11.137 15.4485 11.3074 15.4266 11.3825C15.5237 11.3975 15.561 11.4003 15.659 11.3988C15.7958 11.3945 16.1229 11.3736 16.2339 11.4185C15.9878 11.4245 15.5978 11.4341 15.3618 11.4199C15.366 11.3677 15.3632 11.2839 15.3628 11.2287Z" fill="#F0E7D5"/>
<path d="M16.7158 17.5826C16.7326 17.487 16.7183 17.3995 16.7456 17.2834L16.7679 17.308C16.8928 17.6773 16.7103 17.6715 17.133 17.7047C16.9759 17.7374 16.8845 17.724 16.7293 17.6968C16.7196 17.6615 16.7184 17.6198 16.7158 17.5826Z" fill="#F0E7D5"/>
<path d="M9.91943 6.53995C10.0979 6.53038 10.2683 6.52978 10.4466 6.52902C10.5624 6.56136 10.7044 6.55345 10.8253 6.55398C10.6233 6.58417 10.0816 6.65974 9.91943 6.53995Z" fill="#F0E7D5"/>
<path d="M8.71404 7.3053L8.73763 7.30179C8.77195 7.43132 8.79316 7.67105 8.77822 7.80546C8.74056 7.85166 8.76012 7.83704 8.70028 7.8581C8.68649 7.70955 8.68585 7.49419 8.68066 7.34034L8.71404 7.3053Z" fill="#F0E7D5"/>
<path d="M19.8257 6.96362C19.8433 6.84745 19.8172 6.62808 19.857 6.54297L19.9429 6.57205C19.9934 6.71212 19.9465 6.83773 19.8703 6.95796L19.8257 6.96362Z" fill="#F0E7D5"/>
<path d="M2.41017 10.1377L2.414 10.1216C2.43743 10.0191 2.40963 9.79881 2.46324 9.75113C2.50514 9.88628 2.49634 9.95703 2.48974 10.1001C2.56735 10.1007 2.74701 10.0976 2.81521 10.1111L2.81127 10.1392C2.70127 10.1681 2.4626 10.1194 2.40332 10.1558L2.41017 10.1377Z" fill="#F0E7D5"/>
<path d="M26.0727 8.36084C26.2012 8.44127 26.1219 8.59334 26.1905 8.73755C26.2244 8.7575 26.2436 8.76933 26.2797 8.78443C26.1809 8.7799 26.1516 8.77116 26.0557 8.7436L26.0727 8.36084Z" fill="#F0E7D5"/>
<path d="M21.5976 14.1713L21.6948 14.1682C21.695 14.2755 21.6774 14.4822 21.6481 14.5848C21.5728 14.5572 21.5921 14.3549 21.5919 14.2773L21.5976 14.1713Z" fill="#F0E7D5"/>
<path d="M5.46039 10.0871C5.36806 10.0299 5.18984 10.066 5.1084 10.0283L5.1191 9.99795C5.20823 9.94469 5.39182 9.97656 5.51169 9.97527L5.52553 10.0698L5.49927 10.0907L5.46039 10.0871Z" fill="#F0E7D5"/>
<path d="M7.77292 14.4718C7.87261 14.4671 8.12774 14.4518 8.21621 14.4848L8.21137 14.5079C8.11632 14.5033 7.81621 14.48 7.74886 14.519L7.75433 14.5443C7.65866 14.5532 7.52271 14.5685 7.42969 14.5544L7.43571 14.5281C7.55004 14.5053 7.65766 14.497 7.77292 14.4718Z" fill="#F0E7D5"/>
<path d="M24.1282 6.5661L24.1783 6.56384L24.2006 6.59948L24.192 6.6366C24.0846 6.68787 24.0013 6.64101 23.8905 6.65617C23.8747 6.6583 23.84 6.71406 23.7687 6.71894L23.7445 6.69733L23.7972 6.68344L23.8093 6.65693L23.7734 6.63016L23.7923 6.6099C23.7238 6.61392 23.6963 6.62832 23.6479 6.59741C23.7566 6.56237 23.8767 6.63168 23.9893 6.59891C24.0319 6.58654 24.084 6.57736 24.1282 6.5661Z" fill="#F0E7D5"/>
<path d="M29.2197 12.8245L29.3186 12.7987C29.3132 12.8931 29.3099 13.1844 29.2675 13.2519C29.2064 13.1515 29.2159 12.9436 29.2197 12.8245Z" fill="#F0E7D5"/>
<path d="M22.2935 11.3447L22.314 11.3434C22.5505 11.327 22.4419 11.2294 22.7061 11.3407C22.6661 11.3434 22.5577 11.3442 22.5325 11.3624L22.4857 11.3602L22.4837 11.3633C22.5612 11.3729 22.7528 11.3847 22.81 11.4197L22.4689 11.4193C22.414 11.4005 22.3408 11.3839 22.2832 11.3692L22.2935 11.3447Z" fill="#F0E7D5"/>
<path d="M24.7316 3.74635C24.7465 3.68745 24.7517 3.65761 24.7828 3.60368L24.7935 3.5982L24.7787 3.6165L24.8093 3.59607C24.8345 3.66258 24.8558 3.7878 24.8168 3.85C24.7941 3.85069 24.7297 3.86605 24.7041 3.87147L24.7316 3.74635Z" fill="#F0E7D5"/>
<path d="M15.4268 11.3825C15.5843 11.2909 15.7022 11.3323 15.8734 11.3728C15.8011 11.3792 15.7301 11.3837 15.6591 11.3988C15.5612 11.4004 15.5238 11.3975 15.4268 11.3825Z" fill="#F0E7D5"/>
<path d="M29.7007 11.3503C29.8036 11.3438 30.0043 11.3125 30.075 11.3737L30.0463 11.3949C29.9454 11.3999 29.8042 11.4151 29.7107 11.3887L29.7007 11.3503Z" fill="#F0E7D5"/>
<path d="M19.9961 9.68424C20.0062 9.65641 20.0187 9.62907 20.0306 9.60186C20.1066 9.56945 20.1789 9.55594 20.2445 9.62136C20.1761 9.69919 20.0996 9.68221 19.9961 9.68424Z" fill="#F0E7D5"/>
<path d="M23.395 4.90319L23.4504 4.88062C23.5127 4.94056 23.4952 5.0204 23.4731 5.09361L23.4428 5.11898C23.3962 5.0869 23.4112 5.10165 23.3911 5.03711L23.395 4.90319Z" fill="#F0E7D5"/>
</svg>
