<svg width="33" height="26" viewBox="0 0 33 26" fill="none" xmlns="http://www.w3.org/2000/svg">
<path d="M16.0493 16.1062C16.8076 16.0665 17.8992 16.0982 18.6788 16.0938L18.6942 16.2035C18.6754 16.4607 18.674 16.749 18.6787 17.0076C18.6893 17.5782 18.6587 18.174 18.6893 18.743C18.6198 18.7618 17.969 18.7424 17.8348 18.7479C17.8357 18.6527 17.8369 18.6089 17.8198 18.5155C17.8191 18.1847 17.8161 17.8539 17.8108 17.5231L17.8207 17.5088C17.7638 17.4705 17.4347 17.4897 17.3529 17.5015C16.9422 17.5319 16.4893 17.51 16.0778 17.4913L16.0659 17.448C16.0462 17.0089 16.0561 16.5491 16.0493 16.1062Z" fill="#F0E7D5"/>
<path d="M14.7679 17.9501L14.7817 17.8924C14.9308 17.8243 15.5077 17.8575 15.6847 17.8888C15.6545 18.146 15.6921 18.8277 15.6884 19.1405C15.7897 19.1373 15.9979 19.1363 16.0888 19.1181C16.2617 19.0803 17.2038 19.0857 17.3826 19.1145L17.4224 19.1406C17.425 19.3918 17.411 20.2226 17.4399 20.4151L17.3029 20.4468L17.2343 20.4455C17.0349 20.427 16.5894 20.4379 16.3819 20.4398C15.8487 20.4474 15.3154 20.4498 14.7821 20.4471L14.7603 20.4301C14.8021 19.743 14.7746 18.6564 14.7679 17.9501Z" fill="#F0E7D5"/>
<path d="M16.284 18.8407C16.3715 18.8382 17.1331 18.8609 17.1584 18.8827L17.1333 18.9328C16.9498 18.8337 16.4253 19.0137 16.2788 18.8965L16.284 18.8407Z" fill="#F0E7D5"/>
<path d="M16.9185 17.734C17.0361 17.7234 17.0853 17.7128 17.1964 17.7487L17.2062 17.7819L17.1482 17.806C17.0739 17.7996 16.8849 17.798 16.8457 17.7584L16.9185 17.734Z" fill="#F0E7D5"/>
<path d="M18.6942 16.2035C18.7881 16.222 19.0244 16.2461 19.0715 16.2948C19.0666 16.3665 19.0394 16.5831 19.0651 16.6302C19.0672 16.5939 19.0999 16.5265 19.1149 16.4423C19.1269 16.9984 19.1323 17.5546 19.1311 18.1108C19.1309 18.2172 19.1342 18.6786 19.1168 18.7634L19.0467 18.8082C19.002 18.7791 18.8024 18.7854 18.6987 18.7693L18.6893 18.7431C18.6588 18.174 18.6893 17.5782 18.6788 17.0076C18.674 16.749 18.6755 16.4607 18.6942 16.2035Z" fill="#F0E7D5"/>
<path d="M14.4033 17.8458C14.4918 17.8484 14.5596 17.8529 14.6476 17.8396L14.7558 17.8778L14.7678 17.9502C14.7746 18.6564 14.802 19.743 14.7602 20.4301C14.6231 20.4316 14.486 20.4373 14.3493 20.4473C14.311 20.299 14.3323 18.0835 14.3617 17.8776L14.4033 17.8458Z" fill="#F0E7D5"/>
<path d="M13.9681 21.7955C14.1146 21.7719 15.3194 21.783 15.5666 21.7868C16.9808 21.8084 18.471 21.7447 19.8748 21.8265C19.847 21.8452 19.7556 21.8479 19.7149 21.8518C19.2521 21.9177 18.1432 21.8629 17.6189 21.8654L15.1948 21.8798C14.802 21.8812 14.1187 21.9089 13.7583 21.8345L13.9681 21.7955Z" fill="#F0E7D5"/>
<path d="M16.0749 17.851C16.0737 18.2797 16.0897 18.6944 16.0888 19.1181C15.9979 19.1364 15.7897 19.1373 15.6884 19.1405C15.6921 18.8277 15.6545 18.1461 15.6847 17.8888L15.7737 17.8652L15.862 17.8494C15.9471 17.8617 15.9918 17.8735 16.0749 17.851Z" fill="#F0E7D5"/>
<path d="M17.8197 18.5155C17.8368 18.6089 17.8355 18.6527 17.8346 18.7479C17.9689 18.7424 18.6196 18.7618 18.6891 18.743L18.6985 18.7693L18.7127 19.0516L18.6977 19.1172C18.5262 19.1395 17.9446 19.1699 17.7837 19.1476L17.8123 19.0765C17.8337 19.0466 17.8103 18.6103 17.8197 18.5155Z" fill="#F0E7D5"/>
<path d="M14.7456 17.5123C14.87 17.4798 15.5139 17.4837 15.6907 17.4784L15.6545 17.5393L15.6691 17.5582C15.6598 17.6618 15.6444 17.7355 15.6823 17.8317C15.7207 17.8576 15.7261 17.865 15.7736 17.8651L15.6845 17.8888C15.5076 17.8575 14.9306 17.8243 14.7815 17.8924L14.7677 17.9502L14.7557 17.8778C14.763 17.7287 14.7664 17.6637 14.7456 17.5123Z" fill="#F0E7D5"/>
<path d="M14.799 20.6162C15.1732 20.6335 15.9688 20.666 16.3258 20.6441C16.4748 20.647 17.1538 20.6627 17.2649 20.6325C17.3312 20.6922 17.325 20.6687 17.3393 20.7403C17.2927 20.7661 14.9067 20.7904 14.7486 20.7527C14.7474 20.6863 14.7614 20.6728 14.799 20.6162Z" fill="#F0E7D5"/>
<path d="M15.0776 14.7072C16.4328 14.6953 18.0485 14.6642 19.3947 14.7088C19.3201 14.7619 19.219 14.7638 19.1255 14.7744C17.93 14.7545 16.6661 14.7697 15.4655 14.7733C15.3218 14.7584 15.2548 14.7741 15.0929 14.7415L15.0776 14.7072Z" fill="#F0E7D5"/>
<path d="M14.7818 20.4471C15.3151 20.4498 15.8484 20.4474 16.3817 20.4398C16.5892 20.4379 17.0347 20.4269 17.234 20.4455C16.8737 20.5172 16.3809 20.4292 16.0076 20.4925L16.0082 20.5062L16.0925 20.5288L16.0228 20.5825C16.0813 20.6329 16.231 20.6215 16.3259 20.6441C15.9689 20.666 15.1732 20.6335 14.7991 20.6162C14.7672 20.5388 14.7662 20.5291 14.7818 20.4471Z" fill="#F0E7D5"/>
<path d="M17.3984 18.1865C17.5653 18.1001 17.3992 18.0052 17.5521 17.8785C17.694 17.9933 17.6432 18.077 17.6108 18.2444C17.6093 18.1769 17.6218 18.1101 17.5869 18.0671L17.5535 18.0926C17.5407 18.3579 17.5801 18.6539 17.5981 18.9206C17.6012 18.9658 17.6982 19.0128 17.7394 19.026L17.8123 19.0765L17.7837 19.1477L17.7663 19.1707L17.422 19.1406L17.3822 19.1145C17.3467 18.8818 17.3835 18.4359 17.3984 18.1865Z" fill="#F0E7D5"/>
<path d="M17.2343 20.4456L17.303 20.4469C17.2908 20.4944 17.2625 20.588 17.2653 20.6325C17.1542 20.6627 16.4751 20.647 16.3262 20.6441C16.2312 20.6215 16.0815 20.6329 16.0231 20.5825L16.0927 20.5289L16.0085 20.5062L16.0078 20.4926C16.3811 20.4292 16.8739 20.5173 17.2343 20.4456Z" fill="#F0E7D5"/>
<path d="M17.422 19.1406L17.7664 19.1707L17.761 19.3162L17.6877 19.3319C17.6726 19.3903 17.6582 19.4893 17.6223 19.5253L17.6001 19.4171L17.5733 19.4197C17.4386 19.7732 17.7219 20.0167 17.4886 20.393L17.4395 20.4151C17.4106 20.2226 17.4247 19.3918 17.422 19.1406Z" fill="#F0E7D5"/>
<path d="M17.4888 20.393C17.7221 20.0167 17.4388 19.7732 17.5735 19.4197L17.6003 19.4171L17.6225 19.5253C17.6584 19.4893 17.6728 19.3903 17.6879 19.3319L17.7612 19.3162C17.7471 19.5453 17.7863 20.2088 17.7446 20.37C17.6168 20.3972 17.5923 20.3788 17.4888 20.393Z" fill="#F0E7D5"/>
<path d="M17.3531 17.5015C17.4349 17.4897 17.7639 17.4706 17.8208 17.5088L17.8109 17.5231L17.7591 17.5378C17.7347 17.6465 17.7484 17.7555 17.7558 17.8666C17.6866 17.8656 17.6177 17.8593 17.5524 17.8785C17.3995 18.0052 17.5656 18.1001 17.3987 18.1865C17.3772 17.9837 17.3219 17.6876 17.3531 17.5015Z" fill="#F0E7D5"/>
<path d="M17.7554 17.8667C17.5652 18.2375 17.8026 18.5104 17.7393 19.026C17.6982 19.0128 17.6014 18.9658 17.5983 18.9206C17.5803 18.6539 17.5409 18.3579 17.5538 18.0926L17.5871 18.0671C17.622 18.1101 17.6095 18.1769 17.6109 18.2444C17.6433 18.077 17.6941 17.9934 17.5524 17.8785C17.6176 17.8593 17.6863 17.8656 17.7554 17.8667Z" fill="#F0E7D5"/>
<path d="M14.3491 20.4474C14.4859 20.4373 14.6229 20.4316 14.76 20.4301L14.7819 20.4471C14.7662 20.5291 14.7672 20.5388 14.7991 20.6162C14.7615 20.6727 14.7475 20.6863 14.7487 20.7527C14.639 20.7736 14.4841 20.8389 14.3943 20.7976C14.3428 20.7237 14.3549 20.5503 14.3491 20.4474Z" fill="#F0E7D5"/>
<path d="M17.7556 17.8666C17.7481 17.7555 17.7345 17.6464 17.7588 17.5378L17.8106 17.5231C17.8158 17.8539 17.8188 18.1847 17.8196 18.5155C17.8102 18.6103 17.8336 19.0466 17.8122 19.0765L17.7395 19.026C17.8028 18.5104 17.5654 18.2375 17.7556 17.8666Z" fill="#F0E7D5"/>
<path d="M15.6904 17.4784C15.8251 17.4604 15.9313 17.4545 16.0657 17.448L16.0776 17.4913L16.0745 17.851C15.9914 17.8735 15.9467 17.8617 15.8617 17.8493C15.8947 17.7604 15.8872 17.7912 15.8689 17.6925C15.8091 17.6104 15.7634 17.5986 15.6688 17.5582L15.6543 17.5392L15.6904 17.4784Z" fill="#F0E7D5"/>
<path d="M15.4652 14.7733C15.0999 14.8253 13.5885 14.7044 13.4067 14.7793C13.6383 14.7142 14.8112 14.6773 15.0774 14.7073L15.0927 14.7415C15.2545 14.7741 15.3215 14.7585 15.4652 14.7733Z" fill="#F0E7D5"/>
<path d="M18.6787 16.0938C18.8464 16.1028 18.9791 16.1134 19.1455 16.1346L19.1148 16.4423C19.0998 16.5265 19.067 16.594 19.0649 16.6302C19.0393 16.5831 19.0665 16.3665 19.0714 16.2948C19.0243 16.2461 18.7879 16.222 18.6941 16.2035L18.6787 16.0938Z" fill="#F0E7D5"/>
<path d="M24.7528 18.8532C24.8495 18.8336 24.8768 18.8294 24.9752 18.8297L25.0122 18.8798L25.0045 18.8359L25.0372 18.8712L25.0488 18.867C24.9441 18.9674 24.4822 18.9426 24.3288 18.9335C24.2175 18.9331 24.1678 18.9288 24.0576 18.9127L24.0648 18.8932C24.3028 18.8637 24.5131 18.8608 24.7528 18.8532Z" fill="#F0E7D5"/>
<path d="M14.3616 17.8776C14.3618 17.7519 14.3298 17.6055 14.4397 17.5361C14.5648 17.539 14.621 17.5308 14.7457 17.5123C14.7665 17.6637 14.7631 17.7287 14.7558 17.8778L14.6476 17.8396C14.5914 17.7612 14.6761 17.6108 14.4805 17.5444C14.3615 17.6161 14.3998 17.7192 14.4032 17.8458L14.3616 17.8776Z" fill="#F0E7D5"/>
<path d="M19.0466 18.8082L19.1167 18.7634C19.0908 18.9122 19.0951 18.9711 19.1022 19.1184C19.0118 19.1144 18.7714 19.0952 18.6978 19.1172L18.7127 19.0517C18.7496 19.0109 18.7717 18.988 18.8133 18.952L18.9719 18.9725C19.0315 18.9304 19.0233 18.894 19.0466 18.8082Z" fill="#F0E7D5"/>
<path d="M18.6987 18.7693C18.8025 18.7854 19.002 18.7791 19.0468 18.8082C19.0234 18.894 19.0317 18.9304 18.972 18.9725L18.8135 18.952C18.7719 18.988 18.7497 19.0109 18.7129 19.0517L18.6987 18.7693Z" fill="#F0E7D5"/>
<path d="M14.4031 17.8458C14.3996 17.7192 14.3614 17.6161 14.4804 17.5444C14.676 17.6108 14.5913 17.7612 14.6475 17.8396C14.5594 17.8529 14.4917 17.8484 14.4031 17.8458Z" fill="#F0E7D5"/>
<path d="M15.6688 17.5582C15.7631 17.5986 15.8087 17.6104 15.8685 17.6925C15.8867 17.7912 15.8942 17.7604 15.8612 17.8494L15.7731 17.8651C15.7257 17.865 15.7203 17.8576 15.682 17.8317C15.6442 17.7354 15.6595 17.6618 15.6688 17.5582Z" fill="#F0E7D5"/>
<path d="M19.3947 14.7088C19.4983 14.693 19.6451 14.7398 19.7515 14.7658C19.5329 14.7801 19.3442 14.7945 19.1255 14.7744C19.219 14.7638 19.3201 14.7619 19.3947 14.7088Z" fill="#F0E7D5"/>
<path d="M20.3915 22.101C20.5016 22.1876 20.4768 22.2612 20.474 22.3962L20.4842 22.5825L20.4814 23.4936C20.0618 23.466 19.544 23.4739 19.1171 23.4737L17.0078 23.4755L14.0635 23.4774C13.7064 23.4773 13.3131 23.4571 12.9665 23.4652C12.9701 23.0589 12.9719 22.5953 12.9565 22.1924C12.9934 22.1193 12.9699 22.1443 13.0622 22.1043C13.5279 22.1262 14.0508 22.1161 14.5205 22.118L17.1562 22.1242L19.2423 22.1203C19.5954 22.1183 20.0504 22.1277 20.3915 22.101Z" fill="#F0E7D5"/>
<path d="M19.1807 13.172C19.3909 13.1741 20.3277 13.1417 20.4418 13.1977L20.4863 13.2554L20.486 13.2889L20.4733 14.3246C20.468 14.4162 20.4835 14.4396 20.4337 14.4997L20.3619 14.517C19.7552 14.5563 18.9307 14.5274 18.3101 14.5268L14.4789 14.5303C14.2673 14.5309 13.1828 14.5039 13.0353 14.5392L12.9793 14.4852C12.9679 14.0448 12.9589 13.6318 12.98 13.1917C13.2216 13.1686 13.667 13.1762 13.9202 13.1765C14.5041 13.1819 15.0881 13.1811 15.672 13.1742C16.7715 13.206 18.0739 13.1869 19.1807 13.172Z" fill="#F0E7D5"/>
<path d="M16.0776 5.50614C16.3111 5.51635 17.2779 5.47557 17.3938 5.5559C17.4336 5.65241 17.4275 5.82416 17.4303 5.93405C17.392 7.12276 17.4049 8.37924 17.4115 9.56866C17.4136 9.93855 17.4013 10.7457 17.4283 11.0811C17.4111 11.2363 17.4206 11.3325 17.4309 11.487C16.9577 11.4979 16.5299 11.5075 16.057 11.4927C16.0744 10.8419 16.0588 10.1222 16.0589 9.46596C16.0473 8.146 16.0535 6.82594 16.0776 5.50614Z" fill="#F0E7D5"/>
<path d="M5.18078 13.1164C4.96632 13.1296 4.04403 13.1878 3.92324 13.1383C3.74682 13.0661 3.86907 11.6947 3.80478 11.5193C3.6717 11.4181 3.66991 11.2871 3.67831 11.1278C3.68627 10.9768 3.63596 10.2658 3.70479 10.1952L3.76614 10.1998C3.87008 10.3134 3.84275 10.4033 3.83546 10.5493C3.82024 10.8538 3.83105 11.1553 3.84417 11.4593C4.27001 11.4395 4.73918 11.5161 5.24279 11.4918C5.22287 11.833 5.38072 12.8685 5.24556 13.1311C5.37608 13.237 6.36898 13.1009 6.59939 13.1872C6.55813 13.4336 6.56921 14.2939 6.61111 14.5454C6.24933 14.5737 5.59524 14.5388 5.23755 14.5101C5.25604 14.0378 5.21424 13.5878 5.18078 13.1164ZM4.2704 12.9023C4.46453 12.9789 4.98001 12.946 5.17142 12.8561L5.17256 12.8273C5.08875 12.786 5.004 12.8032 4.90914 12.8109C4.76021 12.8141 4.11286 12.8188 4.01369 12.8707L4.00742 12.8793L4.04468 12.8885L4.00843 12.8843L4.06027 12.8741C4.10023 12.9126 4.1146 12.9045 4.18863 12.9042C4.21589 12.9039 4.24314 12.9032 4.2704 12.9023ZM5.48303 14.4083C5.68992 14.3414 5.62223 14.0017 5.56993 13.8375C5.56292 13.8156 5.46526 13.7902 5.4364 13.7821L5.43676 13.7932C5.44229 14.0039 5.33161 14.2378 5.38868 14.4138L5.48303 14.4083ZM4.79333 11.8812L4.93007 11.9003C4.97016 11.9082 5.04892 11.9108 5.0929 11.9136C5.16401 11.8763 5.14111 11.9004 5.17324 11.8145C5.16341 11.7087 5.15996 11.696 5.10203 11.6063C4.97854 11.5781 4.71773 11.7539 4.59536 11.7892C4.50991 11.8139 4.39067 11.8266 4.3011 11.8372C4.4921 11.9017 4.59852 11.8961 4.79333 11.8812Z" fill="#F0E7D5"/>
<path d="M4.90905 12.8109C5.00391 12.8032 5.08866 12.786 5.17247 12.8273L5.17133 12.8561C4.97992 12.946 4.46444 12.9789 4.27031 12.9023C4.24305 12.9033 4.2158 12.9039 4.18854 12.9042C4.1145 12.9045 4.10014 12.9126 4.06017 12.8741L4.00834 12.8843L4.04459 12.8885L4.00732 12.8793L4.0136 12.8707C4.11277 12.8188 4.76012 12.8141 4.90905 12.8109Z" fill="#F0E7D5"/>
<path d="M5.43619 13.7821C5.46505 13.7902 5.56271 13.8156 5.56971 13.8375C5.62202 14.0017 5.6897 14.3414 5.48281 14.4083L5.38847 14.4138C5.33139 14.2378 5.44207 14.0038 5.43655 13.7932L5.43619 13.7821Z" fill="#F0E7D5"/>
<path d="M4.30127 11.8372C4.39084 11.8266 4.51008 11.8139 4.59553 11.7892C4.7179 11.7539 4.9787 11.5781 5.10219 11.6063C5.16013 11.696 5.16358 11.7087 5.1734 11.8145C5.14127 11.9004 5.16417 11.8763 5.09307 11.9136C5.04908 11.9108 4.97033 11.9082 4.93024 11.9003C5.0253 11.8861 5.05046 11.8997 5.10684 11.8437L5.07758 11.8059C4.9216 11.7729 4.89875 11.7654 4.79349 11.8812C4.59869 11.8961 4.49226 11.9017 4.30127 11.8372Z" fill="#F0E7D5"/>
<path d="M4.79346 11.8812C4.89872 11.7655 4.92156 11.7729 5.07755 11.806L5.1068 11.8437C5.05042 11.8998 5.02527 11.8861 4.9302 11.9003L4.79346 11.8812Z" fill="#F0E7D5"/>
<path d="M10.0564 8.51849C10.5666 8.5709 10.8723 8.51728 11.3274 8.53749C11.3575 9.51388 11.3018 10.5335 11.3303 11.4939C10.8826 11.5011 10.4006 11.5127 9.95383 11.4831C9.96519 10.8623 9.9474 10.2349 9.95344 9.61415C9.95499 9.45551 9.9419 8.92733 9.9761 8.79294C9.9907 8.65868 9.97141 8.59345 10.0564 8.51849Z" fill="#F0E7D5"/>
<path d="M24.6263 16.0896C24.8145 16.0991 25.0305 16.105 25.214 16.1324C25.1812 16.3786 25.167 17.205 25.2632 17.4195C25.4747 17.6407 26.3214 17.3447 26.5517 17.5445C26.6458 17.7931 26.5589 18.3595 26.5916 18.6794L26.5613 18.7668C26.4062 18.8095 26.2913 18.7623 26.122 18.797L26.0374 18.8138C25.9454 18.8183 25.427 18.8293 25.3872 18.8616C25.5465 18.9187 25.8844 18.9135 26.06 18.9159C26.1215 18.9163 26.1705 18.9053 26.2306 18.895L26.3841 18.9412L26.3899 18.9598C26.4062 19.0116 26.4106 19.007 26.4145 19.0628L26.4568 19.0891C26.5053 19.0437 26.5224 18.9467 26.5421 18.878L26.5517 19.073C26.4606 19.2296 25.4151 19.0391 25.241 19.1992C25.2211 19.2902 25.2147 19.3399 25.2066 19.4327C25.1881 19.3023 25.197 19.1872 25.0609 19.1352C25.004 19.1571 25.0016 19.1586 24.9413 19.158L24.906 19.1023L25.2205 19.0949C25.167 18.6404 25.1811 17.9592 25.1954 17.4905C24.8512 17.5027 24.184 17.563 23.875 17.4906C23.8922 17.0982 23.9065 16.5156 23.8945 16.1288C24.0817 16.1257 24.2517 16.1264 24.4374 16.1002L24.6263 16.0896ZM26.2791 17.8131C25.9993 17.5476 26.2563 17.5841 25.7656 17.6014C25.7901 17.7483 25.7635 17.7489 25.8542 17.8227C25.9456 17.8516 26.1606 17.8158 26.2791 17.8131Z" fill="#F0E7D5"/>
<path d="M25.7656 17.6013C26.2563 17.5841 25.9993 17.5476 26.2791 17.8131C26.1606 17.8157 25.9456 17.8515 25.8542 17.8227C25.7634 17.7489 25.7901 17.7483 25.7656 17.6013ZM26.1635 17.7859C26.0416 17.7367 25.9866 17.7341 25.8532 17.76C25.9739 17.8138 26.0307 17.8133 26.1635 17.7859Z" fill="#F0E7D5"/>
<path d="M25.853 17.76C25.9864 17.7342 26.0414 17.7367 26.1633 17.7859C26.0305 17.8133 25.9737 17.8138 25.853 17.76Z" fill="#F0E7D5"/>
<path d="M22.1079 8.93581C22.4884 8.9175 23.0554 8.90184 23.4341 8.91364L23.4678 9.0281L23.472 11.1344C23.4667 11.2555 23.4558 11.3601 23.4846 11.4789C23.298 11.5407 22.3348 11.4903 22.0967 11.4792C22.1082 10.6499 22.0725 9.75981 22.1079 8.93581Z" fill="#F0E7D5"/>
<path d="M12.3282 14.8553C12.4084 14.8574 12.5565 14.8568 12.6308 14.8653C12.631 15.1341 12.6214 15.5034 12.6364 15.7645C12.3614 15.7837 11.7747 15.771 11.4807 15.7698C11.0383 15.7678 10.434 15.7933 10.015 15.7604C9.97211 15.7103 9.97162 15.6094 9.96129 15.5343C9.953 15.3379 9.95945 15.0942 9.95899 14.894C10.0102 14.8758 10.2892 14.8689 10.3672 14.8654L10.5672 14.86C11.1542 14.8664 11.7412 14.8648 12.3282 14.8553Z" fill="#F0E7D5"/>
<path d="M20.8512 14.8612C21.5262 14.8866 22.3841 14.8822 23.055 14.864C23.1712 14.865 23.3317 14.8712 23.4441 14.8632C23.4471 14.9686 23.4451 15.1251 23.4712 15.2229C23.4705 15.2739 23.4721 15.3598 23.4664 15.4072C23.4552 15.5349 23.4486 15.6312 23.4484 15.7608C22.7 15.7502 21.9477 15.7688 21.1987 15.7577C21.0943 15.7561 20.971 15.7606 20.8666 15.7711C20.8266 15.6596 20.8484 15.0129 20.8512 14.8612Z" fill="#F0E7D5"/>
<path d="M9.96259 20.8444C10.4409 20.8769 11.6502 20.8822 12.1584 20.8601L12.6261 20.8601L12.6294 21.6906C12.1456 21.7241 11.556 21.7002 11.0581 21.7092C10.8043 21.7139 10.1593 21.7233 9.93573 21.6918C9.94089 21.5892 9.93669 21.4702 9.93555 21.3661C9.95248 21.2191 9.95647 20.9952 9.96259 20.8444Z" fill="#F0E7D5"/>
<path d="M20.8393 20.8554C21.5271 20.8994 22.2796 20.8371 22.9722 20.8619C23.1261 20.8674 23.2604 20.8563 23.4172 20.8753C23.4567 20.9292 23.4563 21.0369 23.4627 21.1095C23.4646 21.2508 23.4606 21.5626 23.4778 21.6898C22.9366 21.702 22.3953 21.7064 21.8539 21.7029C21.599 21.701 21.0424 21.6774 20.8284 21.7159C20.8312 21.5538 20.8308 21.3917 20.8271 21.2296L20.8393 20.8554Z" fill="#F0E7D5"/>
<path d="M28.2726 13.1337C28.3341 13.1676 28.3463 13.1741 28.4145 13.1907C28.3738 13.2031 28.3735 13.2086 28.339 13.2343C28.2895 13.4136 28.2669 14.3142 28.2755 14.5116C27.859 14.5738 27.2605 14.5423 26.8354 14.5207C26.8837 14.231 26.7841 13.3337 26.8816 13.2089C27.1192 13.0705 28.1539 13.269 28.2726 13.1337ZM27.929 14.3573C27.942 14.267 27.9036 13.5359 27.8797 13.4453L27.8652 13.43C27.8582 13.5966 27.8121 14.251 27.8746 14.3677L27.929 14.3573Z" fill="#F0E7D5"/>
<path d="M27.8652 13.43L27.8797 13.4452C27.9035 13.5359 27.9418 14.2669 27.9289 14.3573L27.8745 14.3676C27.8122 14.251 27.8582 13.5966 27.8652 13.43Z" fill="#F0E7D5"/>
<path d="M23.9 7.16096C24.1722 7.14849 24.8939 7.08403 25.1473 7.22022C25.1966 7.24676 25.1952 7.40471 25.1967 7.47093C25.2011 7.80961 25.1969 8.14838 25.1843 8.48686C25.0793 8.59233 24.8182 8.57458 24.66 8.57646C24.5787 8.57738 24.4974 8.57788 24.4161 8.57801C24.3023 8.55948 24.0185 8.55095 23.8944 8.54442C23.9138 8.09447 23.8555 7.63313 23.9 7.16096ZM24.8585 8.47642C24.908 8.38426 24.92 8.06895 24.8783 7.97894C24.7853 8.11737 24.8318 8.3154 24.8585 8.47642Z" fill="#F0E7D5"/>
<path d="M24.878 7.97894C24.9196 8.06895 24.9076 8.38425 24.8581 8.47642C24.8315 8.31539 24.7852 8.11737 24.878 7.97894Z" fill="#F0E7D5"/>
<path d="M2.60859 10.1444C2.8571 10.1506 3.26341 10.1405 3.49224 10.176C3.61049 10.2572 3.47616 11.2381 3.54877 11.4261C3.55891 11.4523 3.55087 11.4519 3.53713 11.4761C3.42953 11.5178 3.25254 11.5057 3.13121 11.5049C2.7786 11.515 2.50613 11.5031 2.15918 11.4785C2.18253 11.2274 2.14496 10.2891 2.2391 10.1733C2.34812 10.1369 2.49078 10.1449 2.60859 10.1444Z" fill="#F0E7D5"/>
<path d="M30.1065 10.1669C30.4631 10.1348 30.9314 10.1621 31.2929 10.1795C31.3228 10.6216 31.3217 11.0501 31.3277 11.4927C31.0041 11.4988 30.3168 11.5249 30.0243 11.4922C29.9107 11.4271 30.0023 11.1303 29.9515 10.9526C29.9507 10.8269 29.9302 10.246 29.9875 10.1631C30.03 10.1684 30.0715 10.1805 30.1065 10.1669Z" fill="#F0E7D5"/>
<path d="M6.90271 17.8558C7.0597 17.8868 8.02857 17.8537 8.27119 17.8567C8.27435 17.9995 8.27342 18.2537 8.2945 18.3853L8.30721 18.84C8.29689 18.919 8.29165 19.0032 8.25835 19.075L8.19923 19.1854C8.04755 19.1953 7.7633 19.1505 7.595 19.1383C7.34107 19.12 7.20363 19.1323 6.94674 19.1564C6.93935 18.9466 6.90795 18.682 6.89579 18.4589C6.90118 18.2474 6.90253 18.0797 6.89062 17.8689L6.90271 17.8558ZM7.84681 18.8568L7.81068 18.8056C7.56925 18.7849 7.35183 18.8266 7.08966 18.7957L7.09803 18.854C7.20218 18.9235 7.65379 18.8969 7.7807 18.8722C7.80293 18.8679 7.82497 18.8627 7.84681 18.8568Z" fill="#F0E7D5"/>
<path d="M7.08984 18.7957C7.35202 18.8266 7.56944 18.7849 7.81087 18.8056L7.84699 18.8568C7.82516 18.8627 7.80312 18.8679 7.78089 18.8722C7.65398 18.8969 7.20236 18.9235 7.09822 18.854L7.08984 18.7957Z" fill="#F0E7D5"/>
<path d="M12.152 20.8495C12.2522 20.8454 12.5371 20.8282 12.6233 20.842C12.7489 20.8739 12.8387 20.8674 12.9669 20.8658C12.9862 21.1003 12.9797 21.2612 12.9698 21.4978L12.928 21.5704L12.8826 21.5766C12.7482 21.4189 12.8344 21.085 12.719 20.9756C12.6084 21.0872 12.6894 21.5724 12.6427 21.7186C12.6187 21.9435 12.6553 21.9872 12.6485 22.1301L12.5122 22.1539C12.3582 22.1222 12.2008 22.112 12.0437 22.1169C11.3552 22.1383 10.6654 22.1205 9.97701 22.1399L9.93555 21.6918C10.1591 21.7233 10.8041 21.7139 11.0579 21.7092C11.5558 21.7002 12.1454 21.7241 12.6292 21.6906L12.6259 20.8601L12.1582 20.8601L12.152 20.8495ZM11.7229 21.8957C11.8503 21.8902 12.0973 21.8932 12.1958 21.8322L12.1951 21.7914C12.0505 21.6908 11.2678 21.7318 11.0461 21.7453C10.8901 21.7545 10.7003 21.7496 10.5585 21.789L10.542 21.8136C10.7029 21.8632 11.502 21.8853 11.7229 21.8957Z" fill="#F0E7D5"/>
<path d="M11.0461 21.7453C11.2677 21.7318 12.0504 21.6908 12.195 21.7915L12.1958 21.8322C12.0972 21.8933 11.8502 21.8902 11.7228 21.8957C11.502 21.8853 10.7029 21.8632 10.542 21.8136L10.5585 21.789C10.7003 21.7496 10.8901 21.7545 11.0461 21.7453Z" fill="#F0E7D5"/>
<path d="M9.44471 7.13822L9.56598 7.12589C9.568 7.19713 9.56885 7.39437 9.57915 7.4552C9.5763 7.55341 9.56525 7.73838 9.5722 7.82989C9.57391 8.02525 9.56999 8.25932 9.59043 8.45008L9.559 8.56393L9.55358 8.57798C9.28383 8.55929 8.99219 8.58453 8.70605 8.568C8.72607 8.14126 8.69267 7.6452 8.71438 7.15976C8.91707 7.15981 9.25582 7.16979 9.44471 7.13822Z" fill="#F0E7D5"/>
<path d="M23.9023 19.104C24.1809 19.0869 24.5509 19.0867 24.8328 19.0985C24.8009 19.5471 24.7994 19.9972 24.8285 20.4459C24.574 20.4217 24.2147 20.444 23.9232 20.4232L23.9108 20.4027L23.8853 19.4643L23.8941 19.3159C23.8984 19.2915 23.9011 19.1382 23.9023 19.104Z" fill="#F0E7D5"/>
<path d="M9.04746 16.1221L9.56066 16.1241C9.55496 16.3424 9.5345 16.7977 9.56388 16.9993L9.5715 17.5137C9.38536 17.4848 8.91855 17.4973 8.71301 17.4982C8.69908 17.0382 8.69535 16.5779 8.70178 16.1177L9.04746 16.1221Z" fill="#F0E7D5"/>
<path d="M8.78628 19.0754C9.00168 19.1114 9.4374 19.0715 9.57056 19.1111C9.55433 19.5578 9.55448 20.005 9.571 20.4517L9.32057 20.4461C9.14737 20.452 8.8668 20.4599 8.70252 20.4433C8.68095 20.2691 8.67934 19.2418 8.72584 19.0986L8.78628 19.0754Z" fill="#F0E7D5"/>
<path d="M20.8105 21.2349L20.8269 21.2297C20.8305 21.3917 20.8309 21.5538 20.8281 21.7159C21.0422 21.6774 21.5988 21.7011 21.8537 21.703C22.395 21.7064 22.9364 21.702 23.4776 21.6898L23.4633 21.8766L23.4561 22.1182C23.2789 22.1321 23.0989 22.1091 22.936 22.1171C22.3968 22.1437 21.5874 22.0923 21.0733 22.1715C20.8715 22.1495 20.7776 22.1513 20.5737 22.1605C20.6434 22.1446 20.6915 22.1416 20.7426 22.0943L20.7951 22.0627C20.8168 21.9931 20.8058 21.3531 20.8105 21.2349Z" fill="#F0E7D5"/>
<path d="M29.5528 11.9283C29.5582 12.0168 29.5606 12.1475 29.5878 12.2277L29.5964 12.7697C29.2074 12.7599 28.8192 12.7771 28.4307 12.7741L28.3259 12.7544L28.2315 12.7986L28.223 12.8058C28.2181 12.5584 28.2059 12.1705 28.2401 11.9325C28.6501 11.9283 29.1534 11.9078 29.5528 11.9283Z" fill="#F0E7D5"/>
<path d="M20.8438 20.4395C21.518 20.4298 22.1924 20.4283 22.8666 20.4351C23.0607 20.4537 23.2459 20.4519 23.4407 20.4528C23.4416 20.511 23.4385 20.7516 23.4573 20.7884C23.4637 20.9032 23.4694 20.9936 23.4624 21.1095C23.456 21.0369 23.4564 20.9292 23.4169 20.8754C23.2602 20.8563 23.1259 20.8674 22.9719 20.8619C22.2793 20.8371 21.5269 20.8994 20.8391 20.8555L20.8269 21.2297L20.8106 21.2348C20.8105 21.1192 20.8278 21.0033 20.7714 20.9033L20.7417 20.8525L20.8069 20.832C20.8568 20.7355 20.7854 20.5855 20.8438 20.4395Z" fill="#F0E7D5"/>
<path d="M9.96116 15.5343C9.97148 15.6094 9.97198 15.7103 10.0149 15.7604C10.4338 15.7933 11.0381 15.7678 11.4805 15.7698C11.7745 15.771 12.3612 15.7837 12.6363 15.7645C12.7335 15.7576 12.8766 15.7653 12.9775 15.7677L12.9701 15.7859C12.9309 15.8849 12.9242 15.9611 12.9101 16.066C12.6435 16.1332 10.8611 16.1234 10.4816 16.1221C10.2228 16.1063 10.0561 16.2371 9.96733 15.9558C9.94138 15.8237 9.9553 15.6704 9.96116 15.5343Z" fill="#F0E7D5"/>
<path d="M17.4654 10.2576C17.4489 10.1018 17.4534 9.99925 17.4701 9.84368C17.5561 9.03979 17.4001 8.20624 17.5876 7.41583C17.6057 7.33961 17.5987 7.13427 17.598 7.04855C17.6195 7.1049 17.6399 7.40692 17.6444 7.47837C17.6736 7.44058 17.6744 7.30718 17.6792 7.24845C17.73 7.42294 17.7394 7.48052 17.7546 7.66123L17.7748 7.67156L17.8189 7.47811C17.8493 8.08282 17.8269 8.85484 17.8217 9.46914C17.7472 9.7169 17.6763 9.9553 17.6315 10.2131C17.5824 10.4959 17.72 10.687 17.5953 10.9997C17.5183 10.9187 17.5205 10.1521 17.5078 9.9861C17.4745 10.0414 17.4713 10.1855 17.4654 10.2576Z" fill="#F0E7D5"/>
<path d="M10.3916 20.45C10.6838 20.442 12.4538 20.4113 12.6491 20.4567C12.6458 20.5544 12.645 20.7548 12.6231 20.842C12.5369 20.8282 12.252 20.8454 12.1519 20.8495C11.9017 20.8466 10.6081 20.8654 10.4644 20.8163C10.4247 20.7443 10.439 20.5869 10.4401 20.4967L10.3916 20.45Z" fill="#F0E7D5"/>
<path d="M20.8261 15.7835L20.8422 15.7932L20.9166 15.812L20.9222 15.88C21.0625 15.9024 21.0933 15.9061 21.2324 15.8808C21.2299 15.859 21.2308 15.8365 21.2302 15.8145C21.4589 15.7658 23.244 15.7628 23.4307 15.8797C23.4433 15.844 23.454 15.8178 23.469 15.7829C23.5392 15.9854 23.6226 15.8765 23.7884 16.0616C23.6609 16.0374 23.6348 16.0101 23.5325 16.054C23.5168 16.0902 23.5016 16.1266 23.4869 16.1632C23.369 16.0284 21.2906 16.1955 20.972 16.1035C20.8518 16.0688 20.8902 16.1116 20.8154 15.9965L20.8261 15.7835Z" fill="#F0E7D5"/>
<path d="M14.388 12.9838C14.1224 12.9794 13.2665 13.0048 13.0724 12.9081L13.0664 12.9C13.1645 12.8756 13.7311 12.8716 13.8634 12.869C14.7639 12.8538 15.6646 12.8491 16.5652 12.8549C17.5093 12.8511 18.4533 12.8529 19.3972 12.8605C19.6415 12.8648 20.1429 12.8499 20.3522 12.883L20.3829 12.9068C20.3743 12.933 20.3663 12.9766 20.3357 12.9772C20.0124 12.9844 19.4032 12.9532 19.0999 12.9814C18.4917 12.9959 17.8447 12.9721 17.2325 12.9708C16.2813 12.9688 15.3393 12.9631 14.388 12.9838Z" fill="#F0E7D5"/>
<path d="M14.3882 12.9838C15.3394 12.9631 16.2814 12.9688 17.2327 12.9708C17.8449 12.9721 18.4918 12.9959 19.1001 12.9814C19.0244 13.0494 18.7181 13.045 18.5669 13.0891C18.5785 13.1 19.0666 13.1373 19.1653 13.1674L19.1806 13.172C18.0738 13.1869 16.7714 13.206 15.6718 13.1742C15.7289 13.1249 16.8741 13.1125 17.039 13.1047C16.474 12.9789 14.8408 13.2008 14.3882 12.9838Z" fill="#F0E7D5"/>
<path d="M8.24457 16.1184C8.48346 16.0922 8.80191 16.0964 9.04067 16.1024L9.04736 16.1221L8.70168 16.1177C8.69525 16.5779 8.69898 17.0382 8.71291 17.4983C8.55467 17.5007 8.41372 17.4938 8.25115 17.5012L8.22035 17.5131C8.13643 17.4667 8.05334 17.4711 7.95752 17.4661C8.20336 17.4396 8.22665 17.4676 8.24091 17.2072C8.26083 16.8439 8.25022 16.4819 8.24457 16.1184Z" fill="#F0E7D5"/>
<path d="M13.8285 23.6261C15.4951 23.6074 17.1693 23.6407 18.8364 23.6287C19.2867 23.6254 19.7877 23.6143 20.2306 23.6639L20.2134 23.6828C19.9773 23.7223 19.7502 23.7163 19.5115 23.7168C18.8945 23.7181 13.2397 23.7606 13.0522 23.6845C13.1217 23.6224 13.7015 23.6283 13.8285 23.6261Z" fill="#F0E7D5"/>
<path d="M8.25664 7.17866C8.59804 7.10929 9.10108 7.10436 9.44438 7.13823C9.25548 7.1698 8.91673 7.15982 8.71404 7.15977C8.69233 7.64521 8.72574 8.14127 8.70572 8.56801C8.55134 8.55823 8.38739 8.54109 8.23242 8.52731C8.28659 8.2717 8.25615 7.48545 8.25664 7.17866Z" fill="#F0E7D5"/>
<path d="M10.4332 14.4951C10.9337 14.4942 11.4335 14.4925 11.9338 14.4881C12.2427 14.4854 12.6884 14.4375 12.9791 14.4852L13.0351 14.5393L12.9952 14.5779C12.9043 14.5956 12.9228 14.5778 12.8756 14.6339C12.7504 14.61 12.7753 14.5963 12.6718 14.6364C12.6358 14.709 12.6413 14.7866 12.6807 14.8596L12.6308 14.8653C12.5564 14.8568 12.4083 14.8574 12.3281 14.8553C12.3362 14.8439 12.3425 14.8185 12.3473 14.8037L12.3051 14.7489C12.0608 14.6229 10.7868 14.7404 10.4543 14.7746L10.4394 14.8078L10.5671 14.86L10.3672 14.8654C10.3852 14.7414 10.4072 14.6178 10.4332 14.4951Z" fill="#F0E7D5"/>
<path d="M8.19922 19.1854L8.25834 19.075C8.346 19.1618 8.59246 19.0962 8.72567 19.0986C8.67918 19.2418 8.68078 20.2691 8.70236 20.4433C8.57729 20.428 8.3405 20.4262 8.20702 20.4216C8.30048 19.8006 8.19992 19.7347 8.19922 19.1854Z" fill="#F0E7D5"/>
<path d="M23.4482 14.5447C23.6312 14.398 23.8839 14.294 23.9648 14.5907L23.9637 14.5271C24.0134 14.7067 23.9933 14.8033 23.9471 14.9837L23.9452 14.9092C23.9173 15.0658 23.862 15.2211 23.9434 15.3457C24.0898 15.4119 24.1374 15.3555 24.2176 15.4266C24.2302 15.5449 24.222 15.7293 24.2806 15.8105C24.4347 15.8505 24.4655 15.7779 24.5708 15.8437C24.5947 15.9495 24.5407 16.0442 24.4264 16.0554C24.4886 16.0636 24.5682 16.0707 24.6264 16.0895L24.4374 16.1001C24.2424 16.0999 24.0601 16.1029 23.866 16.082C23.8479 15.9269 23.8269 15.7744 23.8135 15.618C23.7949 15.3987 23.8793 14.9806 23.7841 14.8L23.7425 14.792C23.6936 14.8218 23.6757 14.8195 23.6184 14.8256L23.599 14.8275C23.5961 14.7311 23.5962 14.6887 23.6084 14.5933C23.66 14.5814 23.6952 14.5701 23.7454 14.5534C23.6889 14.5196 23.6678 14.5227 23.5997 14.5157C23.4821 14.6066 23.5987 14.6631 23.4689 14.8079C23.4463 14.7367 23.4498 14.6229 23.4482 14.5447Z" fill="#F0E7D5"/>
<path d="M28.2684 11.4955C28.6963 11.4998 29.1408 11.4598 29.5573 11.4746L29.5855 11.5191C29.5918 11.7485 29.6021 12.0002 29.5879 12.2277C29.5606 12.1475 29.5583 12.0168 29.5529 11.9282C29.1535 11.9078 28.6501 11.9282 28.2402 11.9325L28.2373 11.8093L28.2684 11.4955Z" fill="#F0E7D5"/>
<path d="M23.4867 16.1632C23.5013 16.1266 23.5165 16.0902 23.5322 16.054C23.6346 16.0101 23.6607 16.0374 23.7882 16.0616L23.8656 16.082C24.0597 16.1029 24.2419 16.0999 24.437 16.1001C24.2513 16.1264 24.0813 16.1257 23.8941 16.1288C23.9061 16.5155 23.8918 17.0982 23.8746 17.4906C23.7705 17.4809 23.5825 17.4797 23.4727 17.4759C23.5324 17.1636 23.4802 16.5307 23.4867 16.1632ZM23.7594 17.4108L23.8353 17.3794C23.8565 17.2846 23.8654 16.3322 23.8503 16.2275L23.8367 16.2141C23.8051 16.3107 23.7327 16.3787 23.7369 16.4722C23.747 16.7009 23.6578 17.2153 23.7594 17.4108Z" fill="#F0E7D5"/>
<path d="M23.8366 16.2141L23.8502 16.2275C23.8652 16.3322 23.8563 17.2846 23.8352 17.3794L23.7595 17.4108C23.658 17.2153 23.7471 16.7009 23.737 16.4722C23.7328 16.3787 23.805 16.3107 23.8366 16.2141Z" fill="#F0E7D5"/>
<path d="M21.4869 14.5048C21.8024 14.4786 22.2428 14.5032 22.5721 14.4951C22.7886 14.4897 23.209 14.4672 23.4048 14.4813C23.4293 14.5052 23.443 14.5121 23.4479 14.5447C23.4494 14.6229 23.446 14.7367 23.4685 14.8079L23.4696 14.828C23.4791 14.9817 23.4847 15.0676 23.4712 15.2229C23.4451 15.1251 23.4471 14.9686 23.4441 14.8632C23.3317 14.8712 23.1712 14.865 23.0549 14.864L23.0372 14.8511L23.0766 14.8244C23.0962 14.7357 23.099 14.7721 23.0654 14.6869L23.0205 14.6686L22.9422 14.734C22.7917 14.7584 22.5179 14.7367 22.3538 14.7327C22.087 14.7262 21.4804 14.8461 21.3277 14.6066C21.3229 14.5522 21.3179 14.5772 21.3423 14.5288L21.4869 14.5048Z" fill="#F0E7D5"/>
<path d="M23.4925 8.50593C23.4859 8.31347 23.4838 7.29681 23.5722 7.19794C23.6649 7.1484 23.7914 7.16056 23.8999 7.16097C23.8554 7.63313 23.9137 8.09448 23.8943 8.54443C23.8459 8.53925 23.5581 8.55925 23.4736 8.55849L23.468 9.02809L23.4343 8.91363C23.443 8.82096 23.473 8.65259 23.4305 8.57873C23.3387 8.51419 23.3093 8.53371 23.1807 8.52736C23.2683 8.51606 23.4009 8.51177 23.4925 8.50593ZM23.7607 8.45053L23.8487 8.46848C23.8677 8.38614 23.8701 7.3123 23.8445 7.2522C23.6666 7.37983 23.7022 7.61482 23.7143 7.80942C23.7265 8.00698 23.7176 8.26036 23.7607 8.45053Z" fill="#F0E7D5"/>
<path d="M23.8442 7.2522C23.8697 7.3123 23.8674 8.38614 23.8484 8.46848L23.7606 8.45053C23.7175 8.26036 23.7264 8.00698 23.7142 7.80942C23.7022 7.61483 23.6667 7.37984 23.8442 7.2522Z" fill="#F0E7D5"/>
<path d="M9.57066 19.1111L9.91105 19.1329C9.8188 19.1458 9.79292 19.1334 9.73247 19.1855C9.78154 19.2378 9.93363 19.2617 10.0055 19.2639C9.96024 19.4351 9.97349 20.2845 10.047 20.4274L10.0035 20.4451C9.85832 20.4513 9.71627 20.4512 9.5711 20.4517C9.55458 20.005 9.55442 19.5578 9.57066 19.1111Z" fill="#F0E7D5"/>
<path d="M6.93044 17.4863C7.27293 17.4946 7.61563 17.4879 7.9575 17.4661C8.05332 17.4711 8.1364 17.4667 8.22032 17.5131L8.25113 17.5012C8.28917 17.6629 8.30136 17.924 8.29962 18.0921L8.29449 18.3853C8.27341 18.2537 8.27434 17.9995 8.27118 17.8567C8.02855 17.8536 7.05969 17.8868 6.90269 17.8558C6.89943 17.7514 6.91983 17.5942 6.93044 17.4863Z" fill="#F0E7D5"/>
<path d="M17.4301 5.93405C17.4658 6.28221 17.4348 6.67914 17.4641 7.04903C17.5147 6.88234 17.5461 6.76732 17.5527 6.5906C17.6372 6.38435 17.6135 6.12765 17.7287 5.98486C17.7914 6.06842 17.7886 6.42693 17.7897 6.54018C17.7331 6.34177 17.7443 6.16028 17.7109 5.96371C17.6763 6.33345 17.6381 6.88422 17.6792 7.24847C17.6744 7.3072 17.6736 7.4406 17.6444 7.47838C17.6399 7.40694 17.6195 7.10491 17.5981 7.04857C17.5987 7.13429 17.6057 7.33963 17.5876 7.41585C17.4001 8.20626 17.5561 9.03981 17.4701 9.8437C17.4534 9.99927 17.4489 10.1018 17.4654 10.2576C17.4611 10.4044 17.4518 10.9713 17.4281 11.0811C17.4011 10.7457 17.4134 9.93856 17.4114 9.56867C17.4047 8.37924 17.3918 7.12276 17.4301 5.93405Z" fill="#F0E7D5"/>
<path d="M24.8332 19.0985L24.906 19.1023L24.9413 19.158C25.0016 19.1586 25.004 19.1571 25.0609 19.1352C25.197 19.1872 25.1881 19.3022 25.2066 19.4327C25.2091 19.7359 25.1978 20.152 25.2182 20.4447L24.8289 20.4459C24.7998 19.9972 24.8013 19.5471 24.8332 19.0985Z" fill="#F0E7D5"/>
<path d="M22.1178 8.54609C22.4374 8.57315 22.8562 8.54728 23.1804 8.52737C23.3091 8.53372 23.3385 8.5142 23.4303 8.57874C23.4728 8.6526 23.4428 8.82097 23.4341 8.91364C23.0554 8.90184 22.4884 8.9175 22.1079 8.93581C22.1081 8.81084 22.1145 8.6721 22.1178 8.54609Z" fill="#F0E7D5"/>
<path d="M23.9023 19.104C23.9011 19.1382 23.8984 19.2915 23.894 19.3159L23.8735 19.236L23.8247 19.2158C23.6548 19.3377 23.7638 19.5884 23.8459 19.7361L23.8473 19.7477C23.8555 19.6676 23.8647 19.5371 23.8852 19.4643L23.9107 20.4027C23.7723 20.3907 23.6254 20.4945 23.5108 20.39C23.486 20.3035 23.492 20.218 23.4925 20.128C23.4851 19.8532 23.531 19.3972 23.4912 19.1598C23.6254 19.1473 23.7734 19.1388 23.9023 19.104Z" fill="#F0E7D5"/>
<path d="M29.7892 10.1752L29.8517 10.2171L29.8502 10.2329C29.8336 10.4153 29.8188 11.2442 29.8665 11.3959L29.8948 11.4095C29.9993 11.2488 29.9145 11.1016 29.951 10.9526C30.0019 11.1303 29.9103 11.4271 30.0239 11.4922L29.9578 11.5121C29.9194 11.5868 29.9308 11.7136 29.9313 11.803C29.8771 11.9984 29.8719 12.0809 29.7368 12.232C29.7171 12.02 29.7013 11.7443 29.6461 11.5451L29.5854 11.5192L29.5571 11.4746C29.6775 11.3078 29.5745 10.589 29.6404 10.3549C29.6826 10.204 29.6437 10.2494 29.7892 10.1752Z" fill="#F0E7D5"/>
<path d="M23.5985 14.8275L23.6179 14.8256C23.6752 14.8195 23.6931 14.8218 23.7421 14.792L23.7836 14.8C23.8789 14.9806 23.7944 15.3987 23.8131 15.618C23.8264 15.7744 23.8475 15.9269 23.8656 16.082L23.7881 16.0616C23.6223 15.8765 23.5389 15.9854 23.4688 15.7829C23.4764 15.6962 23.4677 15.5017 23.4663 15.4072C23.4719 15.3598 23.4704 15.2739 23.4711 15.2229C23.4846 15.0676 23.479 14.9817 23.4695 14.828L23.5354 14.8628L23.5985 14.8275ZM23.7626 15.2806C23.8082 15.1084 23.8863 14.9557 23.682 14.8835C23.6616 14.992 23.6147 15.1583 23.6582 15.2521C23.7068 15.2774 23.7087 15.2794 23.7626 15.2806Z" fill="#F0E7D5"/>
<path d="M23.6823 14.8835C23.8862 14.9557 23.8083 15.1084 23.7627 15.2806C23.7089 15.2794 23.707 15.2774 23.6585 15.2521C23.615 15.1583 23.6619 14.992 23.6823 14.8835Z" fill="#F0E7D5"/>
<path d="M23.4734 8.5585C23.5579 8.55926 23.8457 8.53926 23.8941 8.54444C24.0182 8.55096 24.302 8.55949 24.4158 8.57803C24.2441 8.58194 24.0723 8.58113 23.9007 8.57562C23.8854 8.74761 23.8245 9.16806 23.8258 9.30382L23.7856 9.15394L23.755 9.13784C23.6241 9.38037 23.6636 10.8903 23.6745 11.223C23.6089 10.8552 23.6115 10.299 23.5802 9.9152C23.5624 9.69732 23.8139 9.23674 23.5214 8.97422C23.4534 9.14223 23.5315 10.7138 23.4721 11.1344L23.4678 9.0281L23.4734 8.5585Z" fill="#F0E7D5"/>
<path d="M23.4575 20.7884L23.4821 20.7033L23.5162 20.6906C23.5932 20.7869 23.6369 20.8766 23.7667 20.8739C23.9712 20.7249 23.7712 20.6165 23.8401 20.4496L23.9236 20.4232C24.2151 20.444 24.5744 20.4217 24.8289 20.4459C24.6358 20.4706 24.4694 20.4501 24.2869 20.464C24.1593 20.455 24.085 20.4581 23.9567 20.4654C24.152 20.6298 24.1609 20.6681 24.4258 20.6082L24.3313 20.6815L24.349 20.7078C24.4946 20.7312 24.6404 20.703 24.7553 20.7411C24.4632 20.7454 24.1232 20.7182 23.8836 20.8852C23.8233 21.1428 23.7877 21.3368 23.8087 21.6037L23.7411 21.7341C23.7127 21.7193 23.6617 21.679 23.6604 21.6561C23.6393 21.3055 23.6491 21.1599 23.511 20.8312C23.4764 21.1051 23.4979 21.4088 23.4778 21.6898C23.4606 21.5626 23.4646 21.2509 23.4627 21.1095C23.4696 20.9935 23.4639 20.9032 23.4575 20.7884Z" fill="#F0E7D5"/>
<path d="M23.4724 11.1343C23.5318 10.7138 23.4537 9.14222 23.5217 8.97421C23.8143 9.23673 23.5627 9.69731 23.5805 9.91519C23.6118 10.299 23.6092 10.8552 23.6748 11.223C23.6939 11.2984 23.6844 11.3332 23.668 11.4058C23.716 11.4616 23.7252 11.452 23.8012 11.4785C23.6958 11.4757 23.5904 11.4758 23.485 11.4789C23.4561 11.3601 23.467 11.2555 23.4724 11.1343Z" fill="#F0E7D5"/>
<path d="M20.5824 20.8466L20.7417 20.8525L20.7714 20.9033C20.7184 21.0542 20.667 21.9889 20.7426 22.0942C20.6915 22.1415 20.6434 22.1445 20.5737 22.1605C20.4478 22.2125 20.4752 22.2664 20.4741 22.3962C20.4769 22.2612 20.5017 22.1875 20.3916 22.1009L20.4126 22.0941C20.4685 22.0186 20.4849 21.458 20.4897 21.3387C20.5174 21.2091 20.5002 21.0365 20.5282 20.8803L20.5824 20.8466Z" fill="#F0E7D5"/>
<path d="M12.8756 14.6339C12.9228 14.5778 12.9044 14.5956 12.9953 14.5779C13.0292 14.696 13.0056 15.6552 12.9776 15.7677C12.8767 15.7653 12.7336 15.7576 12.6364 15.7645C12.6214 15.5034 12.6309 15.1341 12.6308 14.8653L12.6807 14.8596C12.6613 15.1184 12.6544 15.4299 12.7319 15.6783C12.7961 15.3707 12.7721 15.2143 12.7861 14.9067C12.79 14.8213 12.8679 14.8513 12.8756 14.6339Z" fill="#F0E7D5"/>
<path d="M9.51618 16.0961C9.63572 16.0991 9.87594 16.1145 9.99069 16.1418C9.98835 16.2447 9.97938 16.407 9.98467 16.5052L9.97793 16.5694C9.93449 16.6789 9.9723 17.043 9.95703 17.1759C9.9514 17.2248 9.91587 17.3188 9.90153 17.3916C9.89186 16.9999 9.86849 17.1676 9.76772 16.8742L9.76077 16.8536C9.76124 16.878 9.76386 16.9013 9.76782 16.9254C9.68067 16.7167 9.78486 16.5735 9.70395 16.4545C9.69062 16.3714 9.70011 16.3208 9.64807 16.2771C9.56739 16.3732 9.58096 16.8434 9.56413 16.9993C9.53474 16.7977 9.5552 16.3424 9.56091 16.1241L9.04771 16.1221L9.04102 16.1024L9.41605 16.0984L9.51618 16.0961Z" fill="#F0E7D5"/>
<path d="M12.6425 21.7186C12.6892 21.5724 12.6083 21.0873 12.7188 20.9756C12.8343 21.0851 12.7481 21.4189 12.8824 21.5767L12.9279 21.5705L12.9696 21.4978C12.9995 21.6674 12.9816 21.9824 13.0126 22.0778L13.0623 22.1043C12.9699 22.1443 12.9935 22.1193 12.9566 22.1924L12.9355 22.1937L12.9051 22.1565C12.8239 22.1171 12.74 22.1279 12.6484 22.1301C12.6552 21.9872 12.6185 21.9435 12.6425 21.7186Z" fill="#F0E7D5"/>
<path d="M20.8304 14.4418C21.0472 14.4541 21.285 14.4962 21.4872 14.5048L21.3426 14.5288C21.3182 14.5772 21.3232 14.5522 21.328 14.6066C21.3219 14.6828 21.3018 14.7787 21.3381 14.8388C21.8217 14.8826 22.5274 14.8363 23.0375 14.8511L23.0552 14.864C22.3844 14.8822 21.5265 14.8866 20.8514 14.8612C20.8487 15.0129 20.8269 15.6596 20.8669 15.7711L20.8423 15.7932L20.8262 15.7835C20.7833 15.7085 20.7935 15.7423 20.7974 15.6468C20.8309 15.4472 20.8221 14.8958 20.8246 14.6675C20.8226 14.5841 20.8247 14.5251 20.8304 14.4418Z" fill="#F0E7D5"/>
<path d="M29.5963 12.7696L29.5909 13.0127L29.5873 13.1627C29.5025 13.2097 29.0434 13.1757 28.899 13.1741C29.0222 13.1436 29.0396 13.161 29.0948 13.0805L29.0673 13.0272C28.9581 12.955 28.9351 12.9487 28.8059 12.9183C28.9262 12.9252 28.9574 12.9294 29.0717 12.8966C29.0344 12.8289 28.6516 12.8625 28.4307 12.7741C28.8191 12.7771 29.2073 12.7599 29.5963 12.7696Z" fill="#F0E7D5"/>
<path d="M10.5671 14.86L10.4395 14.8078L10.4543 14.7746C10.7868 14.7404 12.0609 14.6229 12.3051 14.7489L12.3473 14.8037C12.3425 14.8186 12.3362 14.8439 12.3281 14.8553C11.7412 14.8648 11.1541 14.8664 10.5671 14.86Z" fill="#F0E7D5"/>
<path d="M20.3618 14.517L20.4336 14.4997C20.4833 14.4396 20.4678 14.4162 20.4732 14.3246L20.4778 14.4765L20.5305 14.5025C20.5701 14.585 20.6585 14.7137 20.6748 14.752C20.7839 15.0086 20.6942 15.277 20.7239 15.5801C20.7209 15.6242 20.7423 15.6489 20.7643 15.6934L20.7435 15.7281C20.6478 15.7615 20.6778 15.7643 20.5835 15.7492C20.463 15.6525 20.5292 15.3796 20.4962 15.1911L20.4923 15.1699C20.4893 15.0062 20.5163 14.5993 20.3618 14.517Z" fill="#F0E7D5"/>
<path d="M8.6686 17.8953C8.61236 18.2686 8.59052 18.6796 8.66482 19.0525L8.78608 19.0754L8.72563 19.0986C8.59241 19.0961 8.34595 19.1618 8.2583 19.0749C8.2916 19.0032 8.29684 18.919 8.30716 18.8399C8.41099 18.7967 8.38109 18.8247 8.43156 18.7402C8.56796 18.5613 8.54195 18.2084 8.43031 18.0218C8.41649 17.9987 8.41963 17.9372 8.41861 17.9065C8.51817 17.9214 8.58028 17.9408 8.6686 17.8953Z" fill="#F0E7D5"/>
<path d="M29.5854 11.5191L29.6461 11.545C29.7014 11.7443 29.7172 12.02 29.7369 12.232C29.872 12.0809 29.8772 11.9984 29.9314 11.803C29.9233 11.9357 29.913 12.0683 29.9003 12.2006L29.8946 12.2236C29.8523 12.3957 29.8689 12.5935 29.8253 12.7269C29.5543 12.8787 29.7263 12.5842 29.5909 13.0127L29.5963 12.7696L29.5878 12.2277C29.602 12.0002 29.5917 11.7485 29.5854 11.5191Z" fill="#F0E7D5"/>
<path d="M9.57079 20.4518C9.71596 20.4513 9.85801 20.4514 10.0032 20.4451C9.99605 20.4964 9.96636 20.8065 9.96273 20.8182C9.95747 20.7584 9.94862 20.5869 9.92842 20.5418C9.86063 20.7289 9.83716 20.9067 9.60481 20.9298L9.54504 20.8511L9.52647 20.8195C9.34782 20.734 9.02898 20.7502 8.81486 20.7396C8.93806 20.721 9.1603 20.7489 9.26136 20.6811L9.26146 20.6957L9.28794 20.6846L9.23823 20.6881L9.22373 20.6656C9.0804 20.6397 8.92255 20.644 8.77588 20.6427C8.81877 20.611 8.85811 20.6162 8.91353 20.6137C9.15447 20.62 9.25851 20.6598 9.43812 20.542L9.4772 20.5516L9.43749 20.5869L9.43801 20.587L9.43433 20.6183L9.50554 20.6576L9.53469 20.636C9.52743 20.5912 9.51827 20.5476 9.52447 20.5023L9.46786 20.4818L9.32036 20.4461L9.57079 20.4518Z" fill="#F0E7D5"/>
<path d="M20.4858 13.2889C20.5707 13.2998 20.5814 13.3021 20.6545 13.3454C20.6708 13.4124 20.5118 13.8624 20.7093 14.0105L20.7438 14.0102C20.7556 13.9423 20.7636 13.8864 20.7713 13.8179C20.8016 13.9892 20.7456 14.2252 20.7402 14.4195C20.771 14.4405 20.7633 14.4413 20.7969 14.448C20.7409 14.5083 20.5663 14.4787 20.4777 14.4765L20.4731 14.3246L20.4858 13.2889Z" fill="#F0E7D5"/>
<path d="M10.0469 20.4274C10.1619 20.4338 10.2769 20.4414 10.3918 20.45L10.4403 20.4967C10.4392 20.5869 10.4248 20.7443 10.4646 20.8163C10.6083 20.8654 11.9019 20.8466 12.152 20.8495L12.1582 20.8601C11.65 20.8822 10.4408 20.8769 9.9624 20.8444L9.963 20.8182C9.96663 20.8065 9.99632 20.4964 10.0035 20.4451L10.0469 20.4274Z" fill="#F0E7D5"/>
<path d="M17.5952 10.9997C17.7197 10.687 17.5823 10.4959 17.6314 10.2131C17.6761 9.9553 17.7469 9.71691 17.8213 9.46915C17.8198 9.80913 17.8279 10.8667 17.7194 11.1547L17.6931 11.1776C17.6638 11.1239 17.6263 11.0502 17.5952 10.9997Z" fill="#F0E7D5"/>
<path d="M8.25146 17.5012C8.41404 17.4938 8.55498 17.5007 8.71322 17.4982C8.91876 17.4973 9.38557 17.4848 9.57171 17.5137L9.48912 17.5274C9.37048 17.5262 8.84757 17.504 8.78588 17.5317C8.71161 17.6929 8.80956 17.6937 8.66898 17.8953C8.58065 17.9408 8.51854 17.9214 8.41899 17.9065L8.39306 17.9015L8.35128 17.8944C8.31116 17.9564 8.31018 18.0181 8.29996 18.0921C8.3017 17.924 8.28951 17.6629 8.25146 17.5012Z" fill="#F0E7D5"/>
<path d="M21.328 14.6066C21.4806 14.8462 22.0873 14.7263 22.354 14.7327C22.5181 14.7367 22.7919 14.7585 22.9424 14.734L23.0207 14.6686L23.0657 14.687C23.0993 14.7721 23.0964 14.7357 23.0769 14.8244L23.0374 14.8511C22.5273 14.8363 21.8217 14.8826 21.3381 14.8388C21.3018 14.7787 21.3218 14.6828 21.328 14.6066Z" fill="#F0E7D5"/>
<path d="M23.6747 11.2231C23.6639 10.8903 23.6244 9.38038 23.7551 9.13785L23.7857 9.15394L23.8258 9.30383C23.847 9.47496 23.8357 10.4961 23.8082 10.6439C23.7709 10.2375 23.8172 9.72716 23.8031 9.30692C23.7554 9.3056 23.7743 9.29758 23.7425 9.32551C23.7171 9.43248 23.7629 9.49367 23.758 9.59754C23.7529 9.70393 23.7174 9.8336 23.7156 9.93945C23.7086 10.3507 23.6975 10.793 23.7269 11.2017C23.7815 11.0334 23.7896 10.889 23.8072 10.714C23.8105 10.8007 23.8139 11.4312 23.8009 11.4786C23.7251 11.452 23.7158 11.4616 23.668 11.4059C23.6843 11.3332 23.6938 11.2984 23.6747 11.2231Z" fill="#F0E7D5"/>
<path d="M9.68979 7.41837C9.80135 7.52739 9.77643 7.51429 9.95847 7.53768C9.95959 7.70426 9.94838 8.38801 10.0203 8.4948L10.0562 8.51849C9.97123 8.59344 9.99053 8.65867 9.97593 8.79294C9.97167 8.68124 9.9905 8.60274 9.88851 8.54571C9.76333 8.56231 9.68558 8.56325 9.55859 8.56391L9.59002 8.45006L9.62366 8.43843C9.71665 8.38704 9.62524 8.36206 9.70968 8.30297C9.76621 8.33794 9.78716 8.35574 9.8542 8.36996C9.95466 8.23285 9.86532 7.85877 9.81385 7.70223C9.78789 7.62332 9.72575 7.5944 9.69479 7.44363L9.68979 7.41837Z" fill="#F0E7D5"/>
<path d="M23.4928 20.128C23.4922 20.2181 23.4863 20.3035 23.511 20.39C23.6257 20.4945 23.7725 20.3907 23.911 20.4027L23.9234 20.4233L23.8399 20.4496C23.771 20.6165 23.971 20.7249 23.7666 20.8739C23.6367 20.8766 23.593 20.7869 23.516 20.6906L23.4819 20.7033L23.4573 20.7884C23.4386 20.7516 23.4416 20.511 23.4407 20.4528C23.246 20.4519 23.0608 20.4538 22.8667 20.4351C23.0642 20.4235 23.2613 20.4074 23.458 20.3869L23.4928 20.128Z" fill="#F0E7D5"/>
<path d="M28.2314 12.7986L28.3258 12.7544C28.3686 12.8274 28.4062 12.8772 28.4088 12.9611L28.3819 13.0374L28.3914 13.0795C28.5263 13.1318 28.6503 13.0652 28.7086 12.9436C28.7205 12.938 28.7882 12.9226 28.8058 12.9183C28.935 12.9487 28.9581 12.955 29.0672 13.0272L29.0947 13.0805C29.0395 13.161 29.0221 13.1436 28.8989 13.1742C28.7784 13.181 28.5227 13.2009 28.4143 13.1907C28.3461 13.1741 28.3339 13.1676 28.2724 13.1337C28.2416 12.9963 28.2382 12.9378 28.2314 12.7986Z" fill="#F0E7D5"/>
<path d="M17.7111 5.96368C17.7444 6.16026 17.7332 6.34175 17.7898 6.54015C17.7955 6.60404 17.803 6.72898 17.8143 6.78685C17.8174 6.91781 17.8364 7.37335 17.8189 7.47811L17.7748 7.67156L17.7547 7.66122C17.7395 7.48052 17.7301 7.42293 17.6795 7.24845C17.6384 6.8842 17.6765 6.33342 17.7111 5.96368Z" fill="#F0E7D5"/>
<path d="M26.6048 13.2079L26.697 13.2296C26.7635 13.3032 26.7275 13.3937 26.725 13.4979C26.7174 13.8251 26.6628 14.1254 26.7242 14.4506C26.6287 14.4692 26.661 14.4766 26.5932 14.4373C26.4928 14.271 26.5971 13.4618 26.6048 13.2079Z" fill="#F0E7D5"/>
<path d="M9.60743 7.33041L9.68007 7.36482L9.69007 7.41837L9.69508 7.44363C9.72604 7.5944 9.78818 7.62332 9.81414 7.70223C9.86561 7.85877 9.95495 8.23285 9.85449 8.36996C9.78745 8.35574 9.7665 8.33794 9.70996 8.30298C9.62553 8.36206 9.71694 8.38705 9.62395 8.43844C9.65167 8.21546 9.80794 7.75487 9.63409 7.57978C9.58972 7.63231 9.6024 7.63292 9.59534 7.70896L9.59498 7.82347L9.57208 7.82987C9.56513 7.73837 9.57618 7.55339 9.57903 7.45518L9.60743 7.33041Z" fill="#F0E7D5"/>
<path d="M9.70368 16.4545C9.78459 16.5735 9.68039 16.7167 9.76755 16.9254C9.76359 16.9014 9.76097 16.878 9.7605 16.8536L9.76745 16.8742C9.86822 17.1676 9.89159 16.9999 9.90126 17.3916C9.9156 17.3189 9.95113 17.2248 9.95676 17.1759C9.97203 17.043 9.93422 16.679 9.97766 16.5694C9.98129 16.7007 10.0161 17.3764 9.99068 17.4645L9.95126 17.4698C9.84462 17.4574 9.72692 17.4762 9.6333 17.4272C9.7216 17.1519 9.68926 16.7628 9.70368 16.4545Z" fill="#F0E7D5"/>
<path d="M9.98977 14.4801C10.1278 14.4993 10.292 14.4947 10.4333 14.4951C10.4073 14.6178 10.3852 14.7414 10.3672 14.8655C10.2892 14.8689 10.0102 14.8758 9.95898 14.894C9.9733 14.7687 9.98061 14.6085 9.98977 14.4801Z" fill="#F0E7D5"/>
<path d="M28.0508 12.8198L28.1019 12.83L28.1042 12.8984C27.9798 13.0511 27.1149 13.0276 26.9388 12.9429L26.9287 12.9073C27.047 12.8191 27.3486 12.8831 27.4974 12.8733C27.6828 12.861 27.8662 12.8397 28.0508 12.8198Z" fill="#F0E7D5"/>
<path d="M23.4777 21.6898C23.4978 21.4088 23.4762 21.1051 23.5109 20.8312C23.649 21.1599 23.6391 21.3055 23.6602 21.6561C23.6616 21.679 23.7126 21.7193 23.741 21.7341C23.7275 21.8171 23.7424 21.7864 23.6824 21.8494C23.6061 21.854 23.5889 21.8576 23.5182 21.8313L23.4634 21.8766L23.4777 21.6898Z" fill="#F0E7D5"/>
<path d="M20.5736 22.1605C20.7775 22.1513 20.8714 22.1495 21.0732 22.1715C20.9409 22.2083 20.8726 22.1481 20.7605 22.2138C20.7548 22.273 20.7553 22.2748 20.7717 22.3241C20.8076 22.4318 20.7442 22.7604 20.7195 22.885C20.6748 22.8128 20.6735 22.7887 20.697 22.7018L20.6846 22.6924C20.549 22.5876 20.5661 22.5815 20.5257 22.414L20.4841 22.5825L20.474 22.3962C20.4751 22.2664 20.4477 22.2125 20.5736 22.1605Z" fill="#F0E7D5"/>
<path d="M23.4667 15.4072C23.4681 15.5017 23.4768 15.6962 23.4691 15.7829C23.4541 15.8177 23.4434 15.844 23.4308 15.8797C23.244 15.7628 21.459 15.7657 21.2303 15.8145C21.2309 15.8364 21.23 15.859 21.2325 15.8808C21.0934 15.9061 21.0626 15.9024 20.9223 15.88L20.9167 15.812L20.8423 15.7932L20.8668 15.771C20.9712 15.7606 21.0945 15.7561 21.199 15.7577C21.9479 15.7688 22.7003 15.7502 23.4487 15.7608C23.4488 15.6312 23.4554 15.5349 23.4667 15.4072Z" fill="#F0E7D5"/>
<path d="M9.95148 17.4698L9.99089 17.4645C10.0032 17.5697 10.0277 17.6924 9.99631 17.7912C9.86411 17.914 9.59384 17.7305 9.42901 17.7691C9.39349 17.7407 9.40236 17.7583 9.38965 17.7215C9.50061 17.7037 9.51125 17.7115 9.58012 17.6454L9.5538 17.5672C9.61285 17.519 9.62626 17.5991 9.78935 17.4972L9.95148 17.4698Z" fill="#F0E7D5"/>
<path d="M9.56396 16.9994C9.5808 16.8435 9.56723 16.3732 9.64791 16.2771C9.69995 16.3208 9.69046 16.3714 9.70379 16.4545C9.68937 16.7628 9.72171 17.1519 9.63341 17.4272C9.72703 17.4762 9.84474 17.4574 9.95137 17.4698L9.78924 17.4972L9.57159 17.5137L9.56396 16.9994Z" fill="#F0E7D5"/>
<path d="M6.59915 13.1872L6.72912 13.204L6.68244 13.2423C6.67803 13.3183 6.71919 13.355 6.70985 13.4116C6.65444 13.748 6.72028 14.1281 6.65132 14.4571C6.71836 14.4725 6.77982 14.487 6.84807 14.4979C6.77313 14.5052 6.66712 14.506 6.61087 14.5454C6.56896 14.2939 6.55789 13.4336 6.59915 13.1872Z" fill="#F0E7D5"/>
<path d="M9.80279 9.1048C9.87675 9.23444 9.87134 10.042 9.81729 10.1745L9.79573 10.1728C9.70784 10.006 9.82076 9.8654 9.7702 9.69701C9.57634 9.86532 9.72571 9.92799 9.6569 10.1085L9.63464 10.0759C9.61636 9.81706 9.62519 9.70153 9.67862 9.44828L9.6802 9.45765C9.72141 9.34867 9.75428 9.18739 9.80279 9.1048Z" fill="#F0E7D5"/>
<path d="M29.7896 10.1752L29.9871 10.1631C29.9299 10.246 29.9503 10.8269 29.9511 10.9526C29.9146 11.1015 29.9992 11.2488 29.8949 11.4095L29.8667 11.3959C29.8191 11.2442 29.8338 10.4153 29.8504 10.2329L29.8519 10.2171L29.7896 10.1752Z" fill="#F0E7D5"/>
<path d="M9.82735 15.7206C9.95855 15.8922 9.7904 15.9503 9.80894 16.0718L9.94138 16.0842C9.96563 16.0265 9.96659 16.0182 9.96755 15.9558C10.0563 16.2371 10.223 16.1062 10.4818 16.1221C10.3301 16.1588 10.178 16.1583 10.0218 16.1645C10.0148 16.261 10.0091 16.4163 9.98461 16.5052C9.97932 16.407 9.98829 16.2447 9.99063 16.1418C9.87587 16.1145 9.63566 16.0991 9.51611 16.0961C9.52835 16.0674 9.53427 15.9331 9.53709 15.8934C9.61383 15.7278 9.65381 15.8731 9.82735 15.7206Z" fill="#F0E7D5"/>
<path d="M20.4861 13.2554C20.5715 13.2399 20.655 13.2156 20.7365 13.2398C20.8679 13.3732 20.7963 13.6387 20.7714 13.8179C20.7637 13.8864 20.7557 13.9423 20.7438 14.0102L20.7093 14.0105C20.5119 13.8624 20.6708 13.4125 20.6545 13.3454C20.5815 13.3021 20.5707 13.2998 20.4858 13.2889L20.4861 13.2554Z" fill="#F0E7D5"/>
<path d="M29.591 13.0127C29.7264 12.5843 29.5545 12.8787 29.8255 12.7269C29.869 12.5935 29.8524 12.3957 29.8947 12.2236L29.9004 12.2007C29.9123 12.3777 29.9492 12.794 29.8542 12.9342L29.7829 12.9494L29.7757 12.9991C29.8211 13.0567 29.8506 13.0707 29.9121 13.1083L29.9012 13.1483C29.7969 13.1711 29.694 13.1647 29.5874 13.1628L29.591 13.0127Z" fill="#F0E7D5"/>
<path d="M23.7268 11.2017C23.6974 10.793 23.7085 10.3507 23.7155 9.93944C23.7173 9.83359 23.7528 9.70392 23.7579 9.59753C23.7628 9.49366 23.717 9.43247 23.7424 9.3255C23.7742 9.29757 23.7553 9.30559 23.803 9.30691C23.8171 9.72715 23.7708 10.2375 23.8081 10.6439L23.8071 10.714C23.7896 10.889 23.7814 11.0334 23.7268 11.2017Z" fill="#F0E7D5"/>
<path d="M17.5527 6.59058C17.5395 6.36783 17.5669 5.82566 17.7261 5.66339C17.8542 5.73718 17.8378 6.62425 17.8144 6.78685C17.803 6.72898 17.7955 6.60404 17.7898 6.54015C17.7887 6.42691 17.7915 6.0684 17.7288 5.98484C17.6135 6.12763 17.6372 6.38433 17.5527 6.59058Z" fill="#F0E7D5"/>
<path d="M5.56505 12.846C5.81564 12.8948 6.42414 12.8394 6.51138 12.9068L6.50498 12.9544C6.44336 13.0035 6.41382 13.0012 6.33699 13.009C6.17434 12.989 5.57766 12.9608 5.41553 12.9846C5.43425 12.9317 5.51163 12.8875 5.56505 12.846ZM6.46929 12.9516L6.46416 12.9089C6.38631 12.8737 6.17882 12.8994 6.08827 12.9108C6.1893 12.994 6.34572 12.9787 6.46929 12.9516Z" fill="#F0E7D5"/>
<path d="M6.08838 12.9108C6.17894 12.8994 6.38642 12.8737 6.46427 12.9089L6.4694 12.9516C6.34584 12.9787 6.18941 12.994 6.08838 12.9108Z" fill="#F0E7D5"/>
<path d="M12.6804 14.8596C12.641 14.7866 12.6356 14.709 12.6715 14.6364C12.7748 14.5963 12.7499 14.61 12.8749 14.6339C12.8672 14.8513 12.7895 14.8213 12.7856 14.9067C12.7717 15.2143 12.7956 15.3707 12.7315 15.6783C12.6541 15.4299 12.661 15.1184 12.6804 14.8596Z" fill="#F0E7D5"/>
<path d="M6.72921 13.204C6.775 13.2154 6.85758 13.2249 6.87091 13.2567C6.92913 13.3955 6.88134 13.719 6.87505 13.8723C6.85667 13.9405 6.85067 13.9843 6.80234 14.0382C6.62523 13.9871 6.84976 13.4444 6.68262 13.2423L6.72921 13.204Z" fill="#F0E7D5"/>
<path d="M6.84776 14.4979C6.77963 14.487 6.71828 14.4725 6.65137 14.4571C6.7202 14.1281 6.65447 13.748 6.70979 13.4116C6.71911 13.355 6.67803 13.3183 6.68243 13.2423C6.84958 13.4443 6.62504 13.987 6.80215 14.0382C6.85048 13.9843 6.85649 13.9405 6.87487 13.8723C6.86397 14.0255 6.83166 14.3607 6.84776 14.4979Z" fill="#F0E7D5"/>
<path d="M9.5293 15.8029C9.70642 15.6298 9.56272 15.4213 9.66933 15.2424C9.67413 15.3175 9.66124 15.3484 9.70333 15.394C9.73844 15.3504 9.80016 15.2528 9.82583 15.2278C9.83133 15.3709 9.87793 15.5986 9.85854 15.7112L9.82736 15.7207C9.65382 15.8731 9.61384 15.7279 9.5371 15.8935L9.5293 15.8029Z" fill="#F0E7D5"/>
<path d="M23.9565 20.4654C24.0849 20.4581 24.1592 20.455 24.2867 20.464C24.5995 20.5847 24.7748 20.3616 24.9695 20.6603C24.7394 20.6413 24.7888 20.5871 24.4256 20.6082C24.1607 20.6681 24.1518 20.6298 23.9565 20.4654Z" fill="#F0E7D5"/>
<path d="M20.4917 20.4673L20.5219 20.4365C20.6028 20.4466 20.7571 20.4404 20.8441 20.4395C20.7857 20.5855 20.8571 20.7355 20.8072 20.832L20.742 20.8525L20.5827 20.8466L20.5706 20.8243C20.5871 20.7005 20.6281 20.518 20.4917 20.4673Z" fill="#F0E7D5"/>
<path d="M12.6485 22.1301C12.7401 22.1279 12.824 22.117 12.9052 22.1565L12.9357 22.1937L12.879 22.2108C12.8109 22.3474 12.8461 22.7423 12.8091 22.935L12.7954 22.9326C12.789 22.9156 12.7831 22.8983 12.7776 22.8809C12.7341 22.7447 12.6521 22.3578 12.7207 22.2309L12.7089 22.1974C12.6291 22.168 12.5942 22.165 12.5122 22.1539L12.6485 22.1301Z" fill="#F0E7D5"/>
<path d="M20.7714 20.9034C20.8277 21.0033 20.8104 21.1192 20.8105 21.2349C20.8058 21.3531 20.8168 21.9931 20.7951 22.0627L20.7427 22.0942C20.6672 21.989 20.7184 21.0542 20.7714 20.9034Z" fill="#F0E7D5"/>
<path d="M2.59504 9.93125C2.80576 9.92525 3.35315 9.89158 3.52832 9.95577L3.54123 9.98749C3.45926 10.0288 2.77265 10.0263 2.62242 10.0277L2.5874 9.98843L2.59504 9.93125Z" fill="#F0E7D5"/>
<path d="M6.81172 18.7073L6.69999 18.7045C6.55413 18.5284 6.84363 18.1163 6.63184 17.9484L6.64724 17.9175C6.72303 17.9065 6.7521 17.8905 6.81987 17.8602C6.82779 18.1382 6.72244 18.4885 6.81172 18.7073Z" fill="#F0E7D5"/>
<path d="M23.7408 21.7341L23.8083 21.6037C23.7949 21.7018 23.7844 22.0202 23.7551 22.0598C23.633 22.1068 23.5505 22.0891 23.4561 22.1182L23.4632 21.8766L23.518 21.8313C23.5887 21.8576 23.6059 21.8539 23.6822 21.8494C23.7422 21.7864 23.7273 21.8171 23.7408 21.7341Z" fill="#F0E7D5"/>
<path d="M26.7302 17.8781C26.7572 17.8899 26.8004 17.9029 26.8043 17.9328C26.8296 18.1315 26.8449 18.6257 26.7737 18.795L26.7372 18.7824C26.6795 18.6858 26.7336 18.0535 26.7302 17.8781Z" fill="#F0E7D5"/>
<path d="M9.56592 7.12589C9.68847 7.13459 9.85353 7.1335 9.95641 7.19C10.0012 7.25429 9.99048 7.22397 9.97661 7.32507C9.94381 7.37773 9.92734 7.41435 9.87589 7.44995C9.87996 7.38246 9.88494 7.37388 9.8497 7.31995C9.7115 7.33904 9.73627 7.30197 9.62009 7.29131L9.60749 7.33043L9.57909 7.4552C9.5688 7.39437 9.56794 7.19713 9.56592 7.12589Z" fill="#F0E7D5"/>
<path d="M9.55864 8.56392C9.68563 8.56326 9.76338 8.56232 9.88856 8.54572L9.82484 8.60945C9.83669 8.72901 9.86892 8.84136 9.80995 8.93752C9.74818 8.9653 9.68543 8.99091 9.62179 9.0143L9.59443 8.94331C9.66019 8.912 9.66758 8.90715 9.70996 8.84898C9.72816 8.76644 9.73519 8.70959 9.65013 8.67587C9.57565 8.72482 9.5972 8.72073 9.56985 8.83192C9.5532 8.7449 9.55675 8.72771 9.57765 8.64329L9.5833 8.6211L9.55322 8.57796L9.55864 8.56392Z" fill="#F0E7D5"/>
<path d="M20.7241 15.5801C20.7741 15.4047 20.7341 15.2087 20.7721 15.0177C20.8116 15.2579 20.7758 15.4418 20.7974 15.6468C20.7935 15.7422 20.7833 15.7084 20.8263 15.7835L20.8156 15.9964L20.7868 15.9657L20.7684 15.8808C20.7036 15.8147 20.6299 15.8078 20.538 15.787C20.454 15.6869 20.4881 15.3199 20.4924 15.1698L20.4963 15.1911C20.5294 15.3796 20.4632 15.6525 20.5837 15.7491C20.678 15.7643 20.6479 15.7615 20.7437 15.7281L20.7645 15.6934C20.7425 15.6489 20.721 15.6241 20.7241 15.5801Z" fill="#F0E7D5"/>
<path d="M9.54541 20.8511L9.60518 20.9297C9.83754 20.9066 9.86101 20.7289 9.9288 20.5417C9.949 20.5869 9.95784 20.7584 9.9631 20.8182L9.96251 20.8444C9.95639 20.9952 9.95239 21.2191 9.93546 21.3661C9.91604 21.2362 9.93956 20.9759 9.90652 20.9192C9.81653 20.9741 9.7411 21.0416 9.64764 21.0477C9.56564 20.9757 9.58402 20.9696 9.54541 20.8511Z" fill="#F0E7D5"/>
<path d="M30.8752 9.90759C30.9541 9.91402 31.0241 9.90901 31.0819 9.95594C30.9551 10.0596 30.1211 9.93509 30.0755 10.1213L30.1063 10.1669C30.0713 10.1805 30.0298 10.1684 29.9873 10.163C30.0399 10.1092 30.0239 10.0599 30.0278 9.96878C30.1001 9.91709 30.098 9.93324 30.2028 9.92613C30.3125 10.0017 30.8122 10.0092 30.9172 9.94741L30.8752 9.90759Z" fill="#F0E7D5"/>
<path d="M9.41595 16.0984C9.41261 16.0624 9.33421 15.9352 9.31061 15.9018C9.20509 15.8658 9.2164 15.8854 9.08863 15.9154L9.04639 15.8814L9.05274 15.8332C9.08669 15.8098 9.46398 15.8011 9.52925 15.8029L9.53705 15.8934C9.53423 15.9331 9.52832 16.0674 9.51608 16.0961L9.41595 16.0984Z" fill="#F0E7D5"/>
<path d="M12.6491 20.4567L12.6798 20.4723C12.8323 20.4926 12.7784 20.4727 12.9019 20.5797C12.9032 20.691 12.81 20.735 12.7218 20.8023L12.7356 20.8257C12.8215 20.8428 12.8529 20.8414 12.9394 20.8409L12.9667 20.8658C12.8385 20.8674 12.7487 20.8739 12.623 20.842C12.645 20.7548 12.6457 20.5544 12.6491 20.4567Z" fill="#F0E7D5"/>
<path d="M28.3262 12.7544L28.4309 12.7741C28.6519 12.8625 29.0346 12.8289 29.072 12.8966C28.9576 12.9294 28.9265 12.9252 28.8062 12.9183C28.7885 12.9226 28.7209 12.938 28.7089 12.9436C28.5316 12.9281 28.4963 12.8884 28.3822 13.0374L28.4092 12.9611C28.4066 12.8772 28.369 12.8274 28.3262 12.7544Z" fill="#F0E7D5"/>
<path d="M20.5303 14.5024C20.6885 14.6079 20.6828 14.6257 20.7768 14.793C20.7968 14.7464 20.809 14.7158 20.8243 14.6675C20.8217 14.8958 20.8306 15.4472 20.797 15.6468C20.7754 15.4419 20.8112 15.258 20.7717 15.0177C20.7337 15.2088 20.7737 15.4047 20.7237 15.5801C20.694 15.277 20.7837 15.0086 20.6746 14.752C20.6583 14.7136 20.5699 14.585 20.5303 14.5024Z" fill="#F0E7D5"/>
<path d="M6.82015 17.8602L6.89064 17.8689C6.90252 18.0796 6.90117 18.2474 6.89579 18.4589C6.83402 18.5352 6.8283 18.6107 6.81199 18.7073C6.72271 18.4885 6.82807 18.1382 6.82015 17.8602Z" fill="#F0E7D5"/>
<path d="M26.5912 18.6794C26.6125 18.8698 26.5969 18.8921 26.5513 19.073L26.5417 18.878C26.522 18.9467 26.5049 19.0437 26.4564 19.0891L26.4141 19.0627C26.4102 19.007 26.4058 19.0116 26.3895 18.9598L26.3838 18.9412L26.2302 18.8949C26.3093 18.8893 26.3425 18.8888 26.4206 18.865C26.3228 18.8376 26.2212 18.8178 26.1216 18.7969C26.2909 18.7622 26.4058 18.8095 26.5609 18.7668L26.5912 18.6794Z" fill="#F0E7D5"/>
<path d="M9.92361 14.9003L9.95892 14.894C9.95938 15.0942 9.95294 15.3379 9.96122 15.5343C9.95537 15.6704 9.94147 15.8237 9.96738 15.9558C9.96642 16.0183 9.96546 16.0265 9.94126 16.0842L9.80906 16.0718C9.79055 15.9503 9.9584 15.8922 9.82744 15.7206L9.85856 15.7112L9.90342 15.7062C9.95232 15.6329 9.9262 15.0276 9.92361 14.9003Z" fill="#F0E7D5"/>
<path d="M9.46801 20.4818L9.52462 20.5023C9.51842 20.5476 9.52758 20.5912 9.53484 20.636L9.50569 20.6576L9.43448 20.6183L9.43816 20.587L9.43764 20.5869L9.47735 20.5516L9.43827 20.542C9.25866 20.6598 9.15462 20.62 8.91368 20.6137C8.99142 20.6025 9.06883 20.5893 9.1459 20.5742L8.87939 20.5584V20.5358C8.97978 20.4863 9.33801 20.4872 9.46801 20.4818Z" fill="#F0E7D5"/>
<path d="M3.5708 12.0879L3.6167 12.0074C3.66332 12.0621 3.66948 12.1986 3.67963 12.2772C3.68296 12.43 3.69513 12.6067 3.63039 12.7469C3.56839 12.6764 3.57507 12.2161 3.5708 12.0879Z" fill="#F0E7D5"/>
<path d="M9.595 7.70896C9.60204 7.63292 9.58938 7.63231 9.63367 7.57977C9.80721 7.75487 9.65122 8.21545 9.62355 8.43843L9.58998 8.45006C9.56958 8.2593 9.57349 8.02523 9.57178 7.82987L9.59463 7.82347L9.59784 8.05747L9.63913 8.07319L9.60178 8.08362L9.60183 8.07022L9.61672 8.1163L9.64628 8.09299C9.66688 7.93585 9.67436 7.84648 9.595 7.70896Z" fill="#F0E7D5"/>
<path d="M24.4255 20.6082C24.7887 20.5871 24.7394 20.6413 24.9694 20.6603L24.9903 20.7024C24.8991 20.7276 24.8485 20.7316 24.755 20.7411C24.6402 20.703 24.4943 20.7312 24.3488 20.7078L24.3311 20.6815L24.4255 20.6082Z" fill="#F0E7D5"/>
<path d="M9.85954 14.8819L9.92338 14.9004C9.92597 15.0276 9.95209 15.633 9.90319 15.7062L9.85833 15.7112C9.87769 15.5986 9.83117 15.3709 9.82568 15.2278C9.85618 15.1531 9.85558 14.971 9.85954 14.8819Z" fill="#F0E7D5"/>
<path d="M9.66943 15.2424C9.73348 15.127 9.70032 15.1036 9.71919 14.9591C9.76902 14.9071 9.79182 14.9049 9.85951 14.8819C9.85555 14.971 9.85615 15.1531 9.82566 15.2278C9.80003 15.2528 9.73842 15.3504 9.70337 15.394C9.66136 15.3484 9.67422 15.3175 9.66943 15.2424Z" fill="#F0E7D5"/>
<path d="M20.5379 15.787C20.6298 15.8079 20.7035 15.8147 20.7683 15.8808L20.7867 15.9657L20.7194 15.9768C20.6711 16.039 20.6263 16.0549 20.5565 16.0897L20.5203 16.077C20.4948 15.9781 20.5243 15.8958 20.5379 15.787Z" fill="#F0E7D5"/>
<path d="M23.846 19.7361C23.7641 19.5884 23.6553 19.3377 23.8248 19.2158L23.8736 19.236L23.894 19.3159L23.8852 19.4643C23.8647 19.5371 23.8556 19.6676 23.8474 19.7477L23.846 19.7361Z" fill="#F0E7D5"/>
<path d="M12.7673 13.7059L12.7949 13.7409C12.8003 13.9127 12.817 14.2109 12.7547 14.3608C12.6411 14.2637 12.6977 13.8267 12.7673 13.7059Z" fill="#F0E7D5"/>
<path d="M30.2026 9.92613C30.4565 9.88136 30.6212 9.88733 30.8751 9.90759L30.9171 9.9474C30.812 10.0092 30.3123 10.0017 30.2026 9.92613Z" fill="#F0E7D5"/>
<path d="M9.60742 7.33042L9.62002 7.29129C9.7362 7.30195 9.71144 7.33902 9.84963 7.31993C9.88487 7.37386 9.87989 7.38244 9.87582 7.44993C9.92727 7.41433 9.94374 7.37772 9.97654 7.32506L9.95875 7.53768C9.77671 7.5143 9.80163 7.5274 9.69007 7.41837L9.68006 7.36482L9.60742 7.33042Z" fill="#F0E7D5"/>
<path d="M26.06 18.9159C25.8844 18.9135 25.5465 18.9187 25.3872 18.8616C25.427 18.8293 25.9454 18.8183 26.0374 18.8138L26.0431 18.8368L25.9255 18.8435L25.9066 18.8649C25.9757 18.8857 25.9959 18.8948 26.0675 18.8913L26.06 18.9159Z" fill="#F0E7D5"/>
<path d="M20.7967 14.448L20.8301 14.4418C20.8244 14.5251 20.8222 14.5841 20.8243 14.6675C20.809 14.7158 20.7968 14.7464 20.7768 14.793C20.6828 14.6257 20.6885 14.6079 20.5303 14.5024L20.4775 14.4765C20.5662 14.4787 20.7408 14.5083 20.7967 14.448Z" fill="#F0E7D5"/>
<path d="M8.39307 17.9015L8.41895 17.9065C8.41996 17.9372 8.41683 17.9987 8.43063 18.0219C8.54207 18.2085 8.56803 18.5613 8.43187 18.7402C8.48098 18.4897 8.40917 18.1663 8.39307 17.9015Z" fill="#F0E7D5"/>
<path d="M12.6802 20.4723C12.7631 20.4556 12.8376 20.4311 12.9157 20.4594C12.9927 20.5666 12.8856 20.7367 12.9398 20.8409C12.8532 20.8414 12.8218 20.8428 12.736 20.8257L12.7221 20.8023C12.8104 20.7349 12.9035 20.691 12.9022 20.5797C12.7788 20.4727 12.8326 20.4926 12.6802 20.4723Z" fill="#F0E7D5"/>
<path d="M3.57082 12.0879C3.56347 11.9585 3.53655 11.7489 3.58744 11.636C3.6717 11.7175 3.68097 12.0559 3.68273 12.1764C3.68304 12.2101 3.682 12.2437 3.67965 12.2772C3.6695 12.1986 3.66334 12.0621 3.61672 12.0074L3.57082 12.0879Z" fill="#F0E7D5"/>
<path d="M20.4913 20.4673C20.6274 20.518 20.5866 20.7005 20.5701 20.8243L20.5822 20.8466L20.5281 20.8803C20.5001 21.0365 20.5173 21.2091 20.4896 21.3387C20.477 21.0774 20.4911 20.7365 20.4913 20.4673Z" fill="#F0E7D5"/>
<path d="M8.77589 20.6426C8.92257 20.644 9.08042 20.6397 9.22374 20.6656L9.23824 20.6881L9.28795 20.6846L9.26148 20.6957L9.26137 20.6811C9.16031 20.7488 8.93807 20.721 8.81487 20.7396L8.77584 20.7452L8.72314 20.6718L8.77589 20.6426Z" fill="#F0E7D5"/>
<path d="M28.3818 13.0374C28.4959 12.8884 28.5312 12.9281 28.7086 12.9436C28.6502 13.0652 28.5263 13.1318 28.3914 13.0794L28.3818 13.0374Z" fill="#F0E7D5"/>
<path d="M9.57146 17.5137L9.78911 17.4972C9.62602 17.5991 9.61261 17.519 9.55357 17.5672L9.57989 17.6454C9.51101 17.7115 9.50038 17.7037 9.38941 17.7215L9.37549 17.6649C9.39688 17.5974 9.42043 17.6039 9.49971 17.5587L9.48887 17.5275L9.57146 17.5137Z" fill="#F0E7D5"/>
<path d="M23.4688 14.8079C23.5985 14.6631 23.4819 14.6066 23.5996 14.5157C23.6677 14.5227 23.6888 14.5196 23.7453 14.5534C23.6951 14.5701 23.6599 14.5814 23.6083 14.5933C23.5961 14.6887 23.596 14.7311 23.5989 14.8275L23.5358 14.8628L23.4698 14.828L23.4688 14.8079Z" fill="#F0E7D5"/>
<path d="M9.56982 8.83192C9.59713 8.72074 9.57562 8.72483 9.64997 8.67587C9.73487 8.70959 9.72786 8.76644 9.70969 8.84899C9.66739 8.90716 9.66001 8.91201 9.59436 8.94331L9.56982 8.83192Z" fill="#F0E7D5"/>
<path d="M30.6953 11.6918C30.7798 11.6834 30.7477 11.6767 30.819 11.7122L30.8226 11.7478C30.735 11.8057 30.7386 11.7837 30.6063 11.773C30.5462 11.771 30.5374 11.7747 30.4912 11.7416C30.5324 11.7027 30.6325 11.7 30.6953 11.6918Z" fill="#F0E7D5"/>
<path d="M8.77605 20.7452C8.69978 20.7409 8.42277 20.7398 8.38623 20.6768C8.51164 20.635 8.59722 20.6493 8.72335 20.6718L8.77605 20.7452Z" fill="#F0E7D5"/>
<path d="M16.7887 11.736C16.867 11.7307 16.9621 11.7197 17.0214 11.7689C16.9733 11.8136 16.9452 11.8019 16.8657 11.8105C16.7818 11.8106 16.6895 11.8183 16.6133 11.7881C16.6674 11.7468 16.7193 11.7467 16.7887 11.736Z" fill="#F0E7D5"/>
<path d="M26.1216 18.797C26.2212 18.8178 26.3229 18.8376 26.4207 18.865C26.3426 18.8888 26.3094 18.8893 26.2303 18.8949C26.1701 18.9053 26.1211 18.9163 26.0597 18.9159L26.0672 18.8913L26.0428 18.8368L26.0371 18.8138L26.1216 18.797Z" fill="#F0E7D5"/>
<path d="M9.91099 19.1329L9.98324 19.1711C9.99356 19.2066 10.0015 19.2268 10.0054 19.2639C9.93358 19.2617 9.78149 19.2378 9.73242 19.1855C9.79287 19.1334 9.81875 19.1458 9.91099 19.1329Z" fill="#F0E7D5"/>
<path d="M9.59509 7.70898C9.67446 7.8465 9.66697 7.93587 9.64637 8.09302L9.61681 8.11633L9.60192 8.07024L9.60187 8.08365L9.63922 8.07321L9.59794 8.0575L9.59473 7.8235L9.59509 7.70898Z" fill="#F0E7D5"/>
<path d="M9.19482 6.86899C9.31909 6.87714 9.39163 6.86223 9.45583 6.97169L9.28017 6.98698C9.20346 6.9431 9.22843 6.97025 9.19482 6.86899Z" fill="#F0E7D5"/>
<path d="M2.62194 10.0277C2.54526 10.0196 2.46973 10.0195 2.40869 9.97413C2.46825 9.92911 2.50866 9.93988 2.5946 9.93124L2.58698 9.98842L2.62194 10.0277Z" fill="#F0E7D5"/>
<path d="M26.0426 18.8367L26.0669 18.8913C25.9955 18.8947 25.9753 18.8857 25.9062 18.8649L25.9251 18.8435L26.0426 18.8367Z" fill="#F0E7D5"/>
</svg>
