<svg width="52" height="52" viewBox="0 0 52 52" fill="none" xmlns="http://www.w3.org/2000/svg">
<path d="M4.68945 15.2947C5.35132 14.0672 5.99675 12.9603 6.82407 11.831C9.86054 7.6887 14.1606 4.64511 19.0769 3.15855C25.1099 1.30997 31.6312 1.94448 37.1948 4.92139C38.6907 5.72945 40.8733 7.21948 42.0476 8.44676C41.6186 8.69676 39.6098 10.7641 39.0831 11.3059C37.8265 12.5985 36.3832 13.9499 35.1493 15.2492C34.3152 14.5535 33.5395 13.8961 32.5941 13.3625C27.0308 10.2221 19.6575 11.6631 15.5422 16.5096C14.5962 17.6236 13.0425 19.9745 12.7209 21.4309C12.2469 21.2983 5.76985 16.1119 4.68945 15.2947Z" fill="#EB4237"/>
<path d="M4.70288 36.7122C5.58885 35.9898 12.4011 30.6428 12.6961 30.5779C14.0264 34.2561 16.5315 37.311 20.11 38.9924C23.5679 40.5921 27.514 40.7772 31.1063 39.5082C31.8613 39.2344 32.4385 38.9553 33.1348 38.5707C33.2959 38.4818 33.9704 38.084 34.0594 38.0512C35.7645 39.4767 37.5944 40.7904 39.3346 42.1755C40.1528 42.8266 41.0014 43.4341 41.7928 44.1203C41.3097 44.5006 40.8583 44.9117 40.366 45.2921C39.3362 46.0801 38.2356 46.7709 37.0783 47.3558C31.5119 50.2051 24.4737 50.5758 18.5502 48.6579C12.5324 46.6709 7.55099 42.3735 4.70288 36.7122Z" fill="#33A953"/>
<path d="M25.9908 21.5369C26.5327 21.6264 27.4073 21.6083 27.9741 21.6088L30.7638 21.6098L42.542 21.6086C43.2339 21.6086 48.1955 21.5496 48.4408 21.676C48.6071 21.9604 48.6208 22.3628 48.6628 22.6876C49.1185 26.2124 48.9776 29.9705 48.074 33.4069C47.208 36.8156 45.5578 39.9749 43.2549 42.6331C42.9163 43.0215 42.1904 43.8315 41.7929 44.1202C41.0014 43.434 40.1529 42.8265 39.3347 42.1754C37.5945 40.7904 35.7646 39.4766 34.0594 38.0511C36.0382 36.4917 37.4058 35.1024 38.2938 32.6612C38.5148 32.0536 38.6376 31.4543 38.835 30.8797L30.2963 30.8835C29.2424 30.8833 26.9625 30.8228 25.9897 30.9291L25.9908 21.5369Z" fill="#4285F5"/>
<path d="M4.68963 15.2948C5.77003 16.112 12.247 21.2984 12.7211 21.431C11.5861 24.4861 11.8071 27.5099 12.6962 30.5779C12.4012 30.6428 5.58894 35.9898 4.70297 36.7121C1.1656 30.0031 1.36561 22.0242 4.68963 15.2948Z" fill="#FCBC04"/>
</svg>
