<svg width="97" height="106" viewBox="0 0 97 106" fill="none" xmlns="http://www.w3.org/2000/svg">
<rect x="0.5" y="0.5" width="96" height="105" rx="4.5" stroke="#E3CFFC" stroke-dasharray="10 5"/>
<path d="M23.5156 33.7969V40.8281H21.1719V24.4219H23.5156V31.4531H30.5469V24.4219H32.8906V40.8281H30.5469V33.7969H23.5156ZM38.75 38.4844H43.4375V37.3125H44.6094V31.4531H43.4375V30.2812H38.75V31.4531H37.5781V37.3125H38.75V38.4844ZM37.5781 40.8281V39.6562H36.4062V38.4844H35.2344V30.2812H36.4062V29.1094H37.5781V27.9375H44.6094V29.1094H45.7812V30.2812H46.9531V38.4844H45.7812V39.6562H44.6094V40.8281H37.5781ZM51.6406 31.4531V40.8281H49.2969V27.9375H51.6406V29.1094H52.8125V27.9375H58.6719V29.1094H59.8438V30.2812H61.0156V40.8281H58.6719V31.4531H57.5V30.2812H56.3281V40.8281H53.9844V30.2812H52.8125V31.4531H51.6406ZM65.7031 31.4531V32.625H72.7344V31.4531H71.5625V30.2812H66.875V31.4531H65.7031ZM75.0781 37.3125V38.4844H73.9062V39.6562H72.7344V40.8281H65.7031V39.6562H64.5312V38.4844H63.3594V30.2812H64.5312V29.1094H65.7031V27.9375H72.7344V29.1094H73.9062V30.2812H75.0781V33.7969H73.9062V34.9688H65.7031V37.3125H66.875V38.4844H71.5625V37.3125H75.0781Z" fill="#4E3020"/>
<path d="M23.5156 76.7969V83.8281H21.1719V67.4219H23.5156V74.4531H30.5469V67.4219H32.8906V83.8281H30.5469V76.7969H23.5156ZM38.75 81.4844H43.4375V80.3125H44.6094V74.4531H43.4375V73.2812H38.75V74.4531H37.5781V80.3125H38.75V81.4844ZM37.5781 83.8281V82.6562H36.4062V81.4844H35.2344V73.2812H36.4062V72.1094H37.5781V70.9375H44.6094V72.1094H45.7812V73.2812H46.9531V81.4844H45.7812V82.6562H44.6094V83.8281H37.5781ZM51.6406 74.4531V83.8281H49.2969V70.9375H51.6406V72.1094H52.8125V70.9375H58.6719V72.1094H59.8438V73.2812H61.0156V83.8281H58.6719V74.4531H57.5V73.2812H56.3281V83.8281H53.9844V73.2812H52.8125V74.4531H51.6406ZM65.7031 74.4531V75.625H72.7344V74.4531H71.5625V73.2812H66.875V74.4531H65.7031ZM75.0781 80.3125V81.4844H73.9062V82.6562H72.7344V83.8281H65.7031V82.6562H64.5312V81.4844H63.3594V73.2812H64.5312V72.1094H65.7031V70.9375H72.7344V72.1094H73.9062V73.2812H75.0781V76.7969H73.9062V77.9688H65.7031V80.3125H66.875V81.4844H71.5625V80.3125H75.0781Z" fill="#FFC28A"/>
</svg>
