<svg width="31" height="35" viewBox="0 0 31 35" fill="none" xmlns="http://www.w3.org/2000/svg">
<path d="M10.9564 0.00392638C13.9758 -0.00436048 16.9951 0.000464854 20.0144 0.0184522C20.0673 0.500601 20.0483 1.13167 20.0336 1.62191C20.6799 1.60963 21.2345 1.61645 21.8805 1.63644C21.8724 2.14959 21.8873 2.69667 21.8371 3.2045C22.466 3.19271 23.0952 3.19924 23.7236 3.22405C23.6592 4.23768 23.7506 5.32219 23.6866 6.36423L25.4952 6.39524C25.4633 8.48255 25.5175 10.5903 25.4932 12.683C26.7178 12.7003 27.9573 12.6975 29.1833 12.7027C29.194 13.2618 29.2012 13.7852 29.1837 14.3448C29.8317 14.3258 30.3534 14.3312 31 14.3499C30.9549 14.914 30.9859 15.7663 30.9868 16.3577L30.9863 19.9365L30.9856 29.5452C30.9858 31.3068 31.0228 33.1803 30.9676 34.935C29.8353 35.007 28.162 34.9648 26.9875 34.9646L19.8428 34.9618L6.73969 34.9619L2.47884 34.9653C1.70828 34.9672 0.759515 34.946 0.0118384 35L0 14.3277C0.558036 14.3502 1.24035 14.3372 1.81415 14.3417C1.77224 13.9899 1.80197 13.0307 1.8367 12.6767C2.68167 12.7433 4.56578 12.6974 5.48857 12.7063C5.44828 12.063 5.48032 11.1887 5.48156 10.5213L5.48716 6.39689C6.0953 6.36989 6.68605 6.3813 7.29402 6.38846C7.18798 5.57932 7.32179 4.14433 7.2543 3.23107C7.90384 3.19807 8.4694 3.19987 9.11675 3.21021C9.08578 2.68248 9.10441 2.18147 9.11861 1.65438C9.60729 1.60095 10.44 1.61031 10.9263 1.62635C10.8947 1.13518 10.9375 0.505379 10.9564 0.00392638ZM12.7025 4.73772C12.198 4.74406 11.3808 4.7753 10.9006 4.73874C10.9049 5.28153 10.9029 5.82432 10.8948 6.36701C10.3577 6.37681 9.62968 6.40806 9.10739 6.38105C9.10194 8.42011 9.15064 10.6442 9.09605 12.6701C11.9736 12.7747 15.4167 12.6974 18.3279 12.6966C19.465 12.6981 20.7397 12.6777 21.8656 12.7066C21.9819 10.679 21.7715 8.3679 21.8938 6.37393L20.0838 6.36155C20.091 5.82661 20.0631 5.28051 20.0756 4.75385C19.5851 4.74947 18.7079 4.71905 18.2473 4.75488C18.2714 4.25138 18.2528 3.66326 18.2902 3.18164L14.7787 3.17711C14.2142 3.17964 13.2334 3.21172 12.7097 3.17233L12.7025 4.73772ZM12.6915 22.2273C12.7476 23.4923 12.755 25.7526 12.6869 27.0091C13.3196 27.0171 13.9543 27.0205 14.586 27.0508C14.5256 28.0183 14.6075 29.2149 14.5891 30.2236C15.1799 30.2131 15.8159 30.2055 16.4053 30.2363L16.4035 28.6103C16.4063 28.0952 16.3969 27.5385 16.4211 27.027L18.292 27.0318C18.2362 26.4519 18.2697 25.661 18.2735 25.0627L18.2855 22.2558C17.2497 22.2894 16.1428 22.2759 15.1016 22.2801C14.4147 22.2828 13.3318 22.3133 12.6915 22.2273Z" fill="#F0E7D5"/>
</svg>
