<svg width="111" height="106" viewBox="0 0 111 106" fill="none" xmlns="http://www.w3.org/2000/svg">
<rect x="0.5" y="0.5" width="110" height="105" rx="4.5" stroke="#E3CFFC" stroke-dasharray="10 5"/>
<path d="M21.1719 37.8281V21.4219H23.5156V35.4844H32.8906V37.8281H21.1719ZM38.75 35.4844H43.4375V34.3125H44.6094V28.4531H43.4375V27.2812H38.75V28.4531H37.5781V34.3125H38.75V35.4844ZM37.5781 37.8281V36.6562H36.4062V35.4844H35.2344V27.2812H36.4062V26.1094H37.5781V24.9375H44.6094V26.1094H45.7812V27.2812H46.9531V35.4844H45.7812V36.6562H44.6094V37.8281H37.5781ZM58.6719 28.4531V27.2812H57.5V26.1094H52.8125V27.2812H51.6406V28.4531H52.8125V29.625H57.5V28.4531H58.6719ZM51.6406 36.6562H50.4688V34.3125H52.8125V35.4844H57.5V34.3125H58.6719V30.7969H57.5V31.9688H51.6406V30.7969H50.4688V29.625H49.2969V26.1094H50.4688V24.9375H51.6406V23.7656H58.6719V24.9375H59.8438V26.1094H61.0156V35.4844H59.8438V36.6562H58.6719V37.8281H51.6406V36.6562ZM70.3906 22.5938V24.9375H68.0469V22.5938H70.3906ZM71.5625 35.4844H72.7344V37.8281H70.3906V36.6562H69.2188V35.4844H68.0469V29.625H65.7031V27.2812H70.3906V34.3125H71.5625V35.4844ZM79.7656 28.4531V37.8281H77.4219V24.9375H79.7656V26.1094H80.9375V24.9375H86.7969V26.1094H87.9688V27.2812H89.1406V37.8281H86.7969V28.4531H85.625V27.2812H80.9375V28.4531H79.7656Z" fill="#4E3020"/>
<path d="M21.1719 83.8281V67.4219H23.5156V81.4844H32.8906V83.8281H21.1719ZM38.75 81.4844H43.4375V80.3125H44.6094V74.4531H43.4375V73.2812H38.75V74.4531H37.5781V80.3125H38.75V81.4844ZM37.5781 83.8281V82.6562H36.4062V81.4844H35.2344V73.2812H36.4062V72.1094H37.5781V70.9375H44.6094V72.1094H45.7812V73.2812H46.9531V81.4844H45.7812V82.6562H44.6094V83.8281H37.5781ZM58.6719 74.4531V73.2812H57.5V72.1094H52.8125V73.2812H51.6406V74.4531H52.8125V75.625H57.5V74.4531H58.6719ZM51.6406 82.6562H50.4688V80.3125H52.8125V81.4844H57.5V80.3125H58.6719V76.7969H57.5V77.9688H51.6406V76.7969H50.4688V75.625H49.2969V72.1094H50.4688V70.9375H51.6406V69.7656H58.6719V70.9375H59.8438V72.1094H61.0156V81.4844H59.8438V82.6562H58.6719V83.8281H51.6406V82.6562ZM70.3906 68.5938V70.9375H68.0469V68.5938H70.3906ZM71.5625 81.4844H72.7344V83.8281H70.3906V82.6562H69.2188V81.4844H68.0469V75.625H65.7031V73.2812H70.3906V80.3125H71.5625V81.4844ZM79.7656 74.4531V83.8281H77.4219V70.9375H79.7656V72.1094H80.9375V70.9375H86.7969V72.1094H87.9688V73.2812H89.1406V83.8281H86.7969V74.4531H85.625V73.2812H80.9375V74.4531H79.7656Z" fill="#FFC28A"/>
</svg>
