<svg width="153" height="106" viewBox="0 0 153 106" fill="none" xmlns="http://www.w3.org/2000/svg">
<rect x="0.5" y="0.5" width="152" height="105" rx="4.5" stroke="#E3CFFC" stroke-dasharray="10 5"/>
<path d="M23.5156 26.7656V31.4531H29.375V30.2812H30.5469V27.9375H29.375V26.7656H23.5156ZM23.5156 33.7969V40.8281H21.1719V24.4219H30.5469V25.5938H31.7188V26.7656H32.8906V31.4531H31.7188V32.625H30.5469V33.7969H23.5156ZM38.75 38.4844H43.4375V37.3125H44.6094V31.4531H43.4375V30.2812H38.75V31.4531H37.5781V37.3125H38.75V38.4844ZM37.5781 40.8281V39.6562H36.4062V38.4844H35.2344V30.2812H36.4062V29.1094H37.5781V27.9375H44.6094V29.1094H45.7812V30.2812H46.9531V38.4844H45.7812V39.6562H44.6094V40.8281H37.5781ZM51.6406 31.4531V40.8281H49.2969V27.9375H51.6406V29.1094H52.8125V27.9375H58.6719V29.1094H59.8438V30.2812H61.0156V40.8281H58.6719V31.4531H57.5V30.2812H56.3281V40.8281H53.9844V30.2812H52.8125V31.4531H51.6406ZM66.875 38.4844H71.5625V37.3125H72.7344V31.4531H71.5625V30.2812H66.875V31.4531H65.7031V37.3125H66.875V38.4844ZM65.7031 40.8281V39.6562H64.5312V38.4844H63.3594V30.2812H64.5312V29.1094H65.7031V27.9375H72.7344V29.1094H73.9062V30.2812H75.0781V38.4844H73.9062V39.6562H72.7344V40.8281H65.7031ZM86.7969 30.2812V24.4219H89.1406V40.8281H86.7969V38.4844H85.625V39.6562H84.4531V40.8281H80.9375V39.6562H79.7656V38.4844H78.5938V37.3125H77.4219V31.4531H78.5938V30.2812H79.7656V29.1094H80.9375V27.9375H84.4531V29.1094H85.625V30.2812H86.7969ZM80.9375 37.3125H82.1094V38.4844H83.2812V37.3125H84.4531V36.1406H85.625V32.625H84.4531V31.4531H83.2812V30.2812H82.1094V31.4531H80.9375V32.625H79.7656V36.1406H80.9375V37.3125ZM95 38.4844H99.6875V37.3125H100.859V31.4531H99.6875V30.2812H95V31.4531H93.8281V37.3125H95V38.4844ZM93.8281 40.8281V39.6562H92.6562V38.4844H91.4844V30.2812H92.6562V29.1094H93.8281V27.9375H100.859V29.1094H102.031V30.2812H103.203V38.4844H102.031V39.6562H100.859V40.8281H93.8281ZM107.891 33.7969V40.8281H105.547V27.9375H107.891V30.2812H109.062V29.1094H110.234V27.9375H114.922V29.1094H116.094V30.2812H117.266V32.625H114.922V31.4531H113.75V30.2812H111.406V31.4531H110.234V32.625H109.062V33.7969H107.891ZM123.125 38.4844H127.812V37.3125H128.984V31.4531H127.812V30.2812H123.125V31.4531H121.953V37.3125H123.125V38.4844ZM121.953 40.8281V39.6562H120.781V38.4844H119.609V30.2812H120.781V29.1094H121.953V27.9375H128.984V29.1094H130.156V30.2812H131.328V38.4844H130.156V39.6562H128.984V40.8281H121.953Z" fill="#F0E7D5"/>
<path d="M23.5156 69.7656V74.4531H29.375V73.2812H30.5469V70.9375H29.375V69.7656H23.5156ZM23.5156 76.7969V83.8281H21.1719V67.4219H30.5469V68.5938H31.7188V69.7656H32.8906V74.4531H31.7188V75.625H30.5469V76.7969H23.5156ZM38.75 81.4844H43.4375V80.3125H44.6094V74.4531H43.4375V73.2812H38.75V74.4531H37.5781V80.3125H38.75V81.4844ZM37.5781 83.8281V82.6562H36.4062V81.4844H35.2344V73.2812H36.4062V72.1094H37.5781V70.9375H44.6094V72.1094H45.7812V73.2812H46.9531V81.4844H45.7812V82.6562H44.6094V83.8281H37.5781ZM51.6406 74.4531V83.8281H49.2969V70.9375H51.6406V72.1094H52.8125V70.9375H58.6719V72.1094H59.8438V73.2812H61.0156V83.8281H58.6719V74.4531H57.5V73.2812H56.3281V83.8281H53.9844V73.2812H52.8125V74.4531H51.6406ZM66.875 81.4844H71.5625V80.3125H72.7344V74.4531H71.5625V73.2812H66.875V74.4531H65.7031V80.3125H66.875V81.4844ZM65.7031 83.8281V82.6562H64.5312V81.4844H63.3594V73.2812H64.5312V72.1094H65.7031V70.9375H72.7344V72.1094H73.9062V73.2812H75.0781V81.4844H73.9062V82.6562H72.7344V83.8281H65.7031ZM86.7969 73.2812V67.4219H89.1406V83.8281H86.7969V81.4844H85.625V82.6562H84.4531V83.8281H80.9375V82.6562H79.7656V81.4844H78.5938V80.3125H77.4219V74.4531H78.5938V73.2812H79.7656V72.1094H80.9375V70.9375H84.4531V72.1094H85.625V73.2812H86.7969ZM80.9375 80.3125H82.1094V81.4844H83.2812V80.3125H84.4531V79.1406H85.625V75.625H84.4531V74.4531H83.2812V73.2812H82.1094V74.4531H80.9375V75.625H79.7656V79.1406H80.9375V80.3125ZM95 81.4844H99.6875V80.3125H100.859V74.4531H99.6875V73.2812H95V74.4531H93.8281V80.3125H95V81.4844ZM93.8281 83.8281V82.6562H92.6562V81.4844H91.4844V73.2812H92.6562V72.1094H93.8281V70.9375H100.859V72.1094H102.031V73.2812H103.203V81.4844H102.031V82.6562H100.859V83.8281H93.8281ZM107.891 76.7969V83.8281H105.547V70.9375H107.891V73.2812H109.062V72.1094H110.234V70.9375H114.922V72.1094H116.094V73.2812H117.266V75.625H114.922V74.4531H113.75V73.2812H111.406V74.4531H110.234V75.625H109.062V76.7969H107.891ZM123.125 81.4844H127.812V80.3125H128.984V74.4531H127.812V73.2812H123.125V74.4531H121.953V80.3125H123.125V81.4844ZM121.953 83.8281V82.6562H120.781V81.4844H119.609V73.2812H120.781V72.1094H121.953V70.9375H128.984V72.1094H130.156V73.2812H131.328V81.4844H130.156V82.6562H128.984V83.8281H121.953Z" fill="#4285F5"/>
</svg>
