<svg width="219" height="72" viewBox="0 0 219 72" fill="none" xmlns="http://www.w3.org/2000/svg">
<rect width="219" height="72" rx="36" fill="#2C3B71"/>
<ellipse cx="35.7551" cy="36" rx="35.7551" ry="36" fill="#1D2647"/>
<path d="M35.5394 54.6939C30.2187 54.6939 25.6961 52.8317 21.9716 49.1072C18.2471 45.3827 16.3849 40.8601 16.3849 35.5394C16.3849 30.2187 18.2471 25.6961 21.9716 21.9716C25.6961 18.2471 30.2187 16.3849 35.5394 16.3849C36.036 16.3849 36.5237 16.4026 37.0026 16.4381C37.4815 16.4736 37.9515 16.5268 38.4126 16.5977C36.9583 17.6264 35.7966 18.9654 34.9275 20.6148C34.0585 22.2643 33.624 24.0467 33.624 25.9621C33.624 29.1546 34.7413 31.8681 36.976 34.1028C39.2107 36.3375 41.9242 37.4549 45.1167 37.4549C47.0676 37.4549 48.8589 37.0203 50.4906 36.1513C52.1222 35.2822 53.4524 34.1206 54.4811 32.6662C54.552 33.1274 54.6052 33.5973 54.6407 34.0762C54.6762 34.5551 54.6939 35.0428 54.6939 35.5394C54.6939 40.8601 52.8317 45.3827 49.1072 49.1072C45.3827 52.8317 40.8601 54.6939 35.5394 54.6939ZM35.5394 50.4374C38.6609 50.4374 41.4631 49.5772 43.9461 47.8568C46.4291 46.1365 48.2381 43.8929 49.3732 41.1261C48.6638 41.3035 47.9544 41.4454 47.2449 41.5518C46.5355 41.6582 45.8261 41.7114 45.1167 41.7114C40.7537 41.7114 37.0381 40.1773 33.9698 37.109C30.9015 34.0407 29.3674 30.3251 29.3674 25.9621C29.3674 25.2527 29.4206 24.5433 29.527 23.8339C29.6334 23.1244 29.7753 22.415 29.9527 21.7056C27.1859 22.8407 24.9423 24.6497 23.222 27.1327C21.5016 29.6157 20.6414 32.4179 20.6414 35.5394C20.6414 39.6541 22.0958 43.1657 25.0044 46.0744C27.9131 48.983 31.4247 50.4374 35.5394 50.4374Z" fill="white"/>
<g clip-path="url(#clip0_4_81)">
<path d="M151.433 27.0117C151.706 26.9693 151.88 27.0349 151.943 27.3255C152.526 30.0197 153.075 32.8388 154.672 35.1482C155.879 36.895 157.696 37.8596 159.634 38.5856C160.264 38.8207 160.905 39.0271 161.553 39.2046C161.981 39.3207 162.415 39.4287 162.836 39.5582C163.207 39.6636 163.256 40.1431 162.857 40.2547C160.685 40.8627 158.549 41.4243 156.666 42.7204C154.09 44.4933 153.147 47.4821 152.427 50.3682C152.324 50.77 152.231 51.1744 152.147 51.5809C152.081 51.9003 152.023 52.2268 151.933 52.5403C151.876 52.7402 151.817 52.756 151.642 52.8501C151.428 52.8647 151.266 52.715 151.212 52.5154C151.116 52.1564 151.058 51.7857 150.976 51.4218C150.783 50.5657 150.584 49.71 150.336 48.8678C149.093 44.5119 147.227 42.4306 142.874 41.0162C142.298 40.8185 141.706 40.6697 141.123 40.4981C140.805 40.4046 140.395 40.3314 140.11 40.1721C139.935 39.895 139.946 39.6535 140.309 39.5565C143.067 38.8191 146.083 37.9335 148.002 35.6705C149.939 33.3865 150.617 30.0421 151.227 27.1859C151.31 27.0892 151.323 27.0761 151.433 27.0117Z" fill="white"/>
<path d="M131.758 17.2354C131.933 17.2487 132.049 17.2932 132.084 17.4747C132.294 18.5442 132.586 19.5848 132.934 20.6118C133.595 22.6263 135.228 23.7349 137.178 24.3258C137.464 24.4125 138.677 24.7035 138.755 24.9586C138.686 25.1308 138.293 25.232 138.117 25.2712C137.105 25.4974 136.182 25.8456 135.27 26.3499C133.49 27.3338 132.83 29.3014 132.376 31.1586C132.27 31.5886 132.206 32.2883 131.931 32.6225C131.796 32.6315 131.858 32.6453 131.739 32.5774C131.542 32.2878 131.381 31.2325 131.277 30.8153C131.176 30.4136 131.072 30.1141 130.952 29.7407C130.221 27.4596 129.051 26.3868 126.804 25.6225C126.269 25.4408 125.565 25.3081 125.068 25.0747C124.982 25.0344 124.991 24.9953 124.973 24.9185C125.019 24.8194 125.041 24.7946 125.152 24.7535C126.059 24.4165 126.944 24.2386 127.825 23.8104C129.953 22.7771 130.886 20.7743 131.364 18.5699C131.441 18.2104 131.538 17.5192 131.758 17.2354Z" fill="white"/>
<path d="M177.238 43.3951C177.412 43.4085 177.528 43.453 177.564 43.6345C177.774 44.704 178.065 45.7446 178.413 46.7716C179.074 48.7861 180.708 49.8947 182.657 50.4856C182.943 50.5723 184.156 50.8633 184.234 51.1184C184.166 51.2906 183.772 51.3918 183.596 51.431C182.584 51.6572 181.661 52.0054 180.749 52.5097C178.97 53.4936 178.31 55.4612 177.855 57.3184C177.749 57.7483 177.685 58.4481 177.41 58.7823C177.275 58.7913 177.337 58.8051 177.218 58.7372C177.022 58.4476 176.86 57.3923 176.756 56.9751C176.655 56.5734 176.551 56.2739 176.431 55.9005C175.7 53.6194 174.531 52.5466 172.283 51.7823C171.749 51.6006 171.044 51.4679 170.547 51.2345C170.462 51.1942 170.47 51.1551 170.453 51.0783C170.498 50.9792 170.52 50.9544 170.631 50.9133C171.538 50.5763 172.423 50.3984 173.305 49.9702C175.432 48.9369 176.366 46.9341 176.843 44.7297C176.921 44.3702 177.018 43.679 177.238 43.3951Z" fill="white"/>
<path d="M168.049 20.1021C168.109 20.1282 168.192 20.1717 168.211 20.2332C168.393 20.9016 168.554 21.6535 168.781 22.3004C169.387 24.0248 170.778 24.5 172.395 24.9533C172.469 24.9742 172.5 25.0298 172.52 25.1021C172.431 25.243 171.236 25.5769 170.99 25.6638C169.419 26.2185 168.799 27.4721 168.454 29.0167C168.392 29.2895 168.297 29.8346 168.108 30.0736C168.04 30.0288 167.986 30.0065 167.964 29.9167C167.717 28.9029 167.543 27.974 166.997 27.0553C166.309 25.8975 164.957 25.5452 163.745 25.1963C163.669 25.1742 163.67 25.1396 163.647 25.078C163.661 25.0531 163.674 25.0283 163.688 25.0034C164.283 24.7734 164.892 24.6308 165.477 24.364C166.897 23.7156 167.447 22.4511 167.768 21.006C167.824 20.7513 167.896 20.3258 168.049 20.1021Z" fill="white"/>
<path d="M130.849 48.8959C130.908 48.922 130.991 48.9655 131.01 49.027C131.193 49.6954 131.354 50.4473 131.581 51.0942C132.187 52.8186 133.577 53.2938 135.195 53.7472C135.269 53.768 135.3 53.8236 135.32 53.8959C135.23 54.0368 134.036 54.3707 133.79 54.4576C132.219 55.0124 131.599 56.266 131.253 57.8106C131.192 58.0833 131.097 58.6284 130.907 58.8674C130.839 58.8227 130.786 58.8003 130.764 58.7105C130.516 57.6967 130.342 56.7678 129.797 55.8492C129.109 54.6913 127.757 54.339 126.545 53.9901C126.468 53.968 126.47 53.9334 126.446 53.8718C126.46 53.8469 126.474 53.8221 126.488 53.7972C127.083 53.5672 127.692 53.4247 128.276 53.1578C129.696 52.5094 130.246 51.2449 130.567 49.7998C130.624 49.5451 130.695 49.1196 130.849 48.8959Z" fill="white"/>
<path d="M149.77 7.84546C149.805 7.86718 149.866 7.90346 149.88 7.94141C150.118 8.59042 150.156 9.30353 150.534 9.90641C151.065 10.754 152.115 11.0859 153.033 11.3154C152.753 11.4729 152.315 11.6069 152.004 11.7068C151.096 11.985 150.509 12.6126 150.242 13.5183C150.163 13.7874 149.965 14.6407 149.829 14.8228C149.697 14.7261 149.64 14.4588 149.611 14.32C149.274 12.7121 148.691 11.9353 147.074 11.5198C146.999 11.5005 146.782 11.4195 146.713 11.3559L146.728 11.3004C146.915 11.1928 147.142 11.1841 147.347 11.1022C148.499 10.641 149.136 10.14 149.45 8.91284C149.503 8.70383 149.687 8.01561 149.77 7.84546Z" fill="white"/>
<path d="M122.169 36.6719C122.204 36.6936 122.265 36.7299 122.279 36.7678C122.517 37.4168 122.555 38.1299 122.933 38.7328C123.464 39.5804 124.514 39.9123 125.432 40.1418C125.152 40.2993 124.714 40.4333 124.403 40.5333C123.495 40.8114 122.908 41.439 122.641 42.3447C122.562 42.6138 122.364 43.4671 122.228 43.6492C122.096 43.5525 122.038 43.2852 122.009 43.1464C121.673 41.5385 121.09 40.7617 119.472 40.3462C119.397 40.3269 119.181 40.2459 119.112 40.1823L119.127 40.1268C119.314 40.0192 119.541 40.0105 119.745 39.9286C120.898 39.4674 121.535 38.9665 121.848 37.7393C121.902 37.5302 122.086 36.842 122.169 36.6719Z" fill="white"/>
<path d="M163.119 58.675C163.154 58.6968 163.215 58.733 163.229 58.771C163.467 59.42 163.505 60.1331 163.883 60.736C164.414 61.5836 165.465 61.9155 166.383 62.145C166.103 62.3025 165.664 62.4365 165.353 62.5364C164.445 62.8145 163.858 63.4422 163.591 64.3479C163.512 64.617 163.314 65.4703 163.178 65.6524C163.047 65.5557 162.989 65.2884 162.96 65.1496C162.623 63.5417 162.04 62.7649 160.423 62.3493C160.348 62.3301 160.132 62.2491 160.062 62.1855L160.077 62.13C160.264 62.0224 160.491 62.0136 160.696 61.9318C161.848 61.4706 162.485 60.9696 162.799 59.7424C162.852 59.5334 163.036 58.8452 163.119 58.675Z" fill="white"/>
</g>
<defs>
<clipPath id="clip0_4_81">
<rect width="71.5102" height="71.5102" fill="white" transform="translate(113)"/>
</clipPath>
</defs>
</svg>
