<svg width="219" height="72" viewBox="0 0 219 72" fill="none" xmlns="http://www.w3.org/2000/svg">
<rect width="219" height="72" rx="36" fill="#F9D4AB"/>
<ellipse cx="183.245" cy="36" rx="35.7551" ry="36" fill="#FFC28A"/>
<path d="M182.539 41.9242C184.313 41.9242 185.82 41.3035 187.062 40.062C188.303 38.8205 188.924 37.3129 188.924 35.5394C188.924 33.7658 188.303 32.2583 187.062 31.0168C185.82 29.7753 184.313 29.1545 182.539 29.1545C180.766 29.1545 179.258 29.7753 178.017 31.0168C176.775 32.2583 176.155 33.7658 176.155 35.5394C176.155 37.3129 176.775 38.8205 178.017 40.062C179.258 41.3035 180.766 41.9242 182.539 41.9242ZM182.539 46.1808C179.595 46.1808 177.086 45.1432 175.011 43.0682C172.936 40.9931 171.898 38.4835 171.898 35.5394C171.898 32.5953 172.936 30.0857 175.011 28.0106C177.086 25.9355 179.595 24.898 182.539 24.898C185.483 24.898 187.993 25.9355 190.068 28.0106C192.143 30.0857 193.181 32.5953 193.181 35.5394C193.181 38.4835 192.143 40.9931 190.068 43.0682C187.993 45.1432 185.483 46.1808 182.539 46.1808ZM167.641 37.6677H159.128V33.4111H167.641V37.6677ZM205.95 37.6677H197.437V33.4111H205.95V37.6677ZM180.411 20.6414V12.1283H184.668V20.6414H180.411ZM180.411 58.9504V50.4373H184.668V58.9504H180.411ZM170.621 26.4942L165.247 21.3331L168.28 18.1939L173.388 23.5146L170.621 26.4942ZM196.799 52.8848L191.638 47.5109L194.458 44.5846L199.832 49.7456L196.799 52.8848ZM191.585 23.621L196.746 18.2471L199.885 21.2799L194.564 26.3878L191.585 23.621ZM165.194 49.7988L170.568 44.6378L173.494 47.4577L168.333 52.8316L165.194 49.7988Z" fill="#4E3020"/>
<path d="M79.0004 44H80.3007L80.3211 44.0059C80.4939 44.0548 80.7096 44.0717 80.8893 44.1063C81.1278 44.1523 81.365 44.2077 81.5973 44.2788C83.2196 44.7863 84.5927 45.8834 85.4457 47.3536C85.49 47.4306 85.5337 47.5237 85.5765 47.5958C85.8741 48.2179 86.23 49.0841 86.2603 49.78C86.3379 49.7277 86.4489 49.6578 86.5203 49.6018C88.1422 48.5261 90.1045 48.2173 92.0056 48.5933C93.454 48.8797 94.9254 49.6774 95.7524 50.9309C96.0562 51.4012 96.253 51.9326 96.3284 52.4874C96.3504 52.9396 96.3635 53.342 96.2271 53.7745C96.2139 53.8161 96.1492 54.0281 96.1458 54.0633C96.0817 54.222 96.038 54.3366 95.9509 54.483C96.8433 54.5935 97.6848 54.8136 98.3847 55.4265C99.1498 56.0861 99.5634 56.6904 99.8303 57.6842C99.8859 57.8909 99.8974 58.067 99.9393 58.2525C99.9441 58.5556 99.9611 58.9302 99.9251 59.2249C99.8192 60.092 99.3938 61.0184 98.7711 61.6379C97.9086 62.4959 97.0107 62.8409 95.8298 62.9306C94.7429 62.9177 93.654 62.9342 92.5666 62.9272C92.4664 62.9265 91.9876 62.9162 91.9152 62.9383C91.7915 62.9179 91.414 62.9262 91.2674 62.9262L89.9709 62.9273L85.4217 62.928L68.688 62.9304C68.4759 62.9231 68.2638 62.9123 68.052 62.8981L67.7609 62.879C67.6281 62.8531 67.3948 62.8355 67.25 62.8165C66.9595 62.7756 66.67 62.7279 66.3818 62.6732C65.7196 62.5455 65.2836 62.3833 64.6597 62.188C64.526 62.1299 64.392 62.0726 64.2577 62.0161C63.0949 61.5194 61.9431 60.7454 61.3305 59.5967C61.1406 59.2407 61.1286 58.9801 61.0067 58.684L61 58.6682V57.7773C61.0776 57.5985 61.1363 57.2721 61.2416 57.0333C62.0436 55.2141 64.2594 54.2543 66.0979 53.8406C66.3351 53.7872 66.5569 53.745 66.7904 53.702C66.9793 53.6672 67.4076 53.6486 67.5512 53.5889C67.5609 53.5605 67.4977 52.8855 67.4979 52.7685C67.4965 52.3107 67.5717 51.8559 67.7204 51.4229C68.1036 50.3248 68.9114 49.4262 69.9627 48.9285C70.8016 48.5216 71.7399 48.3645 72.6656 48.4761C72.8483 48.4976 73.1325 48.5442 73.3027 48.6034C73.4486 48.147 73.6438 47.7079 73.8849 47.2938C74.7342 45.8509 76.0928 44.7778 77.6934 44.2858C78.2071 44.1302 78.5558 44.1177 79.0004 44Z" fill="#F0E7D5"/>
<path d="M61.0334 6H63.0585L63.0903 6.00922C63.3593 6.08531 63.6952 6.11167 63.9752 6.16561C64.3466 6.23717 64.716 6.32354 65.0777 6.43417C67.6042 7.22454 69.7428 8.93317 71.0712 11.2228C71.1402 11.3427 71.2082 11.4877 71.2749 11.6C71.7384 12.5689 72.2926 13.9179 72.3398 15.0016C72.4607 14.9202 72.6336 14.8113 72.7448 14.7241C75.2706 13.0488 78.3267 12.5679 81.2874 13.1535C83.5431 13.5996 85.8347 14.8418 87.1225 16.794C87.5958 17.5265 87.9021 18.3541 88.0196 19.2181C88.0539 19.9223 88.0744 20.5491 87.8618 21.2226C87.8414 21.2874 87.7406 21.6176 87.7353 21.6723C87.6355 21.9195 87.5674 22.0979 87.4317 22.3259C88.8216 22.4981 90.132 22.8408 91.2221 23.7954C92.4136 24.8226 93.0578 25.7638 93.4734 27.3115C93.56 27.6334 93.5779 27.9076 93.6431 28.1965C93.6507 28.6686 93.6771 29.252 93.6211 29.7109C93.4561 31.0613 92.7936 32.5041 91.8238 33.4688C90.4806 34.805 89.0823 35.3424 87.2431 35.4821C85.5504 35.4619 83.8545 35.4877 82.1612 35.4767C82.005 35.4757 81.2594 35.4597 81.1467 35.494C80.954 35.4623 80.3661 35.4752 80.1378 35.4753L78.1186 35.4769L71.0338 35.478L44.9731 35.4818C44.6427 35.4704 44.3125 35.4536 43.9827 35.4314L43.5293 35.4017C43.3224 35.3613 42.9592 35.3339 42.7336 35.3043C42.2812 35.2407 41.8304 35.1663 41.3815 35.0812C40.3502 34.8824 39.6713 34.6297 38.6995 34.3256C38.4913 34.2351 38.2827 34.1458 38.0734 34.0579C36.2626 33.2843 34.4688 32.079 33.5147 30.29C33.2189 29.7355 33.2002 29.3297 33.0104 28.8686L33 28.8438V27.4564C33.1208 27.178 33.2123 26.6697 33.3763 26.2977C34.6253 23.4646 38.076 21.9698 40.9393 21.3255C41.3087 21.2423 41.6542 21.1767 42.0178 21.1097C42.3121 21.0555 42.979 21.0265 43.2027 20.9335C43.2178 20.8893 43.1194 19.838 43.1197 19.6558C43.1175 18.9429 43.2346 18.2345 43.4662 17.5602C44.0631 15.8501 45.321 14.4507 46.9583 13.6755C48.2648 13.0418 49.7261 12.7972 51.1678 12.971C51.4523 13.0045 51.8949 13.0771 52.16 13.1693C52.3871 12.4585 52.6911 11.7745 53.0667 11.1297C54.3894 8.88249 56.5051 7.21139 58.9979 6.44504C59.7979 6.20281 60.341 6.18333 61.0334 6Z" fill="#F0E7D5"/>
</svg>
