<svg width="139" height="106" viewBox="0 0 139 106" fill="none" xmlns="http://www.w3.org/2000/svg">
<rect x="0.5" y="0.5" width="138" height="105" rx="4.5" stroke="#E3CFFC" stroke-dasharray="10 5"/>
<path d="M31.7188 26.7656H32.8906V29.1094H30.5469V27.9375H29.375V26.7656H24.6875V27.9375H23.5156V30.2812H24.6875V31.4531H30.5469V32.625H31.7188V33.7969H32.8906V38.4844H31.7188V39.6562H30.5469V40.8281H23.5156V39.6562H22.3438V38.4844H21.1719V36.1406H23.5156V37.3125H24.6875V38.4844H29.375V37.3125H30.5469V34.9688H29.375V33.7969H23.5156V32.625H22.3438V31.4531H21.1719V26.7656H22.3438V25.5938H23.5156V24.4219H30.5469V25.5938H31.7188V26.7656ZM42.2656 25.5938V27.9375H39.9219V25.5938H42.2656ZM43.4375 38.4844H44.6094V40.8281H42.2656V39.6562H41.0938V38.4844H39.9219V32.625H37.5781V30.2812H42.2656V37.3125H43.4375V38.4844ZM58.6719 31.4531V30.2812H57.5V29.1094H52.8125V30.2812H51.6406V31.4531H52.8125V32.625H57.5V31.4531H58.6719ZM51.6406 39.6562H50.4688V37.3125H52.8125V38.4844H57.5V37.3125H58.6719V33.7969H57.5V34.9688H51.6406V33.7969H50.4688V32.625H49.2969V29.1094H50.4688V27.9375H51.6406V26.7656H58.6719V27.9375H59.8438V29.1094H61.0156V38.4844H59.8438V39.6562H58.6719V40.8281H51.6406V39.6562ZM65.7031 31.4531V40.8281H63.3594V27.9375H65.7031V29.1094H66.875V27.9375H72.7344V29.1094H73.9062V30.2812H75.0781V40.8281H72.7344V31.4531H71.5625V30.2812H66.875V31.4531H65.7031ZM92.6562 38.4844H91.4844V24.4219H93.8281V37.3125H95V38.4844H99.6875V37.3125H100.859V24.4219H103.203V38.4844H102.031V39.6562H100.859V40.8281H93.8281V39.6562H92.6562V38.4844ZM114.922 30.2812H113.75V29.1094H110.234V30.2812H109.062V33.7969H110.234V34.9688H113.75V33.7969H114.922V30.2812ZM107.891 36.1406V40.8281H105.547V26.7656H107.891V27.9375H109.062V26.7656H114.922V27.9375H116.094V29.1094H117.266V34.9688H116.094V36.1406H114.922V37.3125H109.062V36.1406H107.891Z" fill="#4E3020"/>
<path d="M31.7188 69.7656H32.8906V72.1094H30.5469V70.9375H29.375V69.7656H24.6875V70.9375H23.5156V73.2812H24.6875V74.4531H30.5469V75.625H31.7188V76.7969H32.8906V81.4844H31.7188V82.6562H30.5469V83.8281H23.5156V82.6562H22.3438V81.4844H21.1719V79.1406H23.5156V80.3125H24.6875V81.4844H29.375V80.3125H30.5469V77.9688H29.375V76.7969H23.5156V75.625H22.3438V74.4531H21.1719V69.7656H22.3438V68.5938H23.5156V67.4219H30.5469V68.5938H31.7188V69.7656ZM42.2656 68.5938V70.9375H39.9219V68.5938H42.2656ZM43.4375 81.4844H44.6094V83.8281H42.2656V82.6562H41.0938V81.4844H39.9219V75.625H37.5781V73.2812H42.2656V80.3125H43.4375V81.4844ZM58.6719 74.4531V73.2812H57.5V72.1094H52.8125V73.2812H51.6406V74.4531H52.8125V75.625H57.5V74.4531H58.6719ZM51.6406 82.6562H50.4688V80.3125H52.8125V81.4844H57.5V80.3125H58.6719V76.7969H57.5V77.9688H51.6406V76.7969H50.4688V75.625H49.2969V72.1094H50.4688V70.9375H51.6406V69.7656H58.6719V70.9375H59.8438V72.1094H61.0156V81.4844H59.8438V82.6562H58.6719V83.8281H51.6406V82.6562ZM65.7031 74.4531V83.8281H63.3594V70.9375H65.7031V72.1094H66.875V70.9375H72.7344V72.1094H73.9062V73.2812H75.0781V83.8281H72.7344V74.4531H71.5625V73.2812H66.875V74.4531H65.7031ZM92.6562 81.4844H91.4844V67.4219H93.8281V80.3125H95V81.4844H99.6875V80.3125H100.859V67.4219H103.203V81.4844H102.031V82.6562H100.859V83.8281H93.8281V82.6562H92.6562V81.4844ZM114.922 73.2812H113.75V72.1094H110.234V73.2812H109.062V76.7969H110.234V77.9688H113.75V76.7969H114.922V73.2812ZM107.891 79.1406V83.8281H105.547V69.7656H107.891V70.9375H109.062V69.7656H114.922V70.9375H116.094V72.1094H117.266V77.9688H116.094V79.1406H114.922V80.3125H109.062V79.1406H107.891Z" fill="#FFC28A"/>
</svg>
